<svg width="278" height="149" viewBox="0 0 278 149" fill="none" xmlns="http://www.w3.org/2000/svg">
<g filter="url(#filter0_d_13_2)">
<path d="M36.8923 39.6945L38.3922 39.694L38.3919 38.1941L38.3893 26.7797L38.3893 26.7796C38.385 12.5163 23.9934 1.50382 6.99956 1.50885L5.49956 1.50929L5.5 3.00929L5.50338 14.4237C5.5076 28.6869 19.8985 39.6995 36.8923 39.6945Z" stroke="#008080" stroke-width="3" shape-rendering="crispEdges"/>
</g>
<g filter="url(#filter1_d_13_2)">
<path d="M39.429 70.7311L39.6123 72.2198L41.101 72.0365L50.5854 70.8691L50.5855 70.8691C62.5327 69.3977 70.4466 56.9917 68.7992 43.615L68.6158 42.1262L67.1271 42.3096L57.6427 43.4776C45.6956 44.9489 37.7816 57.3543 39.429 70.7311Z" stroke="#008080" stroke-width="3"/>
</g>
<g filter="url(#filter2_d_13_2)">
<path d="M13.3502 82.9461L11.8503 82.9513L11.8554 84.4512L11.888 94.0071L11.888 94.0072C11.9298 106.045 23.308 115.376 36.7857 115.329L38.2857 115.324L38.2804 113.824L38.2473 104.268C38.2055 92.2307 26.8279 82.8993 13.3502 82.9461Z" stroke="#008080" stroke-width="3"/>
</g>
<g filter="url(#filter3_d_13_2)">
<rect x="37" y="140.807" width="111.807" height="3.07726" rx="1.53863" transform="rotate(-90 37 140.807)" fill="#008080"/>
</g>
<path d="M102.679 19.9062C102.546 18.6657 101.988 17.6998 101.003 17.0085C100.027 16.3172 98.7585 15.9716 97.196 15.9716C96.0975 15.9716 95.1553 16.1373 94.3693 16.4688C93.5833 16.8002 92.982 17.25 92.5653 17.8182C92.1487 18.3864 91.9356 19.035 91.9261 19.7642C91.9261 20.3703 92.0634 20.8958 92.3381 21.3409C92.6222 21.786 93.0057 22.1648 93.4886 22.4773C93.9716 22.7803 94.5066 23.036 95.0938 23.2443C95.6809 23.4527 96.2727 23.6278 96.8693 23.7699L99.5966 24.4517C100.695 24.7074 101.751 25.053 102.764 25.4886C103.787 25.9242 104.701 26.4735 105.506 27.1364C106.32 27.7992 106.964 28.5994 107.438 29.5369C107.911 30.4744 108.148 31.5729 108.148 32.8324C108.148 34.5369 107.712 36.0379 106.841 37.3352C105.97 38.6231 104.71 39.6316 103.062 40.3608C101.424 41.0805 99.4403 41.4403 97.1108 41.4403C94.8475 41.4403 92.8826 41.09 91.2159 40.3892C89.5587 39.6884 88.2614 38.6657 87.3239 37.321C86.3958 35.9763 85.8939 34.3381 85.8182 32.4062H91.0028C91.0786 33.4195 91.3911 34.2623 91.9403 34.9347C92.4896 35.607 93.2045 36.1089 94.0852 36.4403C94.9754 36.7718 95.9697 36.9375 97.0682 36.9375C98.214 36.9375 99.2178 36.767 100.08 36.4261C100.951 36.0758 101.633 35.5928 102.125 34.9773C102.617 34.3523 102.868 33.6231 102.878 32.7898C102.868 32.0322 102.646 31.4072 102.21 30.9148C101.775 30.4129 101.164 29.9962 100.378 29.6648C99.6013 29.3239 98.6922 29.0208 97.6506 28.7557L94.3409 27.9034C91.9451 27.2879 90.0511 26.3551 88.6591 25.1051C87.2765 23.8456 86.5852 22.1742 86.5852 20.0909C86.5852 18.3769 87.0492 16.8759 87.9773 15.5881C88.9148 14.3002 90.1884 13.3011 91.7983 12.5909C93.4081 11.8712 95.2311 11.5114 97.267 11.5114C99.3314 11.5114 101.14 11.8712 102.693 12.5909C104.256 13.3011 105.482 14.2907 106.372 15.5597C107.262 16.8191 107.722 18.268 107.75 19.9062H102.679ZM112.846 41V11.9091H118.116V24.2244H131.596V11.9091H136.88V41H131.596V28.642H118.116V41H112.846ZM142.612 41V11.9091H153.521C155.755 11.9091 157.63 12.2973 159.146 13.0739C160.67 13.8504 161.821 14.9394 162.597 16.3409C163.383 17.733 163.776 19.357 163.776 21.2131C163.776 23.0786 163.379 24.6979 162.583 26.071C161.797 27.4347 160.637 28.4905 159.103 29.2386C157.569 29.9773 155.684 30.3466 153.45 30.3466H145.68V25.9716H152.739C154.046 25.9716 155.116 25.7917 155.95 25.4318C156.783 25.0625 157.398 24.5275 157.796 23.8267C158.203 23.1165 158.407 22.2453 158.407 21.2131C158.407 20.1809 158.203 19.3002 157.796 18.571C157.389 17.8324 156.769 17.2737 155.935 16.8949C155.102 16.5066 154.027 16.3125 152.711 16.3125H147.881V41H142.612ZM157.64 27.8182L164.842 41H158.961L151.887 27.8182H157.64ZM168.627 41V11.9091H187.548V16.3267H173.897V24.2244H186.567V28.642H173.897V36.5824H187.661V41H168.627ZM196.816 11.9091L204.387 34.8068H204.685L212.242 11.9091H218.038L207.782 41H201.276L191.035 11.9091H196.816ZM221.869 41V11.9091H240.79V16.3267H227.139V24.2244H239.81V28.642H227.139V36.5824H240.903V41H221.869ZM250.3 11.9091V14.8068C250.3 15.6402 250.139 16.5066 249.817 17.4062C249.504 18.2964 249.073 19.1487 248.524 19.9631C247.975 20.768 247.35 21.4593 246.649 22.0369L244.263 20.4886C244.784 19.7027 245.238 18.8551 245.626 17.946C246.015 17.0275 246.209 15.9905 246.209 14.8352V11.9091H250.3ZM270.531 19.9062C270.398 18.6657 269.839 17.6998 268.854 17.0085C267.879 16.3172 266.61 15.9716 265.048 15.9716C263.949 15.9716 263.007 16.1373 262.221 16.4688C261.435 16.8002 260.834 17.25 260.417 17.8182C260 18.3864 259.787 19.035 259.778 19.7642C259.778 20.3703 259.915 20.8958 260.19 21.3409C260.474 21.786 260.857 22.1648 261.34 22.4773C261.823 22.7803 262.358 23.036 262.945 23.2443C263.532 23.4527 264.124 23.6278 264.721 23.7699L267.448 24.4517C268.547 24.7074 269.603 25.053 270.616 25.4886C271.638 25.9242 272.552 26.4735 273.357 27.1364C274.172 27.7992 274.816 28.5994 275.289 29.5369C275.763 30.4744 275.999 31.5729 275.999 32.8324C275.999 34.5369 275.564 36.0379 274.692 37.3352C273.821 38.6231 272.562 39.6316 270.914 40.3608C269.276 41.0805 267.292 41.4403 264.962 41.4403C262.699 41.4403 260.734 41.09 259.067 40.3892C257.41 39.6884 256.113 38.6657 255.175 37.321C254.247 35.9763 253.746 34.3381 253.67 32.4062H258.854C258.93 33.4195 259.243 34.2623 259.792 34.9347C260.341 35.607 261.056 36.1089 261.937 36.4403C262.827 36.7718 263.821 36.9375 264.92 36.9375C266.066 36.9375 267.069 36.767 267.931 36.4261C268.802 36.0758 269.484 35.5928 269.977 34.9773C270.469 34.3523 270.72 33.6231 270.729 32.7898C270.72 32.0322 270.497 31.4072 270.062 30.9148C269.626 30.4129 269.015 29.9962 268.229 29.6648C267.453 29.3239 266.544 29.0208 265.502 28.7557L262.192 27.9034C259.797 27.2879 257.903 26.3551 256.511 25.1051C255.128 23.8456 254.437 22.1742 254.437 20.0909C254.437 18.3769 254.901 16.8759 255.829 15.5881C256.766 14.3002 258.04 13.3011 259.65 12.5909C261.26 11.8712 263.083 11.5114 265.119 11.5114C267.183 11.5114 268.992 11.8712 270.545 12.5909C272.107 13.3011 273.334 14.2907 274.224 15.5597C275.114 16.8191 275.573 18.268 275.602 19.9062H270.531ZM85.5909 64.3267V59.9091H108.801V64.3267H99.8097V89H94.5824V64.3267H85.5909ZM113.496 89H107.871L118.112 59.9091H124.618L134.874 89H129.249L121.479 65.875H121.251L113.496 89ZM113.68 77.5938H129.021V81.8267H113.68V77.5938ZM143.109 59.9091L149.515 70.5625H149.742L156.177 59.9091H162.185L153.222 74.4545L162.327 89H156.219L149.742 78.4176H149.515L143.038 89H136.958L146.148 74.4545L137.072 59.9091H143.109ZM102.679 115.906C102.546 114.666 101.988 113.7 101.003 113.009C100.027 112.317 98.7585 111.972 97.196 111.972C96.0975 111.972 95.1553 112.137 94.3693 112.469C93.5833 112.8 92.982 113.25 92.5653 113.818C92.1487 114.386 91.9356 115.035 91.9261 115.764C91.9261 116.37 92.0634 116.896 92.3381 117.341C92.6222 117.786 93.0057 118.165 93.4886 118.477C93.9716 118.78 94.5066 119.036 95.0938 119.244C95.6809 119.453 96.2727 119.628 96.8693 119.77L99.5966 120.452C100.695 120.707 101.751 121.053 102.764 121.489C103.787 121.924 104.701 122.473 105.506 123.136C106.32 123.799 106.964 124.599 107.438 125.537C107.911 126.474 108.148 127.573 108.148 128.832C108.148 130.537 107.712 132.038 106.841 133.335C105.97 134.623 104.71 135.632 103.062 136.361C101.424 137.08 99.4403 137.44 97.1108 137.44C94.8475 137.44 92.8826 137.09 91.2159 136.389C89.5587 135.688 88.2614 134.666 87.3239 133.321C86.3958 131.976 85.8939 130.338 85.8182 128.406H91.0028C91.0786 129.42 91.3911 130.262 91.9403 130.935C92.4896 131.607 93.2045 132.109 94.0852 132.44C94.9754 132.772 95.9697 132.938 97.0682 132.938C98.214 132.938 99.2178 132.767 100.08 132.426C100.951 132.076 101.633 131.593 102.125 130.977C102.617 130.352 102.868 129.623 102.878 128.79C102.868 128.032 102.646 127.407 102.21 126.915C101.775 126.413 101.164 125.996 100.378 125.665C99.6013 125.324 98.6922 125.021 97.6506 124.756L94.3409 123.903C91.9451 123.288 90.0511 122.355 88.6591 121.105C87.2765 119.846 86.5852 118.174 86.5852 116.091C86.5852 114.377 87.0492 112.876 87.9773 111.588C88.9148 110.3 90.1884 109.301 91.7983 108.591C93.4081 107.871 95.2311 107.511 97.267 107.511C99.3314 107.511 101.14 107.871 102.693 108.591C104.256 109.301 105.482 110.291 106.372 111.56C107.262 112.819 107.722 114.268 107.75 115.906H102.679ZM112.846 137V107.909H131.766V112.327H118.116V120.224H130.786V124.642H118.116V132.582H131.88V137H112.846ZM137.143 137V107.909H148.052C150.287 107.909 152.162 108.297 153.677 109.074C155.201 109.85 156.352 110.939 157.129 112.341C157.915 113.733 158.308 115.357 158.308 117.213C158.308 119.079 157.91 120.698 157.114 122.071C156.328 123.435 155.168 124.491 153.634 125.239C152.1 125.977 150.216 126.347 147.981 126.347H140.211V121.972H147.271C148.577 121.972 149.647 121.792 150.481 121.432C151.314 121.062 151.93 120.527 152.327 119.827C152.735 119.116 152.938 118.245 152.938 117.213C152.938 116.181 152.735 115.3 152.327 114.571C151.92 113.832 151.3 113.274 150.467 112.895C149.633 112.507 148.558 112.312 147.242 112.312H142.413V137H137.143ZM152.171 123.818L159.373 137H153.492L146.418 123.818H152.171ZM166.308 107.909L173.879 130.807H174.178L181.734 107.909H187.53L177.274 137H170.768L160.527 107.909H166.308ZM196.631 107.909V137H191.362V107.909H196.631ZM227.239 117.724H221.926C221.775 116.853 221.495 116.081 221.088 115.409C220.681 114.727 220.174 114.15 219.568 113.676C218.962 113.203 218.271 112.848 217.494 112.611C216.727 112.365 215.899 112.241 215.009 112.241C213.427 112.241 212.026 112.639 210.804 113.435C209.582 114.221 208.626 115.376 207.935 116.901C207.243 118.416 206.898 120.267 206.898 122.455C206.898 124.68 207.243 126.555 207.935 128.08C208.635 129.595 209.592 130.741 210.804 131.517C212.026 132.284 213.422 132.668 214.994 132.668C215.866 132.668 216.68 132.554 217.438 132.327C218.205 132.09 218.891 131.744 219.497 131.29C220.113 130.835 220.629 130.277 221.045 129.614C221.472 128.951 221.765 128.193 221.926 127.341L227.239 127.369C227.04 128.752 226.609 130.049 225.946 131.261C225.293 132.473 224.436 133.544 223.375 134.472C222.314 135.39 221.074 136.11 219.653 136.631C218.233 137.142 216.656 137.398 214.923 137.398C212.366 137.398 210.084 136.806 208.077 135.622C206.069 134.438 204.488 132.729 203.332 130.494C202.177 128.259 201.599 125.58 201.599 122.455C201.599 119.32 202.182 116.64 203.347 114.415C204.511 112.18 206.098 110.471 208.105 109.287C210.113 108.103 212.385 107.511 214.923 107.511C216.543 107.511 218.048 107.739 219.44 108.193C220.832 108.648 222.073 109.315 223.162 110.196C224.251 111.067 225.146 112.137 225.847 113.406C226.557 114.666 227.021 116.105 227.239 117.724ZM232.065 137V107.909H250.985V112.327H237.335V120.224H250.005V124.642H237.335V132.582H251.099V137H232.065Z" fill="white"/>
<defs>
<filter id="filter0_d_13_2" x="-0.000915527" y="0.0088501" width="43.8935" height="49.1856" filterUnits="userSpaceOnUse" color-interpolation-filters="sRGB">
<feFlood flood-opacity="0" result="BackgroundImageFix"/>
<feColorMatrix in="SourceAlpha" type="matrix" values="0 0 0 0 0 0 0 0 0 0 0 0 0 0 0 0 0 0 127 0" result="hardAlpha"/>
<feOffset dy="4"/>
<feGaussianBlur stdDeviation="2"/>
<feComposite in2="hardAlpha" operator="out"/>
<feColorMatrix type="matrix" values="0 0 0 0 0 0 0 0 0 0 0 0 0 0 0 0 0 0 0.25 0"/>
<feBlend mode="normal" in2="BackgroundImageFix" result="effect1_dropShadow_13_2"/>
<feBlend mode="normal" in="SourceGraphic" in2="effect1_dropShadow_13_2" result="shape"/>
</filter>
<filter id="filter1_d_13_2" x="33.7143" y="40.4541" width="40.7996" height="41.4376" filterUnits="userSpaceOnUse" color-interpolation-filters="sRGB">
<feFlood flood-opacity="0" result="BackgroundImageFix"/>
<feColorMatrix in="SourceAlpha" type="matrix" values="0 0 0 0 0 0 0 0 0 0 0 0 0 0 0 0 0 0 127 0" result="hardAlpha"/>
<feOffset dy="4"/>
<feGaussianBlur stdDeviation="2"/>
<feComposite in2="hardAlpha" operator="out"/>
<feColorMatrix type="matrix" values="0 0 0 0 0 0 0 0 0 0 0 0 0 0 0 0 0 0 0.25 0"/>
<feBlend mode="normal" in2="BackgroundImageFix" result="effect1_dropShadow_13_2"/>
<feBlend mode="normal" in="SourceGraphic" in2="effect1_dropShadow_13_2" result="shape"/>
</filter>
<filter id="filter2_d_13_2" x="6.34521" y="81.4459" width="37.4456" height="43.3834" filterUnits="userSpaceOnUse" color-interpolation-filters="sRGB">
<feFlood flood-opacity="0" result="BackgroundImageFix"/>
<feColorMatrix in="SourceAlpha" type="matrix" values="0 0 0 0 0 0 0 0 0 0 0 0 0 0 0 0 0 0 127 0" result="hardAlpha"/>
<feOffset dy="4"/>
<feGaussianBlur stdDeviation="2"/>
<feComposite in2="hardAlpha" operator="out"/>
<feColorMatrix type="matrix" values="0 0 0 0 0 0 0 0 0 0 0 0 0 0 0 0 0 0 0.25 0"/>
<feBlend mode="normal" in2="BackgroundImageFix" result="effect1_dropShadow_13_2"/>
<feBlend mode="normal" in="SourceGraphic" in2="effect1_dropShadow_13_2" result="shape"/>
</filter>
<filter id="filter3_d_13_2" x="33" y="29" width="11.0773" height="119.807" filterUnits="userSpaceOnUse" color-interpolation-filters="sRGB">
<feFlood flood-opacity="0" result="BackgroundImageFix"/>
<feColorMatrix in="SourceAlpha" type="matrix" values="0 0 0 0 0 0 0 0 0 0 0 0 0 0 0 0 0 0 127 0" result="hardAlpha"/>
<feOffset dy="4"/>
<feGaussianBlur stdDeviation="2"/>
<feComposite in2="hardAlpha" operator="out"/>
<feColorMatrix type="matrix" values="0 0 0 0 0 0 0 0 0 0 0 0 0 0 0 0 0 0 0.25 0"/>
<feBlend mode="normal" in2="BackgroundImageFix" result="effect1_dropShadow_13_2"/>
<feBlend mode="normal" in="SourceGraphic" in2="effect1_dropShadow_13_2" result="shape"/>
</filter>
</defs>
</svg>
