<svg width="611" height="149" viewBox="0 0 611 149" fill="none" xmlns="http://www.w3.org/2000/svg">
<g filter="url(#filter0_d_3_108)">
<path d="M36.8923 39.6944L38.3922 39.694L38.3919 38.1941L38.3893 26.7796L38.3893 26.7795C38.385 12.5163 23.9934 1.50376 6.99956 1.50879L5.49956 1.50923L5.5 3.00923L5.50338 14.4236C5.5076 28.6868 19.8985 39.6994 36.8923 39.6944Z" stroke="#008080" stroke-width="3" shape-rendering="crispEdges"/>
</g>
<g filter="url(#filter1_d_3_108)">
<path d="M39.429 70.7311L39.6123 72.2198L41.101 72.0365L50.5854 70.8691L50.5855 70.8691C62.5327 69.3977 70.4466 56.9917 68.7992 43.615L68.6158 42.1262L67.1271 42.3096L57.6427 43.4776C45.6956 44.9489 37.7816 57.3543 39.429 70.7311Z" stroke="#008080" stroke-width="3"/>
</g>
<g filter="url(#filter2_d_3_108)">
<path d="M13.3502 82.9461L11.8503 82.9513L11.8554 84.4512L11.888 94.0071L11.888 94.0072C11.9298 106.045 23.308 115.376 36.7857 115.329L38.2856 115.324L38.2804 113.824L38.2473 104.268C38.2055 92.2307 26.8279 82.8993 13.3502 82.9461Z" stroke="#008080" stroke-width="3"/>
</g>
<g filter="url(#filter3_d_3_108)">
<rect x="37" y="140.807" width="111.807" height="3.07726" rx="1.53863" transform="rotate(-90 37 140.807)" fill="#008080"/>
</g>
<path d="M86.32 80.6H87.8C87.9867 81.8 88.3333 82.88 88.84 83.84C89.3733 84.8 90.0267 85.6133 90.8 86.28C91.6 86.9467 92.5067 87.4667 93.52 87.84C94.56 88.1867 95.68 88.36 96.88 88.36C98.8533 88.36 100.413 87.8933 101.56 86.96C102.707 86.0267 103.28 84.76 103.28 83.16C103.28 82.4933 103.16 81.88 102.92 81.32C102.707 80.76 102.333 80.2267 101.8 79.72C101.267 79.1867 100.547 78.6667 99.64 78.16C98.76 77.6533 97.64 77.1067 96.28 76.52C94.6267 75.8 93.24 75.1067 92.12 74.44C91 73.7733 90.1067 73.08 89.44 72.36C88.7733 71.64 88.2933 70.88 88 70.08C87.7333 69.2533 87.6 68.32 87.6 67.28C87.6 66.0533 87.8133 64.92 88.24 63.88C88.6933 62.84 89.32 61.9467 90.12 61.2C90.92 60.4267 91.8667 59.84 92.96 59.44C94.0533 59.0133 95.2533 58.8 96.56 58.8C97.7333 58.8 98.8267 58.9867 99.84 59.36C100.853 59.7333 101.88 60.3333 102.92 61.16L103.96 59.36H104.88L105.32 67.32H103.84C103.2 65.1333 102.267 63.5067 101.04 62.44C99.84 61.3733 98.3867 60.84 96.68 60.84C95.0533 60.84 93.76 61.24 92.8 62.04C91.84 62.84 91.36 63.92 91.36 65.28C91.36 65.92 91.4667 66.5067 91.68 67.04C91.8933 67.5467 92.24 68.04 92.72 68.52C93.2 68.9733 93.8267 69.44 94.6 69.92C95.3733 70.3733 96.3333 70.8533 97.48 71.36C99.4533 72.24 101.093 73.0667 102.4 73.84C103.707 74.5867 104.747 75.3467 105.52 76.12C106.293 76.8667 106.84 77.6667 107.16 78.52C107.48 79.3467 107.64 80.28 107.64 81.32C107.64 82.6533 107.373 83.88 106.84 85C106.307 86.12 105.56 87.08 104.6 87.88C103.64 88.68 102.493 89.3067 101.16 89.76C99.8267 90.1867 98.36 90.4 96.76 90.4C95.24 90.4 93.8667 90.1867 92.64 89.76C91.44 89.3333 90.2133 88.6133 88.96 87.6L87.84 89.56H86.92L86.32 80.6ZM140.581 83.64C140.581 84.6533 140.635 85.48 140.741 86.12C140.848 86.7333 141.048 87.2133 141.341 87.56C141.661 87.88 142.101 88.1067 142.661 88.24C143.248 88.3733 144.008 88.4533 144.941 88.48V90H131.981V88.48C132.915 88.4533 133.661 88.3733 134.221 88.24C134.808 88.1067 135.261 87.88 135.581 87.56C135.901 87.24 136.115 86.7867 136.221 86.2C136.328 85.6133 136.381 84.8533 136.381 83.92V75.24H120.181V83.64C120.181 84.6533 120.235 85.48 120.341 86.12C120.448 86.7333 120.648 87.2133 120.941 87.56C121.261 87.88 121.701 88.1067 122.261 88.24C122.848 88.3733 123.608 88.4533 124.541 88.48V90H111.581V88.48C112.515 88.4533 113.261 88.3733 113.821 88.24C114.408 88.1067 114.861 87.88 115.181 87.56C115.501 87.24 115.715 86.7867 115.821 86.2C115.928 85.6133 115.981 84.8533 115.981 83.92V65.28C115.981 64.3467 115.928 63.6 115.821 63.04C115.741 62.4533 115.555 62 115.261 61.68C114.995 61.3333 114.595 61.1067 114.061 61C113.528 60.8667 112.835 60.7733 111.981 60.72V59.2H124.141V60.72C123.288 60.7467 122.595 60.8267 122.061 60.96C121.555 61.0933 121.155 61.3333 120.861 61.68C120.595 62.0267 120.408 62.5067 120.301 63.12C120.221 63.7333 120.181 64.5467 120.181 65.56V73.24H136.381V65.28C136.381 64.3467 136.328 63.6 136.221 63.04C136.141 62.4533 135.955 62 135.661 61.68C135.395 61.3333 134.995 61.1067 134.461 61C133.928 60.8667 133.235 60.7733 132.381 60.72V59.2H144.541V60.72C143.688 60.7467 142.995 60.8267 142.461 60.96C141.955 61.0933 141.555 61.3333 141.261 61.68C140.995 62.0267 140.808 62.5067 140.701 63.12C140.621 63.7333 140.581 64.5467 140.581 65.56V83.64ZM173.093 66.92C173.093 69.0533 172.453 70.8267 171.173 72.24C169.893 73.6533 167.853 74.6 165.053 75.08L173.893 85.72C174.613 86.6 175.4 87.24 176.253 87.64C177.133 88.0133 178.173 88.2933 179.373 88.48V90H171.653L161.853 77.44C161.507 76.9867 161.173 76.6267 160.853 76.36C160.56 76.0933 160.24 75.8933 159.893 75.76C159.573 75.6 159.187 75.5067 158.733 75.48C158.307 75.4267 157.787 75.4 157.173 75.4V83.72C157.173 84.7067 157.227 85.52 157.333 86.16C157.467 86.7733 157.72 87.2533 158.093 87.6C158.493 87.9467 159.053 88.1867 159.773 88.32C160.52 88.4267 161.493 88.48 162.693 88.48V90H148.573V88.48C149.507 88.4533 150.253 88.3733 150.813 88.24C151.4 88.1067 151.853 87.88 152.173 87.56C152.493 87.24 152.707 86.7867 152.813 86.2C152.92 85.6133 152.973 84.8533 152.973 83.92V65.28C152.973 64.3467 152.92 63.6 152.813 63.04C152.733 62.4533 152.547 62 152.253 61.68C151.987 61.3333 151.587 61.1067 151.053 61C150.52 60.8667 149.827 60.7733 148.973 60.72V59.2H161.533C165.213 59.2 168.053 59.88 170.053 61.24C172.08 62.6 173.093 64.4933 173.093 66.92ZM157.173 73.4H160.013C162.68 73.4 164.653 72.92 165.933 71.96C167.24 70.9733 167.893 69.36 167.893 67.12C167.893 64.96 167.373 63.4133 166.333 62.48C165.32 61.5467 163.72 61.08 161.533 61.08H157.853C157.4 61.08 157.173 61.3067 157.173 61.76V73.4ZM188.697 73.08C190.137 73.08 191.337 73 192.297 72.84C193.284 72.6533 194.057 72.3733 194.617 72C195.204 71.6267 195.617 71.1467 195.857 70.56C196.124 69.9733 196.257 69.28 196.257 68.48H197.657V79.4H196.257C196.257 78.6 196.137 77.9067 195.897 77.32C195.684 76.7333 195.284 76.2533 194.697 75.88C194.137 75.48 193.364 75.1867 192.377 75C191.417 74.7867 190.19 74.68 188.697 74.68V83.72C188.697 84.6 188.804 85.3333 189.017 85.92C189.23 86.48 189.59 86.9467 190.097 87.32C190.63 87.6667 191.324 87.92 192.177 88.08C193.03 88.2133 194.084 88.28 195.337 88.28C196.75 88.28 197.95 88.1867 198.937 88C199.924 87.7867 200.75 87.44 201.417 86.96C202.084 86.48 202.617 85.8533 203.017 85.08C203.417 84.28 203.75 83.2933 204.017 82.12H205.537L204.937 90H180.097V88.48C181.03 88.4533 181.777 88.3733 182.337 88.24C182.924 88.1067 183.377 87.88 183.697 87.56C184.017 87.24 184.23 86.7867 184.337 86.2C184.444 85.6133 184.497 84.8533 184.497 83.92V65.28C184.497 64.3467 184.444 63.6 184.337 63.04C184.257 62.4533 184.07 62 183.777 61.68C183.51 61.3333 183.11 61.1067 182.577 61C182.044 60.8667 181.35 60.7733 180.497 60.72V59.2H203.617L203.977 66.24H202.577C202.417 65.1733 202.15 64.3067 201.777 63.64C201.43 62.9467 200.937 62.4 200.297 62C199.684 61.6 198.897 61.32 197.937 61.16C196.977 61 195.817 60.92 194.457 60.92H189.377C188.924 60.92 188.697 61.1467 188.697 61.6V73.08ZM224.28 83.88L231.32 66.52C231.72 65.5333 232 64.76 232.16 64.2C232.32 63.64 232.4 63.1333 232.4 62.68C232.4 61.96 232.174 61.4533 231.72 61.16C231.294 60.8667 230.48 60.72 229.28 60.72V59.2H239V60.72C238.387 60.8 237.854 60.9067 237.4 61.04C236.974 61.1733 236.587 61.36 236.24 61.6C235.92 61.84 235.627 62.16 235.36 62.56C235.12 62.9333 234.88 63.4 234.64 63.96L223.8 90.4H222.4L212.08 65.48C211.734 64.68 211.387 63.9867 211.04 63.4C210.72 62.8133 210.36 62.3333 209.96 61.96C209.56 61.5867 209.107 61.3067 208.6 61.12C208.094 60.9333 207.494 60.8133 206.8 60.76V59.2H219.84V60.76C219.094 60.76 218.48 60.8 218 60.88C217.547 60.9333 217.187 61.04 216.92 61.2C216.654 61.3333 216.467 61.5067 216.36 61.72C216.254 61.9333 216.2 62.1733 216.2 62.44C216.2 62.8133 216.267 63.2533 216.4 63.76C216.534 64.24 216.787 64.9467 217.16 65.88L224.28 83.88ZM249.088 73.08C250.528 73.08 251.728 73 252.688 72.84C253.674 72.6533 254.448 72.3733 255.008 72C255.594 71.6267 256.008 71.1467 256.248 70.56C256.514 69.9733 256.648 69.28 256.648 68.48H258.048V79.4H256.648C256.648 78.6 256.528 77.9067 256.288 77.32C256.074 76.7333 255.674 76.2533 255.088 75.88C254.528 75.48 253.754 75.1867 252.768 75C251.808 74.7867 250.581 74.68 249.088 74.68V83.72C249.088 84.6 249.194 85.3333 249.408 85.92C249.621 86.48 249.981 86.9467 250.488 87.32C251.021 87.6667 251.714 87.92 252.568 88.08C253.421 88.2133 254.474 88.28 255.728 88.28C257.141 88.28 258.341 88.1867 259.328 88C260.314 87.7867 261.141 87.44 261.808 86.96C262.474 86.48 263.008 85.8533 263.408 85.08C263.808 84.28 264.141 83.2933 264.408 82.12H265.928L265.328 90H240.488V88.48C241.421 88.4533 242.168 88.3733 242.728 88.24C243.314 88.1067 243.768 87.88 244.088 87.56C244.408 87.24 244.621 86.7867 244.728 86.2C244.834 85.6133 244.888 84.8533 244.888 83.92V65.28C244.888 64.3467 244.834 63.6 244.728 63.04C244.648 62.4533 244.461 62 244.168 61.68C243.901 61.3333 243.501 61.1067 242.968 61C242.434 60.8667 241.741 60.7733 240.888 60.72V59.2H264.008L264.368 66.24H262.968C262.808 65.1733 262.541 64.3067 262.168 63.64C261.821 62.9467 261.328 62.4 260.688 62C260.074 61.6 259.288 61.32 258.328 61.16C257.368 61 256.208 60.92 254.848 60.92H249.768C249.314 60.92 249.088 61.1467 249.088 61.6V73.08ZM270.271 66.56C271.498 65.6267 272.364 64.7467 272.871 63.92C273.404 63.0667 273.671 62.1333 273.671 61.12C273.324 61.3333 272.924 61.44 272.471 61.44C271.858 61.44 271.351 61.24 270.951 60.84C270.578 60.4133 270.391 59.88 270.391 59.24C270.391 58.52 270.631 57.9333 271.111 57.48C271.618 57.0267 272.284 56.8 273.111 56.8C275.004 56.8 275.951 58.0533 275.951 60.56C275.951 61.2533 275.871 61.88 275.711 62.44C275.551 63 275.284 63.56 274.911 64.12C274.564 64.6533 274.084 65.2133 273.471 65.8C272.858 66.36 272.098 66.9733 271.191 67.64L270.271 66.56ZM280.187 80.6H281.667C281.854 81.8 282.201 82.88 282.707 83.84C283.241 84.8 283.894 85.6133 284.667 86.28C285.467 86.9467 286.374 87.4667 287.387 87.84C288.427 88.1867 289.547 88.36 290.747 88.36C292.721 88.36 294.281 87.8933 295.427 86.96C296.574 86.0267 297.147 84.76 297.147 83.16C297.147 82.4933 297.027 81.88 296.787 81.32C296.574 80.76 296.201 80.2267 295.667 79.72C295.134 79.1867 294.414 78.6667 293.507 78.16C292.627 77.6533 291.507 77.1067 290.147 76.52C288.494 75.8 287.107 75.1067 285.987 74.44C284.867 73.7733 283.974 73.08 283.307 72.36C282.641 71.64 282.161 70.88 281.867 70.08C281.601 69.2533 281.467 68.32 281.467 67.28C281.467 66.0533 281.681 64.92 282.107 63.88C282.561 62.84 283.187 61.9467 283.987 61.2C284.787 60.4267 285.734 59.84 286.827 59.44C287.921 59.0133 289.121 58.8 290.427 58.8C291.601 58.8 292.694 58.9867 293.707 59.36C294.721 59.7333 295.747 60.3333 296.787 61.16L297.827 59.36H298.747L299.187 67.32H297.707C297.067 65.1333 296.134 63.5067 294.907 62.44C293.707 61.3733 292.254 60.84 290.547 60.84C288.921 60.84 287.627 61.24 286.667 62.04C285.707 62.84 285.227 63.92 285.227 65.28C285.227 65.92 285.334 66.5067 285.547 67.04C285.761 67.5467 286.107 68.04 286.587 68.52C287.067 68.9733 287.694 69.44 288.467 69.92C289.241 70.3733 290.201 70.8533 291.347 71.36C293.321 72.24 294.961 73.0667 296.267 73.84C297.574 74.5867 298.614 75.3467 299.387 76.12C300.161 76.8667 300.707 77.6667 301.027 78.52C301.347 79.3467 301.507 80.28 301.507 81.32C301.507 82.6533 301.241 83.88 300.707 85C300.174 86.12 299.427 87.08 298.467 87.88C297.507 88.68 296.361 89.3067 295.027 89.76C293.694 90.1867 292.227 90.4 290.627 90.4C289.107 90.4 287.734 90.1867 286.507 89.76C285.307 89.3333 284.081 88.6133 282.827 87.6L281.707 89.56H280.787L280.187 80.6ZM345.323 66.84H343.683C343.603 65.6933 343.416 64.7333 343.123 63.96C342.829 63.1867 342.403 62.5867 341.843 62.16C341.309 61.7067 340.629 61.3867 339.803 61.2C338.976 61.0133 337.989 60.92 336.843 60.92C335.856 60.92 335.056 60.9467 334.443 61C333.856 61.0267 333.403 61.0933 333.083 61.2C332.763 61.3067 332.549 61.44 332.443 61.6C332.363 61.7333 332.323 61.92 332.323 62.16V83.56C332.323 84.4133 332.376 85.1467 332.483 85.76C332.616 86.3733 332.856 86.88 333.203 87.28C333.576 87.6533 334.096 87.9467 334.763 88.16C335.456 88.3467 336.363 88.4533 337.483 88.48V90H322.363V88.48C323.483 88.4533 324.389 88.3467 325.083 88.16C325.776 87.9467 326.296 87.6533 326.643 87.28C327.016 86.88 327.256 86.3733 327.363 85.76C327.496 85.1467 327.563 84.4133 327.563 83.56V62.16C327.563 61.92 327.509 61.7333 327.403 61.6C327.323 61.44 327.136 61.3067 326.843 61.2C326.576 61.0933 326.189 61.0267 325.683 61C325.176 60.9467 324.496 60.92 323.643 60.92C322.603 60.92 321.629 60.96 320.723 61.04C319.843 61.12 319.069 61.36 318.403 61.76C317.763 62.1333 317.243 62.72 316.843 63.52C316.443 64.32 316.229 65.4267 316.203 66.84H314.723V59.2H344.923L345.323 66.84ZM362.583 78.84H351.903C351.449 79.9333 351.063 80.9067 350.743 81.76C350.423 82.5867 350.156 83.3067 349.943 83.92C349.756 84.5333 349.623 85.0533 349.543 85.48C349.463 85.9067 349.423 86.2533 349.423 86.52C349.423 87.2667 349.663 87.7867 350.143 88.08C350.623 88.3467 351.423 88.48 352.543 88.48V90H342.822V88.48C343.436 88.4 343.956 88.2933 344.382 88.16C344.836 88.0267 345.223 87.84 345.543 87.6C345.889 87.36 346.183 87.0533 346.423 86.68C346.689 86.28 346.943 85.8 347.183 85.24L357.583 59.2H359.303L368.383 81.76C368.996 83.2533 369.529 84.4533 369.983 85.36C370.436 86.24 370.876 86.9067 371.303 87.36C371.729 87.8133 372.183 88.1067 372.663 88.24C373.169 88.3733 373.769 88.44 374.463 88.44V90H361.423V88.44C362.836 88.44 363.809 88.3067 364.343 88.04C364.876 87.7733 365.143 87.3333 365.143 86.72C365.143 86.4533 365.129 86.2133 365.102 86C365.076 85.76 365.023 85.5067 364.943 85.24C364.889 84.9733 364.796 84.68 364.663 84.36C364.556 84.0133 364.409 83.6133 364.223 83.16L362.583 78.84ZM352.703 76.84H361.823L357.383 65.04L352.703 76.84ZM401.761 85.64C403.148 87.5333 404.841 88.48 406.841 88.48V90H393.201V88.48C394.401 88.48 395.214 88.3733 395.641 88.16C396.094 87.92 396.321 87.6 396.321 87.2C396.321 87.0133 396.294 86.8267 396.241 86.64C396.214 86.4267 396.121 86.1733 395.961 85.88C395.828 85.5867 395.628 85.2267 395.361 84.8C395.094 84.3733 394.734 83.8133 394.281 83.12L389.721 76.32L386.281 80.64C385.454 81.68 384.761 82.5733 384.201 83.32C383.641 84.0667 383.188 84.7067 382.841 85.24C382.521 85.7733 382.281 86.2133 382.121 86.56C381.988 86.9067 381.921 87.2 381.921 87.44C381.921 87.84 382.148 88.12 382.601 88.28C383.054 88.4133 383.908 88.48 385.161 88.48V90H374.041V88.48C374.681 88.48 375.254 88.4133 375.761 88.28C376.294 88.1467 376.814 87.9333 377.321 87.64C377.828 87.32 378.334 86.9067 378.841 86.4C379.374 85.8667 379.948 85.2133 380.561 84.44L388.401 74.44L380.281 63.36C379.614 62.4267 378.868 61.76 378.041 61.36C377.214 60.9333 376.228 60.72 375.081 60.72V59.2H388.361V60.72C386.628 60.72 385.761 61.24 385.761 62.28C385.761 62.9467 386.134 63.8267 386.881 64.92L391.241 71.4L395.161 66.44C395.908 65.5067 396.428 64.7467 396.721 64.16C397.014 63.5733 397.161 63.0133 397.161 62.48C397.161 61.8133 396.934 61.36 396.481 61.12C396.054 60.8533 395.281 60.72 394.161 60.72V59.2H405.161V60.72C404.521 60.72 403.961 60.7733 403.481 60.88C403.028 60.96 402.588 61.1467 402.161 61.44C401.734 61.7333 401.268 62.16 400.761 62.72C400.254 63.28 399.641 64.0267 398.921 64.96L392.561 73.16L401.761 85.64ZM419.64 80.6H421.12C421.307 81.8 421.654 82.88 422.16 83.84C422.694 84.8 423.347 85.6133 424.12 86.28C424.92 86.9467 425.827 87.4667 426.84 87.84C427.88 88.1867 429 88.36 430.2 88.36C432.174 88.36 433.734 87.8933 434.88 86.96C436.027 86.0267 436.6 84.76 436.6 83.16C436.6 82.4933 436.48 81.88 436.24 81.32C436.027 80.76 435.654 80.2267 435.12 79.72C434.587 79.1867 433.867 78.6667 432.96 78.16C432.08 77.6533 430.96 77.1067 429.6 76.52C427.947 75.8 426.56 75.1067 425.44 74.44C424.32 73.7733 423.427 73.08 422.76 72.36C422.094 71.64 421.614 70.88 421.32 70.08C421.054 69.2533 420.92 68.32 420.92 67.28C420.92 66.0533 421.134 64.92 421.56 63.88C422.014 62.84 422.64 61.9467 423.44 61.2C424.24 60.4267 425.187 59.84 426.28 59.44C427.374 59.0133 428.574 58.8 429.88 58.8C431.054 58.8 432.147 58.9867 433.16 59.36C434.174 59.7333 435.2 60.3333 436.24 61.16L437.28 59.36H438.2L438.64 67.32H437.16C436.52 65.1333 435.587 63.5067 434.36 62.44C433.16 61.3733 431.707 60.84 430 60.84C428.374 60.84 427.08 61.24 426.12 62.04C425.16 62.84 424.68 63.92 424.68 65.28C424.68 65.92 424.787 66.5067 425 67.04C425.214 67.5467 425.56 68.04 426.04 68.52C426.52 68.9733 427.147 69.44 427.92 69.92C428.694 70.3733 429.654 70.8533 430.8 71.36C432.774 72.24 434.414 73.0667 435.72 73.84C437.027 74.5867 438.067 75.3467 438.84 76.12C439.614 76.8667 440.16 77.6667 440.48 78.52C440.8 79.3467 440.96 80.28 440.96 81.32C440.96 82.6533 440.694 83.88 440.16 85C439.627 86.12 438.88 87.08 437.92 87.88C436.96 88.68 435.814 89.3067 434.48 89.76C433.147 90.1867 431.68 90.4 430.08 90.4C428.56 90.4 427.187 90.1867 425.96 89.76C424.76 89.3333 423.534 88.6133 422.28 87.6L421.16 89.56H420.24L419.64 80.6ZM453.502 73.08C454.942 73.08 456.142 73 457.102 72.84C458.088 72.6533 458.862 72.3733 459.422 72C460.008 71.6267 460.422 71.1467 460.662 70.56C460.928 69.9733 461.062 69.28 461.062 68.48H462.462V79.4H461.062C461.062 78.6 460.942 77.9067 460.702 77.32C460.488 76.7333 460.088 76.2533 459.502 75.88C458.942 75.48 458.168 75.1867 457.182 75C456.222 74.7867 454.995 74.68 453.502 74.68V83.72C453.502 84.6 453.608 85.3333 453.822 85.92C454.035 86.48 454.395 86.9467 454.902 87.32C455.435 87.6667 456.128 87.92 456.982 88.08C457.835 88.2133 458.888 88.28 460.142 88.28C461.555 88.28 462.755 88.1867 463.742 88C464.728 87.7867 465.555 87.44 466.222 86.96C466.888 86.48 467.422 85.8533 467.822 85.08C468.222 84.28 468.555 83.2933 468.822 82.12H470.342L469.742 90H444.902V88.48C445.835 88.4533 446.582 88.3733 447.142 88.24C447.728 88.1067 448.182 87.88 448.502 87.56C448.822 87.24 449.035 86.7867 449.142 86.2C449.248 85.6133 449.302 84.8533 449.302 83.92V65.28C449.302 64.3467 449.248 63.6 449.142 63.04C449.062 62.4533 448.875 62 448.582 61.68C448.315 61.3333 447.915 61.1067 447.382 61C446.848 60.8667 446.155 60.7733 445.302 60.72V59.2H468.422L468.782 66.24H467.382C467.222 65.1733 466.955 64.3067 466.582 63.64C466.235 62.9467 465.742 62.4 465.102 62C464.488 61.6 463.702 61.32 462.742 61.16C461.782 61 460.622 60.92 459.262 60.92H454.182C453.728 60.92 453.502 61.1467 453.502 61.6V73.08ZM498.445 66.92C498.445 69.0533 497.805 70.8267 496.525 72.24C495.245 73.6533 493.205 74.6 490.405 75.08L499.245 85.72C499.965 86.6 500.752 87.24 501.605 87.64C502.485 88.0133 503.525 88.2933 504.725 88.48V90H497.005L487.205 77.44C486.858 76.9867 486.525 76.6267 486.205 76.36C485.912 76.0933 485.592 75.8933 485.245 75.76C484.925 75.6 484.538 75.5067 484.085 75.48C483.658 75.4267 483.138 75.4 482.525 75.4V83.72C482.525 84.7067 482.578 85.52 482.685 86.16C482.818 86.7733 483.072 87.2533 483.445 87.6C483.845 87.9467 484.405 88.1867 485.125 88.32C485.872 88.4267 486.845 88.48 488.045 88.48V90H473.925V88.48C474.858 88.4533 475.605 88.3733 476.165 88.24C476.752 88.1067 477.205 87.88 477.525 87.56C477.845 87.24 478.058 86.7867 478.165 86.2C478.272 85.6133 478.325 84.8533 478.325 83.92V65.28C478.325 64.3467 478.272 63.6 478.165 63.04C478.085 62.4533 477.898 62 477.605 61.68C477.338 61.3333 476.938 61.1067 476.405 61C475.872 60.8667 475.178 60.7733 474.325 60.72V59.2H486.885C490.565 59.2 493.405 59.88 495.405 61.24C497.432 62.6 498.445 64.4933 498.445 66.92ZM482.525 73.4H485.365C488.032 73.4 490.005 72.92 491.285 71.96C492.592 70.9733 493.245 69.36 493.245 67.12C493.245 64.96 492.725 63.4133 491.685 62.48C490.672 61.5467 489.072 61.08 486.885 61.08H483.205C482.752 61.08 482.525 61.3067 482.525 61.76V73.4ZM518.733 83.88L525.773 66.52C526.173 65.5333 526.453 64.76 526.613 64.2C526.773 63.64 526.853 63.1333 526.853 62.68C526.853 61.96 526.627 61.4533 526.173 61.16C525.747 60.8667 524.933 60.72 523.733 60.72V59.2H533.453V60.72C532.84 60.8 532.307 60.9067 531.853 61.04C531.427 61.1733 531.04 61.36 530.693 61.6C530.373 61.84 530.08 62.16 529.813 62.56C529.573 62.9333 529.333 63.4 529.093 63.96L518.253 90.4H516.853L506.533 65.48C506.187 64.68 505.84 63.9867 505.493 63.4C505.173 62.8133 504.813 62.3333 504.413 61.96C504.013 61.5867 503.56 61.3067 503.053 61.12C502.547 60.9333 501.947 60.8133 501.253 60.76V59.2H514.293V60.76C513.547 60.76 512.933 60.8 512.453 60.88C512 60.9333 511.64 61.04 511.373 61.2C511.107 61.3333 510.92 61.5067 510.813 61.72C510.707 61.9333 510.653 62.1733 510.653 62.44C510.653 62.8133 510.72 63.2533 510.853 63.76C510.987 64.24 511.24 64.9467 511.613 65.88L518.733 83.88ZM543.541 82.44C543.541 83.7733 543.594 84.8267 543.701 85.6C543.807 86.3733 544.007 86.9733 544.301 87.4C544.621 87.8267 545.061 88.1067 545.621 88.24C546.207 88.3733 546.967 88.4533 547.901 88.48V90H534.941V88.48C535.874 88.4533 536.621 88.3733 537.181 88.24C537.767 88.08 538.221 87.8 538.541 87.4C538.861 87 539.074 86.44 539.181 85.72C539.287 84.9733 539.341 83.9733 539.341 82.72V66.48C539.341 65.36 539.287 64.44 539.181 63.72C539.101 62.9733 538.914 62.3867 538.621 61.96C538.354 61.5333 537.954 61.24 537.421 61.08C536.887 60.8933 536.194 60.7733 535.341 60.72V59.2H547.501V60.72C546.647 60.7467 545.954 60.8533 545.421 61.04C544.914 61.2267 544.514 61.5467 544.221 62C543.954 62.4267 543.767 63.0267 543.661 63.8C543.581 64.5733 543.541 65.56 543.541 66.76V82.44ZM576.873 59.2H577.993L578.353 68.4H576.873C576.286 66.0533 575.153 64.2133 573.473 62.88C571.793 61.5467 569.766 60.88 567.393 60.88C565.766 60.88 564.313 61.2 563.033 61.84C561.753 62.48 560.673 63.4 559.793 64.6C558.913 65.8 558.233 67.2667 557.753 69C557.299 70.7333 557.073 72.6933 557.073 74.88C557.073 79.1733 557.966 82.48 559.753 84.8C561.539 87.0933 564.126 88.24 567.513 88.24C572.659 88.24 575.966 85.5067 577.433 80.04H579.073V90H577.673L576.753 86.84C573.953 89.2133 570.566 90.4 566.593 90.4C564.326 90.4 562.273 90.04 560.433 89.32C558.619 88.6 557.059 87.5867 555.753 86.28C554.473 84.9467 553.473 83.3333 552.753 81.44C552.059 79.5467 551.713 77.44 551.713 75.12C551.713 72.6933 552.086 70.48 552.833 68.48C553.579 66.48 554.619 64.76 555.953 63.32C557.313 61.88 558.926 60.7733 560.793 60C562.686 59.2 564.766 58.8 567.033 58.8C568.633 58.8 570.139 59.0267 571.553 59.48C572.966 59.9333 574.499 60.6667 576.153 61.68L576.873 59.2ZM591.783 73.08C593.223 73.08 594.423 73 595.383 72.84C596.369 72.6533 597.143 72.3733 597.703 72C598.289 71.6267 598.703 71.1467 598.943 70.56C599.209 69.9733 599.343 69.28 599.343 68.48H600.743V79.4H599.343C599.343 78.6 599.223 77.9067 598.983 77.32C598.769 76.7333 598.369 76.2533 597.783 75.88C597.223 75.48 596.449 75.1867 595.463 75C594.503 74.7867 593.276 74.68 591.783 74.68V83.72C591.783 84.6 591.889 85.3333 592.103 85.92C592.316 86.48 592.676 86.9467 593.183 87.32C593.716 87.6667 594.409 87.92 595.263 88.08C596.116 88.2133 597.169 88.28 598.423 88.28C599.836 88.28 601.036 88.1867 602.023 88C603.009 87.7867 603.836 87.44 604.503 86.96C605.169 86.48 605.703 85.8533 606.103 85.08C606.503 84.28 606.836 83.2933 607.103 82.12H608.623L608.023 90H583.183V88.48C584.116 88.4533 584.863 88.3733 585.423 88.24C586.009 88.1067 586.463 87.88 586.783 87.56C587.103 87.24 587.316 86.7867 587.423 86.2C587.529 85.6133 587.583 84.8533 587.583 83.92V65.28C587.583 64.3467 587.529 63.6 587.423 63.04C587.343 62.4533 587.156 62 586.863 61.68C586.596 61.3333 586.196 61.1067 585.663 61C585.129 60.8667 584.436 60.7733 583.583 60.72V59.2H606.703L607.063 66.24H605.663C605.503 65.1733 605.236 64.3067 604.863 63.64C604.516 62.9467 604.023 62.4 603.383 62C602.769 61.6 601.983 61.32 601.023 61.16C600.063 61 598.903 60.92 597.543 60.92H592.463C592.009 60.92 591.783 61.1467 591.783 61.6V73.08Z" fill="white" />
<defs>
<filter id="filter0_d_3_108" x="-0.00088501" y="0.00878906" width="43.8935" height="49.1856" filterUnits="userSpaceOnUse" color-interpolation-filters="sRGB">
<feFlood flood-opacity="0" result="BackgroundImageFix"/>
<feColorMatrix in="SourceAlpha" type="matrix" values="0 0 0 0 0 0 0 0 0 0 0 0 0 0 0 0 0 0 127 0" result="hardAlpha"/>
<feOffset dy="4"/>
<feGaussianBlur stdDeviation="2"/>
<feComposite in2="hardAlpha" operator="out"/>
<feColorMatrix type="matrix" values="0 0 0 0 0 0 0 0 0 0 0 0 0 0 0 0 0 0 0.25 0"/>
<feBlend mode="normal" in2="BackgroundImageFix" result="effect1_dropShadow_3_108"/>
<feBlend mode="normal" in="SourceGraphic" in2="effect1_dropShadow_3_108" result="shape"/>
</filter>
<filter id="filter1_d_3_108" x="33.7143" y="40.4542" width="40.7996" height="41.4376" filterUnits="userSpaceOnUse" color-interpolation-filters="sRGB">
<feFlood flood-opacity="0" result="BackgroundImageFix"/>
<feColorMatrix in="SourceAlpha" type="matrix" values="0 0 0 0 0 0 0 0 0 0 0 0 0 0 0 0 0 0 127 0" result="hardAlpha"/>
<feOffset dy="4"/>
<feGaussianBlur stdDeviation="2"/>
<feComposite in2="hardAlpha" operator="out"/>
<feColorMatrix type="matrix" values="0 0 0 0 0 0 0 0 0 0 0 0 0 0 0 0 0 0 0.25 0"/>
<feBlend mode="normal" in2="BackgroundImageFix" result="effect1_dropShadow_3_108"/>
<feBlend mode="normal" in="SourceGraphic" in2="effect1_dropShadow_3_108" result="shape"/>
</filter>
<filter id="filter2_d_3_108" x="6.34518" y="81.4459" width="37.4457" height="43.3835" filterUnits="userSpaceOnUse" color-interpolation-filters="sRGB">
<feFlood flood-opacity="0" result="BackgroundImageFix"/>
<feColorMatrix in="SourceAlpha" type="matrix" values="0 0 0 0 0 0 0 0 0 0 0 0 0 0 0 0 0 0 127 0" result="hardAlpha"/>
<feOffset dy="4"/>
<feGaussianBlur stdDeviation="2"/>
<feComposite in2="hardAlpha" operator="out"/>
<feColorMatrix type="matrix" values="0 0 0 0 0 0 0 0 0 0 0 0 0 0 0 0 0 0 0.25 0"/>
<feBlend mode="normal" in2="BackgroundImageFix" result="effect1_dropShadow_3_108"/>
<feBlend mode="normal" in="SourceGraphic" in2="effect1_dropShadow_3_108" result="shape"/>
</filter>
<filter id="filter3_d_3_108" x="33" y="29" width="11.0773" height="119.807" filterUnits="userSpaceOnUse" color-interpolation-filters="sRGB">
<feFlood flood-opacity="0" result="BackgroundImageFix"/>
<feColorMatrix in="SourceAlpha" type="matrix" values="0 0 0 0 0 0 0 0 0 0 0 0 0 0 0 0 0 0 127 0" result="hardAlpha"/>
<feOffset dy="4"/>
<feGaussianBlur stdDeviation="2"/>
<feComposite in2="hardAlpha" operator="out"/>
<feColorMatrix type="matrix" values="0 0 0 0 0 0 0 0 0 0 0 0 0 0 0 0 0 0 0.25 0"/>
<feBlend mode="normal" in2="BackgroundImageFix" result="effect1_dropShadow_3_108"/>
<feBlend mode="normal" in="SourceGraphic" in2="effect1_dropShadow_3_108" result="shape"/>
</filter>
</defs>
</svg>