<svg width="231" height="204" viewBox="0 0 231 204" fill="none" xmlns="http://www.w3.org/2000/svg">
<g filter="url(#filter0_d_3_34)">
<path d="M38.365 185.956H39.8649L39.865 184.456L39.8658 175.047V175.047C39.8658 168.93 35.9026 163.619 29.9738 159.913C24.0238 156.195 15.8974 153.944 7 153.944H5.5V155.444V164.853C5.5 170.97 9.46295 176.281 15.3916 179.986C21.3414 183.705 29.4677 185.956 38.365 185.956Z" stroke="#008080" stroke-width="3"/>
</g>
<g filter="url(#filter1_d_3_34)">
<path d="M65.7251 124.117L65.5112 122.633L64.0267 122.847L56.3754 123.948L56.3753 123.948C51.3713 124.669 47.3881 128.137 44.9257 132.887C42.4616 137.64 41.4465 143.784 42.3716 150.206L42.5855 151.691L44.0702 151.477L51.7213 150.375C56.7253 149.654 60.7085 146.186 63.171 141.436C65.635 136.684 66.6502 130.54 65.7251 124.117Z" stroke="#008080" stroke-width="3"/>
</g>
<g filter="url(#filter2_d_3_34)">
<path d="M111.772 100.942L113.272 100.941L113.272 99.4415L113.269 87.4058L113.269 87.4057C113.264 72.4277 98.1443 60.836 80.2524 60.8413L78.7524 60.8418L78.7528 62.3418L78.7564 74.3774C78.7608 89.3553 93.88 100.947 111.772 100.942Z" stroke="#008080" stroke-width="3" shape-rendering="crispEdges"/>
</g>
<g filter="url(#filter3_d_3_34)">
<path d="M184.108 43.1483L185.608 43.1732L185.633 41.6735L185.833 29.6395L185.833 29.6394C186.082 14.6635 171.16 2.81813 153.27 2.52132L151.77 2.49644L151.745 3.99623L151.546 16.0302C151.297 31.0061 166.219 42.8515 184.108 43.1483Z" stroke="#008080" stroke-width="3" shape-rendering="crispEdges"/>
</g>
<g filter="url(#filter4_d_3_34)">
<path d="M225.037 36.6629L224.977 35.1642L223.478 35.2247L211.452 35.7095L211.452 35.7095C196.486 36.3138 185.509 51.886 186.231 69.7633L186.292 71.2621L187.791 71.2016L199.816 70.716C214.782 70.1116 225.759 54.5404 225.037 36.6629Z" stroke="#008080" stroke-width="3" shape-rendering="crispEdges"/>
</g>
<g filter="url(#filter5_d_3_34)">
<path d="M184.138 99.6925L185.638 99.692L185.638 98.1921L185.635 86.1565L185.635 86.1564C185.63 71.1784 170.51 59.5867 152.618 59.592L151.118 59.5924L151.119 61.0924L151.122 73.128C151.127 88.106 166.246 99.6978 184.138 99.6925Z" stroke="#008080" stroke-width="3" shape-rendering="crispEdges"/>
</g>
<g filter="url(#filter6_d_3_34)">
<path d="M223.696 119.198L223.564 117.704L222.07 117.837L210.081 118.9L210.081 118.9C195.162 120.225 184.948 136.308 186.53 154.13L186.662 155.624L188.157 155.491L200.145 154.427C215.064 153.102 225.278 137.02 223.696 119.198Z" stroke="#008080" stroke-width="3" shape-rendering="crispEdges"/>
</g>
<g filter="url(#filter7_d_3_34)">
<path d="M182.973 191.724L184.473 191.723L184.473 190.223L184.47 178.188L184.47 178.187C184.465 163.209 169.345 151.618 151.454 151.623L149.954 151.623L149.954 153.123L149.958 165.159C149.962 180.137 165.081 191.729 182.973 191.724Z" stroke="#008080" stroke-width="3" shape-rendering="crispEdges"/>
</g>
<g filter="url(#filter8_d_3_34)">
<path d="M114.528 133.739L114.711 135.228L116.2 135.045L126.2 133.814L126.2 133.814C138.742 132.269 147.067 119.24 145.334 105.167L145.151 103.679L143.662 103.862L133.662 105.094C121.121 106.638 112.795 119.667 114.528 133.739Z" stroke="#008080" stroke-width="3"/>
</g>
<g filter="url(#filter9_d_3_34)">
<path d="M86.9489 146.711L85.449 146.716L85.4541 148.216L85.4885 158.292L85.4885 158.292C85.5324 170.928 97.4805 180.742 111.659 180.693L113.159 180.688L113.154 179.188L113.119 169.112C113.075 156.476 101.128 146.661 86.9489 146.711Z" stroke="#008080" stroke-width="3"/>
</g>
<rect x="39.364" y="203.286" width="84.3632" height="3.24474" rx="1.62237" transform="rotate(-90 39.364 203.286)" fill="#008080"/>
<rect x="111.83" y="203.286" width="117.892" height="3.24474" rx="1.62237" transform="rotate(-90 111.83 203.286)" fill="#008080"/>
<rect x="184.296" y="203.286" width="168.726" height="3.24474" rx="1.62237" transform="rotate(-90 184.296 203.286)" fill="#008080"/>
<rect x="19.8956" y="200.041" width="183.868" height="3.24474" rx="1.62237" fill="#008080"/>
<defs>
<filter id="filter0_d_3_34" x="0" y="152.444" width="45.3658" height="43.0123" filterUnits="userSpaceOnUse" color-interpolation-filters="sRGB">
<feFlood flood-opacity="0" result="BackgroundImageFix"/>
<feColorMatrix in="SourceAlpha" type="matrix" values="0 0 0 0 0 0 0 0 0 0 0 0 0 0 0 0 0 0 127 0" result="hardAlpha"/>
<feOffset dy="4"/>
<feGaussianBlur stdDeviation="2"/>
<feComposite in2="hardAlpha" operator="out"/>
<feColorMatrix type="matrix" values="0 0 0 0 0 0 0 0 0 0 0 0 0 0 0 0 0 0 0.25 0"/>
<feBlend mode="normal" in2="BackgroundImageFix" result="effect1_dropShadow_3_34"/>
<feBlend mode="normal" in="SourceGraphic" in2="effect1_dropShadow_3_34" result="shape"/>
</filter>
<filter id="filter1_d_3_34" x="36.5339" y="120.934" width="35.0289" height="40.4551" filterUnits="userSpaceOnUse" color-interpolation-filters="sRGB">
<feFlood flood-opacity="0" result="BackgroundImageFix"/>
<feColorMatrix in="SourceAlpha" type="matrix" values="0 0 0 0 0 0 0 0 0 0 0 0 0 0 0 0 0 0 127 0" result="hardAlpha"/>
<feOffset dy="4"/>
<feGaussianBlur stdDeviation="2"/>
<feComposite in2="hardAlpha" operator="out"/>
<feColorMatrix type="matrix" values="0 0 0 0 0 0 0 0 0 0 0 0 0 0 0 0 0 0 0.25 0"/>
<feBlend mode="normal" in2="BackgroundImageFix" result="effect1_dropShadow_3_34"/>
<feBlend mode="normal" in="SourceGraphic" in2="effect1_dropShadow_3_34" result="shape"/>
</filter>
<filter id="filter2_d_3_34" x="73.2519" y="59.3413" width="45.5203" height="51.1005" filterUnits="userSpaceOnUse" color-interpolation-filters="sRGB">
<feFlood flood-opacity="0" result="BackgroundImageFix"/>
<feColorMatrix in="SourceAlpha" type="matrix" values="0 0 0 0 0 0 0 0 0 0 0 0 0 0 0 0 0 0 127 0" result="hardAlpha"/>
<feOffset dy="4"/>
<feGaussianBlur stdDeviation="2"/>
<feComposite in2="hardAlpha" operator="out"/>
<feColorMatrix type="matrix" values="0 0 0 0 0 0 0 0 0 0 0 0 0 0 0 0 0 0 0.25 0"/>
<feBlend mode="normal" in2="BackgroundImageFix" result="effect1_dropShadow_3_34"/>
<feBlend mode="normal" in="SourceGraphic" in2="effect1_dropShadow_3_34" result="shape"/>
</filter>
<filter id="filter3_d_3_34" x="146.043" y="0.971771" width="45.2937" height="51.7261" filterUnits="userSpaceOnUse" color-interpolation-filters="sRGB">
<feFlood flood-opacity="0" result="BackgroundImageFix"/>
<feColorMatrix in="SourceAlpha" type="matrix" values="0 0 0 0 0 0 0 0 0 0 0 0 0 0 0 0 0 0 127 0" result="hardAlpha"/>
<feOffset dy="4"/>
<feGaussianBlur stdDeviation="2"/>
<feComposite in2="hardAlpha" operator="out"/>
<feColorMatrix type="matrix" values="0 0 0 0 0 0 0 0 0 0 0 0 0 0 0 0 0 0 0.25 0"/>
<feBlend mode="normal" in2="BackgroundImageFix" result="effect1_dropShadow_3_34"/>
<feBlend mode="normal" in="SourceGraphic" in2="effect1_dropShadow_3_34" result="shape"/>
</filter>
<filter id="filter4_d_3_34" x="180.698" y="33.605" width="49.8723" height="47.2164" filterUnits="userSpaceOnUse" color-interpolation-filters="sRGB">
<feFlood flood-opacity="0" result="BackgroundImageFix"/>
<feColorMatrix in="SourceAlpha" type="matrix" values="0 0 0 0 0 0 0 0 0 0 0 0 0 0 0 0 0 0 127 0" result="hardAlpha"/>
<feOffset dy="4"/>
<feGaussianBlur stdDeviation="2"/>
<feComposite in2="hardAlpha" operator="out"/>
<feColorMatrix type="matrix" values="0 0 0 0 0 0 0 0 0 0 0 0 0 0 0 0 0 0 0.25 0"/>
<feBlend mode="normal" in2="BackgroundImageFix" result="effect1_dropShadow_3_34"/>
<feBlend mode="normal" in="SourceGraphic" in2="effect1_dropShadow_3_34" result="shape"/>
</filter>
<filter id="filter5_d_3_34" x="145.618" y="58.092" width="45.5203" height="51.1005" filterUnits="userSpaceOnUse" color-interpolation-filters="sRGB">
<feFlood flood-opacity="0" result="BackgroundImageFix"/>
<feColorMatrix in="SourceAlpha" type="matrix" values="0 0 0 0 0 0 0 0 0 0 0 0 0 0 0 0 0 0 127 0" result="hardAlpha"/>
<feOffset dy="4"/>
<feGaussianBlur stdDeviation="2"/>
<feComposite in2="hardAlpha" operator="out"/>
<feColorMatrix type="matrix" values="0 0 0 0 0 0 0 0 0 0 0 0 0 0 0 0 0 0 0.25 0"/>
<feBlend mode="normal" in2="BackgroundImageFix" result="effect1_dropShadow_3_34"/>
<feBlend mode="normal" in="SourceGraphic" in2="effect1_dropShadow_3_34" result="shape"/>
</filter>
<filter id="filter6_d_3_34" x="180.87" y="116.078" width="48.4858" height="49.1728" filterUnits="userSpaceOnUse" color-interpolation-filters="sRGB">
<feFlood flood-opacity="0" result="BackgroundImageFix"/>
<feColorMatrix in="SourceAlpha" type="matrix" values="0 0 0 0 0 0 0 0 0 0 0 0 0 0 0 0 0 0 127 0" result="hardAlpha"/>
<feOffset dy="4"/>
<feGaussianBlur stdDeviation="2"/>
<feComposite in2="hardAlpha" operator="out"/>
<feColorMatrix type="matrix" values="0 0 0 0 0 0 0 0 0 0 0 0 0 0 0 0 0 0 0.25 0"/>
<feBlend mode="normal" in2="BackgroundImageFix" result="effect1_dropShadow_3_34"/>
<feBlend mode="normal" in="SourceGraphic" in2="effect1_dropShadow_3_34" result="shape"/>
</filter>
<filter id="filter7_d_3_34" x="144.453" y="150.123" width="45.5203" height="51.1005" filterUnits="userSpaceOnUse" color-interpolation-filters="sRGB">
<feFlood flood-opacity="0" result="BackgroundImageFix"/>
<feColorMatrix in="SourceAlpha" type="matrix" values="0 0 0 0 0 0 0 0 0 0 0 0 0 0 0 0 0 0 127 0" result="hardAlpha"/>
<feOffset dy="4"/>
<feGaussianBlur stdDeviation="2"/>
<feComposite in2="hardAlpha" operator="out"/>
<feColorMatrix type="matrix" values="0 0 0 0 0 0 0 0 0 0 0 0 0 0 0 0 0 0 0.25 0"/>
<feBlend mode="normal" in2="BackgroundImageFix" result="effect1_dropShadow_3_34"/>
<feBlend mode="normal" in="SourceGraphic" in2="effect1_dropShadow_3_34" result="shape"/>
</filter>
<filter id="filter8_d_3_34" x="108.802" y="102.007" width="42.2585" height="42.8934" filterUnits="userSpaceOnUse" color-interpolation-filters="sRGB">
<feFlood flood-opacity="0" result="BackgroundImageFix"/>
<feColorMatrix in="SourceAlpha" type="matrix" values="0 0 0 0 0 0 0 0 0 0 0 0 0 0 0 0 0 0 127 0" result="hardAlpha"/>
<feOffset dy="4"/>
<feGaussianBlur stdDeviation="2"/>
<feComposite in2="hardAlpha" operator="out"/>
<feColorMatrix type="matrix" values="0 0 0 0 0 0 0 0 0 0 0 0 0 0 0 0 0 0 0.25 0"/>
<feBlend mode="normal" in2="BackgroundImageFix" result="effect1_dropShadow_3_34"/>
<feBlend mode="normal" in="SourceGraphic" in2="effect1_dropShadow_3_34" result="shape"/>
</filter>
<filter id="filter9_d_3_34" x="79.9439" y="145.21" width="38.7205" height="44.9827" filterUnits="userSpaceOnUse" color-interpolation-filters="sRGB">
<feFlood flood-opacity="0" result="BackgroundImageFix"/>
<feColorMatrix in="SourceAlpha" type="matrix" values="0 0 0 0 0 0 0 0 0 0 0 0 0 0 0 0 0 0 127 0" result="hardAlpha"/>
<feOffset dy="4"/>
<feGaussianBlur stdDeviation="2"/>
<feComposite in2="hardAlpha" operator="out"/>
<feColorMatrix type="matrix" values="0 0 0 0 0 0 0 0 0 0 0 0 0 0 0 0 0 0 0.25 0"/>
<feBlend mode="normal" in2="BackgroundImageFix" result="effect1_dropShadow_3_34"/>
<feBlend mode="normal" in="SourceGraphic" in2="effect1_dropShadow_3_34" result="shape"/>
</filter>
</defs>
</svg>
