<svg width="74.76" height="65" viewBox="0 0 406 353" fill="none" xmlns="http://www.w3.org/2000/svg">
<circle cx="203" cy="201" r="151" stroke="black" stroke-width="2"/>
<g filter="url(#filter0_d_13_20)">
<path d="M129.365 276.956H130.865L130.865 275.456L130.866 266.047V266.047C130.866 259.93 126.903 254.619 120.974 250.913C115.024 247.195 106.897 244.944 98.0001 244.944H96.5001V246.444V255.853C96.5001 261.97 100.463 267.281 106.392 270.986C112.341 274.705 120.468 276.956 129.365 276.956Z" stroke="#008080" stroke-width="3"/>
</g>
<g filter="url(#filter1_d_13_20)">
<path d="M156.725 215.117L156.511 213.633L155.027 213.847L147.375 214.948L147.375 214.948C142.371 215.669 138.388 219.137 135.926 223.887C133.462 228.64 132.447 234.784 133.372 241.206L133.586 242.691L135.07 242.477L142.721 241.375C147.725 240.654 151.709 237.186 154.171 232.436C156.635 227.684 157.65 221.54 156.725 215.117Z" stroke="#008080" stroke-width="3"/>
</g>
<g filter="url(#filter2_d_13_20)">
<path d="M202.772 191.942L204.272 191.941L204.272 190.441L204.269 178.406L204.269 178.406C204.264 163.428 189.144 151.836 171.252 151.841L169.752 151.842L169.753 153.342L169.756 165.377C169.761 180.355 184.88 191.947 202.772 191.942Z" stroke="#008080" stroke-width="3" shape-rendering="crispEdges"/>
</g>
<g filter="url(#filter3_d_13_20)">
<path d="M275.108 134.148L276.608 134.173L276.633 132.674L276.833 120.64L276.833 120.639C277.082 105.663 262.16 93.8181 244.27 93.5213L242.77 93.4964L242.746 94.9962L242.546 107.03C242.297 122.006 257.219 133.852 275.108 134.148Z" stroke="#008080" stroke-width="3" shape-rendering="crispEdges"/>
</g>
<g filter="url(#filter4_d_13_20)">
<path d="M316.037 127.663L315.977 126.164L314.478 126.225L302.452 126.709L302.452 126.709C287.486 127.314 276.509 142.886 277.231 160.763L277.292 162.262L278.791 162.202L290.816 161.716C305.782 161.112 316.759 145.54 316.037 127.663Z" stroke="#008080" stroke-width="3" shape-rendering="crispEdges"/>
</g>
<g filter="url(#filter5_d_13_20)">
<path d="M275.138 190.692L276.638 190.692L276.638 189.192L276.635 177.157L276.635 177.156C276.631 162.178 261.511 150.587 243.619 150.592L242.119 150.592L242.119 152.092L242.123 164.128C242.127 179.106 257.246 190.698 275.138 190.692Z" stroke="#008080" stroke-width="3" shape-rendering="crispEdges"/>
</g>
<g filter="url(#filter6_d_13_20)">
<path d="M314.696 210.198L314.564 208.704L313.07 208.837L301.081 209.9L301.081 209.9C286.162 211.225 275.948 227.308 277.53 245.13L277.663 246.624L279.157 246.491L291.145 245.427C306.064 244.102 316.279 228.02 314.696 210.198Z" stroke="#008080" stroke-width="3" shape-rendering="crispEdges"/>
</g>
<g filter="url(#filter7_d_13_20)">
<path d="M273.973 282.724L275.473 282.723L275.473 281.223L275.47 269.188L275.47 269.187C275.466 254.209 260.346 242.618 242.454 242.623L240.954 242.623L240.954 244.123L240.958 256.159C240.962 271.137 256.081 282.729 273.973 282.724Z" stroke="#008080" stroke-width="3" shape-rendering="crispEdges"/>
</g>
<g filter="url(#filter8_d_13_20)">
<path d="M205.528 224.739L205.711 226.228L207.2 226.045L217.2 224.814L217.2 224.814C229.742 223.269 238.067 210.24 236.334 196.167L236.151 194.679L234.662 194.862L224.662 196.094C212.121 197.638 203.795 210.667 205.528 224.739Z" stroke="#008080" stroke-width="3"/>
</g>
<g filter="url(#filter9_d_13_20)">
<path d="M177.949 237.711L176.449 237.716L176.454 239.216L176.489 249.292L176.489 249.292C176.532 261.928 188.481 271.742 202.659 271.693L204.159 271.688L204.154 270.188L204.119 260.112C204.075 247.476 192.128 237.661 177.949 237.711Z" stroke="#008080" stroke-width="3"/>
</g>
<rect x="130.364" y="294.286" width="84.3632" height="3.24474" rx="1.62237" transform="rotate(-90 130.364 294.286)" fill="#008080"/>
<rect x="202.83" y="294.286" width="117.892" height="3.24474" rx="1.62237" transform="rotate(-90 202.83 294.286)" fill="#008080"/>
<rect x="275.296" y="294.286" width="168.726" height="3.24474" rx="1.62237" transform="rotate(-90 275.296 294.286)" fill="#008080"/>
<rect x="110.896" y="291.041" width="183.868" height="3.24474" rx="1.62237" fill="#008080"/>
<path d="M26.219 253.457C25.1605 253.91 24.4583 254.643 24.1125 255.655C23.7667 256.668 23.816 257.879 24.2604 259.288C24.5624 260.245 24.9528 261.01 25.4317 261.584C25.9016 262.161 26.4269 262.551 27.0076 262.755C27.5855 262.95 28.1725 262.954 28.7685 262.766C29.2709 262.627 29.6716 262.387 29.9707 262.044C30.2669 261.692 30.4863 261.271 30.6291 260.779C30.7628 260.29 30.8449 259.747 30.8755 259.152C30.8971 258.559 30.8801 257.939 30.8247 257.291L30.6344 254.611C30.5236 253.315 30.5344 252.09 30.6669 250.936C30.7994 249.782 31.0784 248.731 31.5041 247.783C31.9297 246.834 32.5255 246.016 33.2913 245.327C34.0543 244.63 35.0124 244.094 36.1655 243.721C37.8662 243.194 39.475 243.163 40.9919 243.628C42.497 244.086 43.8462 245.011 45.0397 246.402C46.2213 247.787 47.1682 249.608 47.8804 251.866C48.587 254.106 48.8592 256.165 48.697 258.043C48.532 259.912 47.9235 261.524 46.8713 262.879C45.8072 264.227 44.2844 265.239 42.3028 265.914L40.5122 260.238C41.4225 259.881 42.1151 259.37 42.5901 258.703C43.0532 258.031 43.3175 257.248 43.3828 256.353C43.4363 255.453 43.3035 254.497 42.9844 253.485C42.6711 252.492 42.2545 251.675 41.7347 251.034C41.2121 250.385 40.6293 249.938 39.9864 249.694C39.3434 249.45 38.6878 249.434 38.0195 249.645C37.3963 249.841 36.9309 250.192 36.6233 250.696C36.3128 251.191 36.1196 251.838 36.0438 252.636C35.9652 253.425 35.9635 254.364 36.0387 255.453L36.2331 258.713C36.402 261.231 36.0951 263.359 35.3123 265.095C34.5295 266.832 33.1117 268.019 31.0588 268.656C29.3819 269.195 27.7733 269.211 26.2331 268.704C24.69 268.188 23.3156 267.246 22.1098 265.879C20.9039 264.512 19.9819 262.817 19.3438 260.794C18.6942 258.735 18.4795 256.827 18.6996 255.069C18.9168 253.303 19.5177 251.792 20.5024 250.538C21.4871 249.284 22.8014 248.383 24.4456 247.835L26.219 253.457Z" fill="black"/>
<path d="M41.7467 232.381L12.7515 234.739L12.253 228.609L24.2163 227.636L23.2044 215.191L11.241 216.164L10.7437 210.048L39.7389 207.69L40.2362 213.806L28.2587 214.78L29.2707 227.225L41.2482 226.251L41.7467 232.381Z" fill="black"/>
<path d="M39.7477 190.352L11.0343 185.681L12.8772 174.353C13.2299 172.184 13.9189 170.397 14.944 168.99C15.9614 167.572 17.2411 166.576 18.7832 166.002C20.3175 165.417 22.0334 165.279 23.9308 165.588C25.8376 165.898 27.411 166.576 28.6512 167.622C29.882 168.666 30.735 170.028 31.2101 171.708C31.6868 173.378 31.7457 175.316 31.3868 177.522L30.1529 185.107L25.2739 184.313L26.3481 177.71C26.5367 176.551 26.5344 175.562 26.3413 174.744C26.1482 173.926 25.7642 173.278 25.1895 172.801C24.6162 172.314 23.8576 171.994 22.9136 171.841C21.9602 171.686 21.1252 171.746 20.4086 172.023C19.6935 172.291 19.1046 172.785 18.6419 173.506C18.1714 174.216 17.8411 175.155 17.651 176.324L16.985 180.418L40.7353 184.281L39.7477 190.352ZM29.2034 172.72L43.4312 167.709L42.341 174.411L28.1383 179.267L29.2034 172.72Z" fill="black"/>
<path d="M46.8293 153.879L19.843 143.015L27.1634 124.831L31.8675 126.725L26.8441 139.204L33.2744 141.792L37.9212 130.249L42.6254 132.143L37.9785 143.686L44.422 146.28L49.4667 133.749L54.1709 135.643L46.8293 153.879Z" fill="black"/>
<path d="M39.8522 100.752L62.0361 107.521L62.1894 107.299L48.0023 88.9452L51.8756 83.3341L70.1196 108.113L65.6169 114.636L35.9709 106.375L39.8522 100.752Z" fill="black"/>
<path d="M82.8369 91.685L63.1105 70.3039L77.5177 57.0117L80.9563 60.7388L71.0697 69.8603L75.7701 74.955L84.9155 66.5174L88.3541 70.2445L79.2087 78.6821L83.9188 83.7873L93.8472 74.6272L97.2858 78.3543L82.8369 91.685Z" fill="black"/>
<path d="M97.694 41.9505L99.4075 44.4956C99.894 45.2183 100.25 46.0519 100.475 46.9964C100.702 47.9278 100.809 48.8833 100.795 49.863C100.776 50.8349 100.647 51.7377 100.409 52.5713L97.3136 52.7548C97.2886 51.8698 97.1714 50.9498 96.9622 49.9947C96.7609 49.0343 96.3244 48.0553 95.6528 47.0577L93.9234 44.489L97.694 41.9505Z" fill="black"/>
<path d="M127.019 35.2942C126.417 34.313 125.589 33.7251 124.537 33.5306C123.485 33.3361 122.294 33.5614 120.965 34.2065C120.062 34.6448 119.362 35.1427 118.864 35.7001C118.362 36.2491 118.052 36.8256 117.935 37.4299C117.826 38.03 117.909 38.6112 118.181 39.1735C118.392 39.6503 118.688 40.0117 119.071 40.2576C119.462 40.4994 119.911 40.655 120.418 40.7245C120.922 40.7855 121.47 40.7877 122.064 40.7312C122.653 40.6661 123.264 40.5589 123.897 40.4097L126.521 39.8306C127.787 39.5321 129 39.3643 130.161 39.3271C131.322 39.2899 132.403 39.4128 133.403 39.6956C134.404 39.9784 135.3 40.4485 136.093 41.1058C136.894 41.759 137.564 42.6287 138.102 43.715C138.87 45.3208 139.136 46.9079 138.897 48.4764C138.663 50.0322 137.944 51.5019 136.742 52.8854C135.544 54.2562 133.881 55.4585 131.751 56.4923C129.638 57.5178 127.641 58.0872 125.759 58.2006C123.886 58.3099 122.202 57.9428 120.709 57.0994C119.22 56.2433 117.997 54.8842 117.04 53.0221L122.395 50.4232C122.88 51.2718 123.487 51.8824 124.215 52.2552C124.948 52.6154 125.762 52.7626 126.656 52.6969C127.555 52.6185 128.481 52.3477 129.435 51.8846C130.373 51.4298 131.12 50.8985 131.678 50.291C132.244 49.6793 132.601 49.0376 132.749 48.3659C132.896 47.6943 132.817 47.0432 132.511 46.4128C132.226 45.825 131.811 45.4156 131.268 45.1848C130.733 44.9498 130.064 44.853 129.264 44.8944C128.471 44.9317 127.542 45.0669 126.476 45.3L123.279 45.9675C120.812 46.5018 118.663 46.5083 116.831 45.987C114.999 45.4657 113.618 44.236 112.688 42.2981C111.91 40.7176 111.66 39.1286 111.937 37.5309C112.222 35.9291 112.954 34.4321 114.131 33.0398C115.307 31.6475 116.85 30.4882 118.758 29.562C120.701 28.6192 122.557 28.1286 124.328 28.0901C126.107 28.0475 127.689 28.4219 129.073 29.2132C130.457 30.0045 131.54 31.1735 132.323 32.7201L127.019 35.2942Z" fill="black"/>
<path d="M160.75 19.807L160.024 14.7882L183.67 11.368L184.396 16.3868L175.581 17.6617L179.02 41.4342L173.003 42.3045L169.564 18.532L160.75 19.807Z" fill="black"/>
<path d="M208.164 39.507L201.597 38.9357L214.124 10.8248L222.02 11.5118L229.489 41.3624L222.923 40.7912L217.609 17.8008L217.383 17.7811L208.164 39.507ZM208.744 28.0797L224.254 29.4291L223.838 34.2121L208.328 32.8627L208.744 28.0797Z" fill="black"/>
<path d="M254.624 17.4515L257.105 28.7015L257.321 28.7724L266.014 21.1911L272.614 23.3577L259.642 34.4082L263.729 51.0592L257.008 48.8527L254.437 37.5582L254.221 37.4873L245.455 45.06L238.761 42.8623L251.949 31.8827L247.997 15.276L254.624 17.4515Z" fill="black"/>
<path d="M314.462 56.5559C315.04 55.5605 315.166 54.5533 314.839 53.5344C314.512 52.5155 313.749 51.5736 312.552 50.7087C311.738 50.121 310.968 49.74 310.241 49.5656C309.52 49.3835 308.865 49.3839 308.278 49.5669C307.698 49.7554 307.225 50.103 306.859 50.6097C306.538 51.0209 306.361 51.4531 306.325 51.9065C306.298 52.3654 306.373 52.8347 306.552 53.3145C306.737 53.7867 306.995 54.2707 307.326 54.7667C307.662 55.2551 308.046 55.7425 308.477 56.2292L310.23 58.266C311.093 59.2393 311.815 60.2283 312.398 61.2331C312.981 62.2379 313.384 63.2478 313.609 64.2629C313.834 65.2779 313.844 66.2902 313.641 67.2997C313.445 68.3148 312.996 69.3164 312.294 70.3046C311.244 71.7424 309.972 72.7276 308.478 73.2603C306.997 73.7909 305.362 73.8545 303.574 73.4511C301.8 73.0455 299.953 72.1497 298.033 70.7637C296.13 69.3887 294.682 67.8994 293.691 66.2958C292.707 64.6978 292.233 63.0413 292.268 61.3264C292.317 59.6093 292.935 57.8886 294.122 56.1643L298.947 59.6488C298.429 60.4783 298.179 61.3021 298.196 62.1201C298.226 62.936 298.481 63.7223 298.963 64.4788C299.458 65.2333 300.135 65.921 300.995 66.542C301.839 67.1518 302.661 67.5585 303.46 67.7619C304.267 67.9708 305.001 67.9813 305.663 67.7932C306.324 67.6051 306.86 67.227 307.271 66.6589C307.653 66.1292 307.817 65.5702 307.763 64.9821C307.717 64.3995 307.485 63.7653 307.07 63.0795C306.661 62.3993 306.102 61.645 305.392 60.8168L303.29 58.3174C301.651 56.3978 300.627 54.5078 300.218 52.6475C299.81 50.7871 300.238 48.9883 301.505 47.2512C302.528 45.8177 303.809 44.8447 305.348 44.332C306.894 43.8248 308.558 43.7598 310.342 44.1367C312.126 44.5137 313.877 45.3232 315.597 46.5651C317.347 47.8291 318.659 49.2319 319.531 50.7732C320.412 52.32 320.831 53.8904 320.79 55.4842C320.749 57.078 320.232 58.5857 319.241 60.0072L314.462 56.5559Z" fill="black"/>
<path d="M314.413 83.0017L335.86 63.3467L349.104 77.798L345.365 81.2242L336.277 71.3072L331.166 75.9907L339.573 85.1641L335.835 88.5903L327.428 79.4169L322.307 84.1099L331.434 94.0688L327.695 97.495L314.413 83.0017Z" fill="black"/>
<path d="M337.496 109.541L362.736 95.0764L368.442 105.034C369.535 106.941 370.126 108.763 370.216 110.501C370.319 112.243 369.953 113.822 369.117 115.24C368.295 116.661 367.049 117.85 365.381 118.805C363.705 119.766 362.056 120.231 360.434 120.2C358.82 120.164 357.3 119.644 355.872 118.639C354.45 117.642 353.183 116.175 352.072 114.236L348.251 107.568L352.54 105.11L355.866 110.915C356.45 111.934 357.075 112.7 357.74 113.214C358.406 113.727 359.112 113.989 359.859 113.997C360.611 114.014 361.402 113.784 362.231 113.309C363.069 112.828 363.68 112.255 364.062 111.589C364.448 110.93 364.594 110.176 364.499 109.324C364.417 108.476 364.082 107.539 363.493 106.512L361.431 102.913L340.554 114.877L337.496 109.541ZM356.793 116.589L348.902 129.444L345.526 123.553L353.495 110.834L356.793 116.589Z" fill="black"/>
<path d="M384.416 138.91L365.286 152.024L365.364 152.282L388.559 152.645L390.528 159.173L359.781 157.972L357.492 150.384L382.443 132.368L384.416 138.91Z" fill="black"/>
<path d="M393.915 181.257L365.001 184.462L364.323 178.349L393.237 175.144L393.915 181.257Z" fill="black"/>
<path d="M383.618 227.533L384.067 221.327C384.878 221.272 385.608 221.092 386.256 220.788C386.915 220.484 387.485 220.074 387.969 219.558C388.452 219.043 388.838 218.434 389.126 217.734C389.414 217.042 389.587 216.281 389.647 215.45C389.756 213.948 389.477 212.613 388.812 211.445C388.156 210.277 387.141 209.335 385.769 208.619C384.406 207.903 382.719 207.472 380.707 207.327C378.638 207.177 376.878 207.359 375.427 207.871C373.974 208.393 372.849 209.185 372.05 210.247C371.252 211.31 370.8 212.573 370.694 214.037C370.635 214.859 370.688 215.627 370.855 216.342C371.021 217.066 371.292 217.717 371.668 218.295C372.054 218.873 372.536 219.364 373.114 219.766C373.692 220.178 374.363 220.483 375.127 220.681L374.65 226.884C373.33 226.628 372.075 226.133 370.884 225.402C369.702 224.68 368.663 223.746 367.768 222.599C366.882 221.462 366.209 220.131 365.75 218.607C365.299 217.094 365.141 215.407 365.275 213.546C365.462 210.958 366.215 208.686 367.534 206.731C368.852 204.785 370.663 203.302 372.968 202.281C375.272 201.271 378.002 200.879 381.156 201.107C384.321 201.336 386.969 202.126 389.103 203.476C391.236 204.827 392.81 206.564 393.825 208.688C394.848 210.813 395.268 213.15 395.084 215.701C394.962 217.382 394.613 218.923 394.037 220.325C393.461 221.736 392.679 222.966 391.691 224.015C390.714 225.064 389.548 225.891 388.194 226.496C386.839 227.11 385.314 227.456 383.618 227.533Z" fill="black"/>
<path d="M362.804 237.527L390.65 245.946L384.977 264.71L380.123 263.242L384.016 250.366L377.381 248.36L373.78 260.27L368.926 258.803L372.527 246.892L365.878 244.882L361.968 257.812L357.114 256.345L362.804 237.527Z" fill="black"/>
<defs>
<filter id="filter0_d_13_20" x="91.0001" y="243.444" width="45.3658" height="43.0123" filterUnits="userSpaceOnUse" color-interpolation-filters="sRGB">
<feFlood flood-opacity="0" result="BackgroundImageFix"/>
<feColorMatrix in="SourceAlpha" type="matrix" values="0 0 0 0 0 0 0 0 0 0 0 0 0 0 0 0 0 0 127 0" result="hardAlpha"/>
<feOffset dy="4"/>
<feGaussianBlur stdDeviation="2"/>
<feComposite in2="hardAlpha" operator="out"/>
<feColorMatrix type="matrix" values="0 0 0 0 0 0 0 0 0 0 0 0 0 0 0 0 0 0 0.25 0"/>
<feBlend mode="normal" in2="BackgroundImageFix" result="effect1_dropShadow_13_20"/>
<feBlend mode="normal" in="SourceGraphic" in2="effect1_dropShadow_13_20" result="shape"/>
</filter>
<filter id="filter1_d_13_20" x="127.534" y="211.934" width="35.0289" height="40.4551" filterUnits="userSpaceOnUse" color-interpolation-filters="sRGB">
<feFlood flood-opacity="0" result="BackgroundImageFix"/>
<feColorMatrix in="SourceAlpha" type="matrix" values="0 0 0 0 0 0 0 0 0 0 0 0 0 0 0 0 0 0 127 0" result="hardAlpha"/>
<feOffset dy="4"/>
<feGaussianBlur stdDeviation="2"/>
<feComposite in2="hardAlpha" operator="out"/>
<feColorMatrix type="matrix" values="0 0 0 0 0 0 0 0 0 0 0 0 0 0 0 0 0 0 0.25 0"/>
<feBlend mode="normal" in2="BackgroundImageFix" result="effect1_dropShadow_13_20"/>
<feBlend mode="normal" in="SourceGraphic" in2="effect1_dropShadow_13_20" result="shape"/>
</filter>
<filter id="filter2_d_13_20" x="164.252" y="150.341" width="45.5203" height="51.1005" filterUnits="userSpaceOnUse" color-interpolation-filters="sRGB">
<feFlood flood-opacity="0" result="BackgroundImageFix"/>
<feColorMatrix in="SourceAlpha" type="matrix" values="0 0 0 0 0 0 0 0 0 0 0 0 0 0 0 0 0 0 127 0" result="hardAlpha"/>
<feOffset dy="4"/>
<feGaussianBlur stdDeviation="2"/>
<feComposite in2="hardAlpha" operator="out"/>
<feColorMatrix type="matrix" values="0 0 0 0 0 0 0 0 0 0 0 0 0 0 0 0 0 0 0.25 0"/>
<feBlend mode="normal" in2="BackgroundImageFix" result="effect1_dropShadow_13_20"/>
<feBlend mode="normal" in="SourceGraphic" in2="effect1_dropShadow_13_20" result="shape"/>
</filter>
<filter id="filter3_d_13_20" x="237.043" y="91.9718" width="45.2937" height="51.7261" filterUnits="userSpaceOnUse" color-interpolation-filters="sRGB">
<feFlood flood-opacity="0" result="BackgroundImageFix"/>
<feColorMatrix in="SourceAlpha" type="matrix" values="0 0 0 0 0 0 0 0 0 0 0 0 0 0 0 0 0 0 127 0" result="hardAlpha"/>
<feOffset dy="4"/>
<feGaussianBlur stdDeviation="2"/>
<feComposite in2="hardAlpha" operator="out"/>
<feColorMatrix type="matrix" values="0 0 0 0 0 0 0 0 0 0 0 0 0 0 0 0 0 0 0.25 0"/>
<feBlend mode="normal" in2="BackgroundImageFix" result="effect1_dropShadow_13_20"/>
<feBlend mode="normal" in="SourceGraphic" in2="effect1_dropShadow_13_20" result="shape"/>
</filter>
<filter id="filter4_d_13_20" x="271.698" y="124.605" width="49.8724" height="47.2164" filterUnits="userSpaceOnUse" color-interpolation-filters="sRGB">
<feFlood flood-opacity="0" result="BackgroundImageFix"/>
<feColorMatrix in="SourceAlpha" type="matrix" values="0 0 0 0 0 0 0 0 0 0 0 0 0 0 0 0 0 0 127 0" result="hardAlpha"/>
<feOffset dy="4"/>
<feGaussianBlur stdDeviation="2"/>
<feComposite in2="hardAlpha" operator="out"/>
<feColorMatrix type="matrix" values="0 0 0 0 0 0 0 0 0 0 0 0 0 0 0 0 0 0 0.25 0"/>
<feBlend mode="normal" in2="BackgroundImageFix" result="effect1_dropShadow_13_20"/>
<feBlend mode="normal" in="SourceGraphic" in2="effect1_dropShadow_13_20" result="shape"/>
</filter>
<filter id="filter5_d_13_20" x="236.618" y="149.092" width="45.5203" height="51.1005" filterUnits="userSpaceOnUse" color-interpolation-filters="sRGB">
<feFlood flood-opacity="0" result="BackgroundImageFix"/>
<feColorMatrix in="SourceAlpha" type="matrix" values="0 0 0 0 0 0 0 0 0 0 0 0 0 0 0 0 0 0 127 0" result="hardAlpha"/>
<feOffset dy="4"/>
<feGaussianBlur stdDeviation="2"/>
<feComposite in2="hardAlpha" operator="out"/>
<feColorMatrix type="matrix" values="0 0 0 0 0 0 0 0 0 0 0 0 0 0 0 0 0 0 0.25 0"/>
<feBlend mode="normal" in2="BackgroundImageFix" result="effect1_dropShadow_13_20"/>
<feBlend mode="normal" in="SourceGraphic" in2="effect1_dropShadow_13_20" result="shape"/>
</filter>
<filter id="filter6_d_13_20" x="271.87" y="207.078" width="48.4858" height="49.1728" filterUnits="userSpaceOnUse" color-interpolation-filters="sRGB">
<feFlood flood-opacity="0" result="BackgroundImageFix"/>
<feColorMatrix in="SourceAlpha" type="matrix" values="0 0 0 0 0 0 0 0 0 0 0 0 0 0 0 0 0 0 127 0" result="hardAlpha"/>
<feOffset dy="4"/>
<feGaussianBlur stdDeviation="2"/>
<feComposite in2="hardAlpha" operator="out"/>
<feColorMatrix type="matrix" values="0 0 0 0 0 0 0 0 0 0 0 0 0 0 0 0 0 0 0.25 0"/>
<feBlend mode="normal" in2="BackgroundImageFix" result="effect1_dropShadow_13_20"/>
<feBlend mode="normal" in="SourceGraphic" in2="effect1_dropShadow_13_20" result="shape"/>
</filter>
<filter id="filter7_d_13_20" x="235.453" y="241.123" width="45.5203" height="51.1005" filterUnits="userSpaceOnUse" color-interpolation-filters="sRGB">
<feFlood flood-opacity="0" result="BackgroundImageFix"/>
<feColorMatrix in="SourceAlpha" type="matrix" values="0 0 0 0 0 0 0 0 0 0 0 0 0 0 0 0 0 0 127 0" result="hardAlpha"/>
<feOffset dy="4"/>
<feGaussianBlur stdDeviation="2"/>
<feComposite in2="hardAlpha" operator="out"/>
<feColorMatrix type="matrix" values="0 0 0 0 0 0 0 0 0 0 0 0 0 0 0 0 0 0 0.25 0"/>
<feBlend mode="normal" in2="BackgroundImageFix" result="effect1_dropShadow_13_20"/>
<feBlend mode="normal" in="SourceGraphic" in2="effect1_dropShadow_13_20" result="shape"/>
</filter>
<filter id="filter8_d_13_20" x="199.802" y="193.007" width="42.2585" height="42.8934" filterUnits="userSpaceOnUse" color-interpolation-filters="sRGB">
<feFlood flood-opacity="0" result="BackgroundImageFix"/>
<feColorMatrix in="SourceAlpha" type="matrix" values="0 0 0 0 0 0 0 0 0 0 0 0 0 0 0 0 0 0 127 0" result="hardAlpha"/>
<feOffset dy="4"/>
<feGaussianBlur stdDeviation="2"/>
<feComposite in2="hardAlpha" operator="out"/>
<feColorMatrix type="matrix" values="0 0 0 0 0 0 0 0 0 0 0 0 0 0 0 0 0 0 0.25 0"/>
<feBlend mode="normal" in2="BackgroundImageFix" result="effect1_dropShadow_13_20"/>
<feBlend mode="normal" in="SourceGraphic" in2="effect1_dropShadow_13_20" result="shape"/>
</filter>
<filter id="filter9_d_13_20" x="170.944" y="236.21" width="38.7205" height="44.9827" filterUnits="userSpaceOnUse" color-interpolation-filters="sRGB">
<feFlood flood-opacity="0" result="BackgroundImageFix"/>
<feColorMatrix in="SourceAlpha" type="matrix" values="0 0 0 0 0 0 0 0 0 0 0 0 0 0 0 0 0 0 127 0" result="hardAlpha"/>
<feOffset dy="4"/>
<feGaussianBlur stdDeviation="2"/>
<feComposite in2="hardAlpha" operator="out"/>
<feColorMatrix type="matrix" values="0 0 0 0 0 0 0 0 0 0 0 0 0 0 0 0 0 0 0.25 0"/>
<feBlend mode="normal" in2="BackgroundImageFix" result="effect1_dropShadow_13_20"/>
<feBlend mode="normal" in="SourceGraphic" in2="effect1_dropShadow_13_20" result="shape"/>
</filter>
</defs>
</svg>
