<?xml version="1.0" standalone="no"?>
<!DOCTYPE svg PUBLIC "-//W3C//DTD SVG 20010904//EN"
 "http://www.w3.org/TR/2001/REC-SVG-20010904/DTD/svg10.dtd">
<svg version="1.0" xmlns="http://www.w3.org/2000/svg"
 width="600.000000pt" height="600.000000pt" viewBox="0 0 600.000000 600.000000"
 preserveAspectRatio="xMidYMid meet">
<metadata>
Created by potrace 1.14, written by Peter Selinger 2001-2017
</metadata>
<g transform="translate(0.000000,600.000000) scale(0.100000,-0.100000)"
fill="#000000" stroke="none">
<path d="M3140 5398 c-12 -29 -33 -75 -45 -103 -41 -89 -115 -257 -115 -259 0
-1 19 -3 42 -5 23 -1 45 -4 49 -7 4 -2 13 13 19 33 18 56 27 62 73 58 23 -2
56 -4 74 -4 33 -1 39 -9 49 -68 7 -36 7 -36 61 -41 l46 -4 -8 29 c-4 15 -8 35
-10 43 -2 8 -13 53 -25 100 -12 47 -23 92 -25 100 -2 8 -8 35 -15 60 -7 25
-14 56 -17 70 -6 36 -14 41 -75 46 l-55 4 -23 -52z m94 -131 c9 -38 16 -72 16
-77 0 -8 -88 -6 -96 3 -3 2 5 26 17 53 11 27 25 60 30 73 5 13 11 22 13 20 3
-2 12 -35 20 -72z"/>
<path d="M2615 5429 c-22 -4 -58 -9 -80 -12 -43 -6 -108 -16 -140 -22 -11 -2
-23 -4 -26 -4 -4 -1 -3 -16 0 -33 l7 -33 67 3 67 3 1 -28 c0 -15 2 -37 5 -48
4 -20 6 -33 27 -185 l12 -85 35 3 c36 4 63 19 55 31 -2 4 -6 29 -10 57 -3 27
-10 74 -15 104 -5 30 -12 77 -15 104 -4 28 -8 53 -11 58 -3 4 3 9 13 9 21 1
57 6 93 12 21 3 24 9 21 33 -1 16 -5 32 -7 36 -5 8 -44 7 -99 -3z"/>
<path d="M3670 5368 c0 -7 12 -61 26 -120 29 -121 35 -106 -61 -183 -28 -22
-63 -51 -78 -65 l-28 -24 48 -17 48 -16 50 41 c28 22 56 47 64 54 19 18 26 5
42 -76 14 -69 30 -87 86 -98 l31 -6 -27 108 c-15 60 -27 116 -26 125 0 15 32
45 133 129 23 19 42 37 42 41 0 4 -19 14 -43 22 -48 16 -42 19 -131 -60 -46
-39 -47 -38 -66 55 -14 67 -28 83 -82 96 -19 4 -28 2 -28 -6z"/>
<path d="M1775 5179 c-26 -10 -61 -30 -76 -45 -67 -64 -59 -162 14 -198 30
-14 42 -14 142 0 33 4 65 8 70 9 39 4 46 -51 11 -85 -30 -27 -101 -33 -116
-10 -8 12 -15 12 -51 -6 l-42 -20 29 -33 c51 -57 152 -52 235 12 71 54 82 139
25 196 -22 21 -35 25 -83 25 -32 0 -84 -4 -115 -9 -55 -7 -58 -7 -67 16 -19
50 51 101 103 74 23 -12 31 -12 61 2 19 9 35 21 35 26 0 16 -54 57 -75 58 -11
0 -27 2 -35 4 -9 1 -38 -6 -65 -16z"/>
<path d="M1420 4973 c-14 -9 -27 -18 -29 -19 -2 -2 6 -16 18 -32 12 -17 21
-38 21 -49 0 -28 15 -45 36 -41 30 5 30 73 1 121 -22 36 -23 37 -47 20z"/>
<path d="M4488 4943 c-74 -48 -68 -129 18 -223 12 -14 27 -37 33 -53 9 -23 7
-31 -9 -47 -16 -16 -24 -17 -48 -9 -47 16 -75 53 -70 89 4 27 0 35 -31 56
l-35 24 -13 -23 c-36 -64 3 -153 91 -207 86 -53 183 -27 206 56 14 51 1 87
-59 159 -22 27 -41 59 -41 71 0 44 42 53 94 19 19 -13 26 -26 26 -49 0 -34 36
-76 65 -76 17 0 30 59 20 97 -23 94 -172 164 -247 116z"/>
<path d="M2897 4884 c-1 -1 -43 -4 -92 -8 -78 -5 -178 -20 -275 -40 -14 -3
-38 -8 -55 -12 -28 -6 -111 -30 -200 -59 -186 -61 -393 -167 -575 -295 -125
-88 -152 -112 -295 -255 -368 -367 -588 -836 -642 -1365 -9 -94 -9 -345 0
-425 4 -33 10 -80 13 -105 4 -37 30 -169 49 -254 2 -10 25 -80 50 -154 163
-477 473 -877 895 -1155 222 -146 563 -286 780 -322 19 -3 49 -8 65 -12 17 -3
41 -7 55 -9 14 -2 52 -7 85 -11 82 -11 414 -10 500 1 39 5 77 10 85 11 8 1 29
5 45 8 17 4 41 9 55 11 14 3 34 7 45 10 11 2 42 9 70 16 27 6 103 29 168 51
580 195 1055 622 1316 1183 81 174 150 399 177 576 3 19 7 46 10 60 29 160 23
507 -12 685 -3 17 -7 39 -9 50 -17 117 -81 323 -148 475 -330 749 -1039 1261
-1852 1336 -70 6 -302 13 -308 8z m298 -38 c129 -13 160 -17 274 -43 106 -23
189 -45 236 -63 249 -93 425 -184 593 -305 310 -224 579 -556 727 -900 49
-113 99 -249 98 -265 0 -3 3 -15 8 -28 5 -12 11 -33 13 -45 3 -12 14 -62 25
-112 42 -194 55 -411 38 -630 -43 -540 -286 -1048 -678 -1420 -107 -101 -139
-128 -226 -191 -69 -49 -286 -184 -298 -184 -2 0 -41 -17 -87 -39 -212 -98
-450 -163 -698 -190 -85 -9 -433 -7 -480 3 -26 5 -56 10 -125 20 -22 4 -51 9
-65 13 -14 3 -32 7 -40 8 -91 13 -314 92 -466 165 -239 114 -410 235 -605 430
-312 310 -505 660 -604 1095 -5 22 -21 112 -29 165 -37 239 -20 610 38 815 2
6 7 28 11 50 11 49 10 47 18 65 3 8 15 47 28 85 80 251 241 534 424 745 78 89
227 231 300 285 22 17 42 32 45 35 11 12 139 99 195 132 191 115 466 223 668
264 63 12 100 19 167 29 14 2 63 6 110 10 47 4 86 8 87 9 5 5 233 -2 298 -8z"/>
<path d="M3569 4249 c-4 -13 -9 -113 -9 -159 0 -14 -1 -44 -3 -67 -1 -24 1
-43 5 -43 5 0 8 -11 8 -24 0 -13 9 -45 20 -70 10 -25 17 -46 14 -46 -4 0 4 -9
17 -20 13 -10 21 -19 17 -20 -8 0 25 -34 75 -77 36 -30 108 -70 156 -84 22 -7
39 -15 37 -18 -2 -3 21 -7 53 -9 31 -1 65 -4 76 -6 11 -3 23 -5 26 -5 3 -1 6
-98 6 -217 l-1 -215 -25 33 c-72 91 -168 152 -289 183 -80 21 -191 27 -193 12
-1 -7 -2 -64 -3 -127 -1 -63 -5 -121 -10 -129 -6 -10 -5 -12 2 -7 7 4 12 1 13
-6 3 -61 43 -138 101 -198 60 -61 95 -90 102 -83 3 4 6 1 6 -5 0 -7 3 -12 8
-11 16 2 52 -14 52 -24 0 -6 3 -7 7 -4 3 4 12 2 20 -4 7 -6 13 -9 13 -6 0 3
15 1 33 -4 17 -6 52 -13 77 -15 25 -3 54 -6 65 -8 20 -3 20 -11 21 -499 l1
-496 -30 47 c-61 98 -184 182 -302 208 -92 20 -183 26 -191 12 -10 -15 -11
-297 -1 -291 4 2 8 -3 8 -11 2 -20 3 -25 17 -59 7 -16 10 -33 6 -38 -3 -5 0
-8 8 -7 7 2 12 -5 12 -14 -1 -10 2 -16 6 -13 11 7 31 -20 22 -29 -4 -4 -2 -6
3 -4 6 2 22 -8 35 -21 70 -67 199 -126 301 -138 32 -4 46 -10 42 -17 -5 -8 -3
-8 8 0 15 12 48 15 50 5 8 -30 4 -91 -5 -92 -69 -5 -998 0 -1003 5 -4 4 -7
206 -8 449 0 381 2 444 15 455 8 8 10 11 3 8 -6 -4 -14 -2 -18 4 -3 5 0 10 7
11 12 1 25 3 93 13 11 2 26 -2 34 -8 11 -8 13 -8 7 2 -4 7 -2 12 6 13 51 3
133 31 161 56 9 9 17 13 17 9 0 -4 19 14 41 41 23 26 47 51 53 55 6 4 7 8 2 8
-4 0 -1 10 7 23 8 13 21 49 28 80 8 31 18 57 22 57 5 0 4 6 -2 14 -8 10 -9 16
-1 21 6 3 8 10 6 14 -3 4 -6 25 -7 47 -3 42 -16 77 -27 70 -4 -2 -39 -7 -77
-11 -124 -12 -195 -33 -247 -73 -44 -33 -108 -112 -108 -134 0 -4 -3 -8 -7 -8
-5 0 -8 107 -8 237 -1 131 -4 253 -8 272 -33 150 -187 292 -359 330 -66 15
-188 24 -189 14 -1 -4 -2 -28 -3 -53 -1 -25 -5 -50 -9 -57 -4 -6 -3 -14 3 -18
11 -7 9 -33 -3 -52 -5 -7 -4 -13 1 -13 5 0 9 -24 10 -54 0 -30 8 -68 17 -85 8
-17 13 -31 9 -31 -3 0 10 -23 30 -50 20 -28 34 -56 30 -62 -4 -7 -3 -8 5 -4 7
5 24 -4 41 -21 38 -38 48 -44 100 -69 82 -40 169 -64 245 -67 l30 -2 1 -408 0
-409 -34 41 c-40 49 -99 91 -162 115 -60 24 -84 28 -155 30 l-60 1 0 -50 c0
-27 -3 -55 -7 -61 -4 -6 -4 -14 0 -18 3 -4 7 -33 8 -64 2 -67 7 -89 28 -131 9
-17 16 -33 16 -37 -1 -3 8 -14 19 -23 12 -10 21 -22 21 -25 0 -4 7 -14 15 -22
8 -9 15 -13 15 -9 0 3 12 -6 27 -20 15 -14 31 -25 36 -25 4 0 19 -8 34 -17 14
-10 32 -18 40 -19 8 -2 22 -6 31 -10 9 -4 40 -9 67 -11 28 -3 52 -7 55 -10 3
-2 5 -60 6 -129 2 -120 1 -124 -20 -125 -103 -4 -985 -1 -992 3 -7 5 -12 581
-5 669 1 21 35 31 52 15 9 -8 10 -8 5 2 -7 12 9 15 87 16 15 0 27 4 27 8 0 4
5 8 12 8 6 0 26 11 45 26 18 14 38 22 45 18 7 -4 8 -3 4 4 -4 7 5 27 19 46 14
19 34 57 44 85 10 28 20 50 22 48 2 -1 1 2 -3 7 -3 5 -3 18 1 30 8 20 6 108
-3 151 -3 11 -5 23 -5 27 -1 4 -11 5 -23 2 -31 -5 -75 -12 -122 -19 -22 -3
-60 -16 -84 -28 -45 -22 -112 -97 -112 -124 0 -8 -4 -12 -8 -9 -4 2 -7 48 -7
101 1 71 -2 99 -13 107 -34 28 -38 -10 -36 -356 0 -185 -1 -336 -2 -336 -2 0
-26 23 -54 51 -50 50 -166 114 -226 125 -16 3 -45 9 -65 13 -20 5 -68 8 -105
7 l-69 -1 -1 -55 c0 -31 -3 -61 -8 -68 -4 -6 -4 -12 1 -12 4 0 8 -24 8 -53 -1
-28 5 -62 13 -74 8 -13 11 -23 8 -23 -4 0 -2 -6 4 -12 45 -53 60 -74 60 -82 0
-5 3 -6 6 -3 4 4 14 -1 23 -11 9 -9 28 -23 43 -31 15 -8 26 -17 23 -20 -2 -4
4 -7 13 -8 9 -1 44 -11 76 -22 33 -12 67 -21 78 -21 10 0 18 -3 18 -7 0 -5 17
-8 38 -8 20 0 55 -2 77 -5 l39 -5 2 -87 c0 -57 -3 -88 -10 -89 -6 0 -69 -2
-141 -2 -127 -2 -130 -3 -133 -24 -3 -19 1 -23 25 -24 15 0 624 -1 1351 -1
1110 -1 1325 1 1332 13 19 29 -9 37 -121 36 -67 -1 -109 2 -110 8 0 6 -1 145
-1 309 -1 279 0 300 17 312 15 11 21 11 34 1 12 -9 13 -9 7 1 -5 9 5 12 41 13
82 2 129 9 190 31 38 13 49 20 108 70 22 19 35 24 43 18 8 -7 9 -7 3 1 -9 11
33 89 52 97 4 2 7 7 7 12 0 5 5 21 12 37 12 30 13 35 23 73 19 74 23 117 17
226 -2 30 -4 31 -39 29 -32 -2 -157 -14 -213 -20 -34 -3 -98 -30 -138 -57 -55
-38 -77 -61 -123 -132 -22 -33 -39 -55 -40 -50 -5 55 -3 565 3 582 4 12 4 22
0 22 -6 0 -6 45 -2 263 l1 37 57 1 c150 1 195 9 272 47 44 23 61 27 71 18 10
-9 11 -8 1 5 -9 12 -5 21 25 50 20 19 42 33 47 31 6 -2 8 0 4 4 -4 3 10 40 32
81 22 40 39 77 39 81 -4 21 2 32 14 26 9 -5 9 -4 0 6 -7 8 -9 20 -3 35 5 13 6
26 3 29 -4 3 -2 6 3 6 7 0 11 117 5 152 -1 6 -170 2 -253 -7 -26 -2 -71 -15
-101 -29 -54 -24 -157 -111 -157 -134 0 -7 -4 -12 -8 -12 -5 0 -16 -16 -25
-35 -9 -19 -21 -35 -27 -35 -7 0 -7 6 0 20 6 11 7 20 3 20 -4 0 -8 38 -8 85 0
47 4 85 8 85 5 0 5 6 0 13 -4 6 -9 46 -10 87 -3 93 -3 92 -36 164 -49 106
-182 210 -315 245 -42 12 -191 27 -193 20z m126 -54 c17 -2 32 -4 35 -5 3 -1
8 -2 13 -1 4 0 7 -4 7 -10 0 -5 5 -7 10 -4 16 10 151 -60 193 -101 32 -31 36
-38 25 -53 -11 -14 -11 -14 3 -3 14 10 19 8 33 -12 9 -14 16 -32 16 -40 0 -8
4 -16 10 -18 5 -1 11 -17 13 -33 2 -17 6 -35 9 -40 4 -8 4 -183 -1 -218 -1
-12 -103 0 -159 19 -91 31 -134 58 -201 125 -39 40 -86 123 -77 138 4 5 2 11
-3 13 -9 3 -14 53 -12 141 1 35 4 46 14 41 10 -6 10 -4 0 7 -7 7 -13 25 -13
40 0 23 3 26 28 22 15 -2 41 -6 57 -8z m952 -490 c0 -8 -5 -15 -11 -15 -6 0
-5 -4 3 -9 12 -8 12 -12 2 -24 -8 -11 -9 -17 -1 -22 6 -3 8 -10 5 -15 -3 -5
-8 -22 -10 -37 -10 -78 -63 -179 -127 -243 -73 -75 -152 -99 -333 -104 l-50
-1 1 64 c2 84 32 184 52 176 12 -4 12 -2 4 8 -9 10 -5 24 17 58 60 93 165 163
251 168 25 2 46 4 47 4 1 1 35 3 76 4 60 2 74 0 74 -12z m-915 -361 c4 -3 19
-7 31 -9 49 -9 148 -67 196 -114 46 -46 56 -61 52 -84 0 -4 4 -6 10 -5 14 4
38 -63 35 -96 -2 -14 0 -26 3 -26 5 0 6 -157 2 -192 -1 -3 -22 -4 -48 -2 -166
16 -322 111 -379 232 -23 49 -26 68 -29 199 l-2 113 60 -5 c33 -3 64 -8 69
-11z m-1072 -17 c64 -12 183 -74 173 -90 -3 -6 -1 -7 6 -3 16 10 93 -70 122
-126 12 -24 22 -45 22 -48 0 -3 1 -9 3 -15 8 -27 9 -73 2 -69 -4 3 -5 -5 0
-18 6 -19 8 -104 3 -154 -1 -11 -9 -11 -95 0 -54 8 -155 47 -201 79 -55 39
-107 99 -133 155 -22 48 -25 72 -28 180 l-3 125 57 -7 c31 -3 64 -7 72 -9z
m811 -653 c0 -154 -56 -268 -162 -330 -39 -24 -63 -30 -134 -39 -27 -3 -65 -8
-82 -10 -31 -5 -33 -3 -34 28 -2 44 5 112 11 112 1 0 3 10 6 23 11 63 104 188
131 178 8 -3 11 -1 8 4 -8 12 43 33 57 24 7 -5 8 -2 3 6 -6 10 -3 12 13 8 12
-4 22 -2 22 4 0 6 19 9 44 7 24 -2 42 -1 40 3 -4 6 64 16 74 12 2 -1 3 -15 3
-30z m1158 -233 c-4 -94 -40 -231 -61 -231 -5 0 -7 -4 -4 -9 7 -10 -54 -94
-88 -123 -60 -50 -134 -73 -273 -83 -29 -2 -57 -7 -63 -10 -11 -7 -11 -8 -14
57 -2 33 0 45 8 41 6 -4 5 0 -2 9 -9 11 -10 18 -2 23 6 3 8 10 6 14 -9 13 21
107 50 162 33 60 105 139 127 139 9 0 17 4 19 9 2 5 10 11 18 13 8 2 17 6 20
10 6 8 56 16 145 25 33 3 61 6 62 7 1 1 14 2 28 2 25 0 26 -2 24 -55z m-2335
-93 c-3 -95 -33 -177 -85 -228 -42 -41 -77 -55 -168 -65 l-53 -6 6 73 c3 40 6
81 7 91 0 10 5 15 11 11 6 -4 8 -3 5 3 -10 16 22 85 35 77 7 -4 8 -3 4 4 -15
25 79 100 110 88 8 -3 12 -2 9 3 -5 9 13 13 86 19 l35 2 -2 -72z m451 -294
c17 -4 39 -13 51 -21 11 -7 24 -10 27 -6 4 3 7 1 7 -5 0 -7 6 -12 13 -12 21
-1 59 -39 51 -51 -4 -7 -3 -9 3 -6 11 7 50 -30 55 -53 2 -8 9 -21 16 -28 10
-11 10 -17 1 -29 -10 -11 -10 -13 1 -11 8 2 16 -10 20 -29 4 -19 3 -33 -2 -33
-5 0 -6 -5 -2 -11 7 -12 12 -116 7 -135 -6 -18 -122 3 -178 32 -82 43 -155
124 -173 194 -10 42 -10 145 1 152 9 6 9 8 0 8 -8 0 -13 13 -13 31 0 31 1 31
43 26 23 -3 56 -9 72 -13z m953 -76 c12 -10 14 -10 9 -1 -6 9 0 10 25 2 66
-21 88 -31 83 -39 -3 -5 3 -6 12 -4 10 3 30 -7 46 -21 15 -14 27 -22 27 -18 0
4 23 -16 51 -46 52 -55 74 -95 63 -113 -4 -7 -2 -8 4 -4 7 4 12 2 12 -3 0 -17
2 -24 12 -50 6 -17 5 -27 -4 -33 -9 -5 -9 -8 -1 -8 7 0 11 -30 11 -94 l-1 -94
-49 3 c-151 11 -305 99 -368 208 -16 28 -28 57 -26 64 3 6 0 13 -6 15 -9 3
-20 233 -11 250 5 11 94 -1 111 -14z m-2143 -22 c32 -4 63 -10 69 -14 6 -3 19
-8 29 -9 36 -6 128 -53 122 -63 -3 -5 0 -8 7 -5 25 9 129 -111 111 -128 -3 -4
-1 -7 5 -7 6 0 11 -34 11 -96 l1 -97 -73 7 c-152 13 -281 75 -348 168 -26 36
-32 58 -36 151 -5 91 -1 107 25 102 10 -2 45 -6 77 -9z"/>
<path d="M4235 3569 c-4 -6 -5 -12 -2 -15 2 -3 7 2 10 11 7 17 1 20 -8 4z"/>
<path d="M3726 3278 c3 -5 10 -6 15 -3 13 9 11 12 -6 12 -8 0 -12 -4 -9 -9z"/>
<path d="M2633 3305 c0 -8 4 -12 9 -9 5 3 6 10 3 15 -9 13 -12 11 -12 -6z"/>
<path d="M3433 2665 c0 -8 4 -12 9 -9 5 3 6 10 3 15 -9 13 -12 11 -12 -6z"/>
<path d="M3155 2571 c-3 -5 -2 -12 3 -15 5 -3 9 1 9 9 0 17 -3 19 -12 6z"/>
<path d="M4595 2440 c-3 -5 -1 -10 4 -10 6 0 11 5 11 10 0 6 -2 10 -4 10 -3 0
-8 -4 -11 -10z"/>
<path d="M4455 3201 c-3 -5 -2 -12 3 -15 5 -3 9 1 9 9 0 17 -3 19 -12 6z"/>
<path d="M3850 2766 c0 -2 7 -7 16 -10 8 -3 12 -2 9 4 -6 10 -25 14 -25 6z"/>
<path d="M4020 2720 c-9 -6 -10 -10 -3 -10 6 0 15 5 18 10 8 12 4 12 -15 0z"/>
<path d="M4206 1918 c3 -5 10 -6 15 -3 13 9 11 12 -6 12 -8 0 -12 -4 -9 -9z"/>
<path d="M4159 1873 c-13 -16 -12 -17 4 -4 9 7 17 15 17 17 0 8 -8 3 -21 -13z"/>
<path d="M2670 1640 c0 -5 5 -10 11 -10 5 0 7 5 4 10 -3 6 -8 10 -11 10 -2 0
-4 -4 -4 -10z"/>
<path d="M1037 4667 c-54 -50 -97 -96 -97 -100 0 -4 10 -18 23 -31 32 -33 190
-205 225 -245 21 -25 33 -31 44 -25 9 5 59 49 111 97 l96 88 -26 29 -25 29
-46 -42 c-25 -23 -57 -52 -69 -64 -13 -13 -27 -23 -32 -23 -10 0 -61 54 -61
66 0 5 27 33 60 62 33 30 60 58 60 63 0 6 -11 20 -23 33 l-24 24 -49 -47 c-85
-80 -80 -79 -119 -41 l-35 34 72 67 72 67 -17 26 c-10 14 -23 26 -30 26 -6 0
-56 -42 -110 -93z"/>
<path d="M4920 4634 c-24 -21 -51 -46 -60 -54 -9 -8 -60 -55 -113 -104 -54
-50 -96 -93 -95 -97 2 -4 41 -48 88 -99 47 -51 88 -97 91 -102 9 -13 48 12 55
35 4 11 -1 26 -13 36 -42 41 -103 110 -103 118 0 8 9 17 53 52 15 12 24 6 78
-53 l62 -67 28 27 28 27 -52 54 c-49 51 -73 82 -65 86 2 1 18 15 35 31 l33 30
67 -72 68 -72 28 25 27 24 -52 58 c-29 32 -74 80 -99 107 l-46 49 -43 -39z"/>
<path d="M735 4335 c-23 -32 -25 -38 -13 -55 7 -11 52 -71 101 -133 48 -63 87
-117 87 -120 0 -3 -71 17 -157 44 l-158 49 -27 -32 c-16 -18 -28 -38 -28 -44
0 -7 12 -15 28 -18 15 -4 50 -13 77 -21 180 -52 301 -85 315 -85 18 1 72 76
68 95 -4 16 -251 354 -259 355 -4 0 -19 -16 -34 -35z"/>
<path d="M5262 4149 c-46 -27 -88 -49 -93 -49 -5 0 -9 -4 -9 -10 0 -5 -4 -10
-9 -10 -7 0 -141 -72 -160 -86 -1 -2 7 -21 20 -43 l22 -40 64 35 c52 29 66 34
78 24 24 -20 18 -45 -26 -117 l-41 -67 21 -43 c12 -24 25 -42 30 -39 5 3 28
38 51 77 36 62 45 70 63 64 105 -35 206 38 194 140 -5 45 -94 215 -112 214 -5
0 -48 -23 -93 -50z m106 -113 c24 -47 21 -70 -12 -97 -35 -29 -70 -13 -105 46
l-20 34 27 18 c47 31 67 42 78 42 6 1 20 -19 32 -43z"/>
<path d="M380 3714 c-11 -25 -20 -50 -20 -55 0 -5 -4 -17 -9 -27 -6 -9 -21
-43 -35 -75 l-25 -58 52 -23 c73 -33 336 -136 345 -136 5 0 74 161 107 250 4
11 -5 19 -27 28 -18 6 -35 8 -38 4 -4 -4 -21 -43 -39 -87 -18 -44 -34 -81 -36
-83 -7 -7 -85 32 -85 43 0 7 14 45 30 85 17 40 30 74 30 75 0 7 -60 26 -68 21
-4 -3 -21 -38 -37 -78 -15 -40 -29 -75 -31 -77 -2 -2 -24 4 -49 14 -36 13 -45
21 -39 34 4 9 15 36 24 61 9 25 22 58 29 74 6 16 10 30 9 31 -11 9 -49 25 -58
25 -6 0 -20 -21 -30 -46z"/>
<path d="M5620 3632 c-14 -9 -27 -19 -30 -22 -3 -4 -70 -53 -150 -110 -80 -56
-148 -107 -151 -112 -9 -14 24 -108 41 -112 28 -9 428 -21 435 -14 10 9 -21
88 -35 89 -8 1 -78 3 -155 4 -77 2 -149 4 -159 4 -12 1 28 34 100 84 185 126
168 109 154 154 -17 51 -21 54 -50 35z"/>
<path d="M293 3157 c-71 -14 -93 -54 -117 -214 l-13 -82 51 -6 c28 -4 60 -9
71 -11 11 -2 40 -7 65 -10 25 -3 54 -8 65 -10 11 -3 38 -7 60 -10 22 -3 55 -9
72 -14 38 -10 42 -5 49 50 4 36 3 40 -18 41 -13 0 -30 2 -38 4 -33 8 -66 14
-78 14 -8 1 -10 10 -6 29 7 29 24 55 31 48 4 -3 133 40 139 47 1 1 5 23 8 49
l7 48 -88 -31 c-59 -21 -89 -27 -91 -20 -2 7 -15 25 -28 40 -29 35 -84 50
-141 38z m75 -103 c18 -12 22 -24 20 -60 -2 -66 -12 -73 -78 -60 -39 8 -55 15
-54 26 9 96 55 135 112 94z"/>
<path d="M5737 3013 c-1 0 -26 -4 -54 -7 -29 -3 -77 -9 -105 -12 -29 -4 -71
-8 -93 -10 -60 -5 -95 -11 -99 -15 -2 -2 -1 -22 3 -44 5 -32 11 -40 26 -39 30
2 145 13 185 18 19 3 62 7 95 11 33 3 75 8 93 11 33 6 33 8 28 48 -3 22 -5 42
-5 43 -1 2 -72 -1 -74 -4z"/>
<path d="M5535 2627 c-46 -15 -93 -54 -114 -95 -46 -91 -18 -210 59 -256 46
-27 58 -21 62 29 2 30 -1 45 -9 45 -20 0 -53 51 -53 82 0 84 78 128 185 104
11 -2 23 -5 27 -5 4 -1 19 -12 34 -26 51 -48 33 -140 -32 -165 -16 -6 -21 -18
-22 -48 -2 -50 11 -56 67 -29 53 25 90 78 97 143 12 95 -29 169 -113 209 -42
20 -144 27 -188 12z"/>
<path d="M508 2535 c-2 -2 -41 -6 -88 -9 -208 -15 -236 -18 -248 -22 -12 -3
-13 -43 -3 -91 1 -2 16 -1 34 2 17 2 56 6 86 7 l54 3 4 -40 c10 -121 10 -137
-1 -140 -9 -3 -114 -13 -154 -14 -10 -1 -12 -11 -8 -38 3 -21 5 -41 6 -46 0
-4 28 -5 63 -3 119 9 242 19 267 21 14 2 41 3 61 4 37 1 37 1 34 42 -3 50 -13
58 -68 49 -23 -3 -58 -6 -77 -5 -34 0 -35 1 -40 45 -3 25 -5 65 -5 90 0 44 1
44 35 47 30 2 112 10 131 12 3 1 3 20 0 43 -6 41 -7 43 -43 44 -20 1 -38 0
-40 -1z"/>
<path d="M5357 2082 c-3 -9 -22 -70 -42 -136 -20 -65 -33 -122 -28 -127 4 -4
20 -11 35 -14 26 -7 27 -5 53 77 14 45 27 88 30 95 3 9 15 8 49 -3 52 -18 52
-18 17 -129 -10 -33 -18 -62 -16 -63 2 -2 19 -7 37 -11 l34 -8 25 84 24 84 30
-6 c17 -4 37 -8 44 -9 24 -4 24 -21 -4 -108 -25 -79 -25 -83 -8 -96 40 -29 54
-13 89 101 54 179 58 159 -38 187 -46 13 -117 34 -158 47 -169 53 -168 53
-173 35z"/>
<path d="M512 1997 c-45 -26 -57 -56 -58 -155 -2 -95 -11 -123 -42 -117 -9 2
-20 4 -23 4 -4 1 -14 17 -23 36 -18 37 -13 80 9 89 10 4 11 13 3 45 -13 50
-31 52 -70 9 -78 -87 -4 -271 110 -274 86 -3 116 42 117 179 1 66 5 91 15 97
24 15 39 12 63 -14 30 -32 33 -85 7 -118 -17 -22 -18 -30 -8 -59 14 -44 13
-43 40 -28 73 39 88 124 40 231 -33 76 -116 110 -180 75z"/>
</g>
</svg>
