<svg width="406" height="353" viewBox="0 0 406 353" fill="none" xmlns="http://www.w3.org/2000/svg">
<circle cx="203" cy="201" r="151" stroke="white" stroke-width="2"/>
<g filter="url(#filter0_d_3_112)">
<path d="M129.365 276.956H130.865L130.865 275.456L130.866 266.047V266.047C130.866 259.93 126.903 254.619 120.974 250.913C115.024 247.195 106.897 244.944 98 244.944H96.5V246.444V255.853C96.5 261.97 100.463 267.281 106.392 270.986C112.341 274.705 120.468 276.956 129.365 276.956Z" stroke="#008080" stroke-width="3"/>
</g>
<g filter="url(#filter1_d_3_112)">
<path d="M156.725 215.117L156.511 213.633L155.027 213.847L147.375 214.948L147.375 214.948C142.371 215.669 138.388 219.137 135.926 223.887C133.462 228.64 132.447 234.784 133.372 241.206L133.585 242.691L135.07 242.477L142.721 241.375C147.725 240.654 151.708 237.186 154.171 232.436C156.635 227.684 157.65 221.54 156.725 215.117Z" stroke="#008080" stroke-width="3"/>
</g>
<g filter="url(#filter2_d_3_112)">
<path d="M202.772 191.942L204.272 191.941L204.272 190.441L204.269 178.406L204.269 178.406C204.264 163.428 189.144 151.836 171.252 151.841L169.752 151.842L169.753 153.342L169.756 165.377C169.761 180.355 184.88 191.947 202.772 191.942Z" stroke="#008080" stroke-width="3" shape-rendering="crispEdges"/>
</g>
<g filter="url(#filter3_d_3_112)">
<path d="M275.108 134.148L276.608 134.173L276.633 132.674L276.833 120.64L276.833 120.639C277.082 105.663 262.16 93.8181 244.27 93.5213L242.77 93.4964L242.745 94.9962L242.546 107.03C242.297 122.006 257.219 133.852 275.108 134.148Z" stroke="#008080" stroke-width="3" shape-rendering="crispEdges"/>
</g>
<g filter="url(#filter4_d_3_112)">
<path d="M316.037 127.663L315.977 126.164L314.478 126.225L302.452 126.709L302.452 126.709C287.486 127.314 276.509 142.886 277.231 160.763L277.292 162.262L278.791 162.202L290.816 161.716C305.782 161.112 316.759 145.54 316.037 127.663Z" stroke="#008080" stroke-width="3" shape-rendering="crispEdges"/>
</g>
<g filter="url(#filter5_d_3_112)">
<path d="M275.138 190.692L276.638 190.692L276.638 189.192L276.635 177.157L276.635 177.156C276.63 162.178 261.51 150.587 243.618 150.592L242.118 150.592L242.119 152.092L242.122 164.128C242.127 179.106 257.246 190.698 275.138 190.692Z" stroke="#008080" stroke-width="3" shape-rendering="crispEdges"/>
</g>
<g filter="url(#filter6_d_3_112)">
<path d="M314.696 210.198L314.564 208.704L313.07 208.837L301.081 209.9L301.081 209.9C286.162 211.225 275.948 227.308 277.53 245.13L277.662 246.624L279.157 246.491L291.145 245.427C306.064 244.102 316.278 228.02 314.696 210.198Z" stroke="#008080" stroke-width="3" shape-rendering="crispEdges"/>
</g>
<g filter="url(#filter7_d_3_112)">
<path d="M273.973 282.724L275.473 282.723L275.473 281.223L275.47 269.188L275.47 269.187C275.465 254.209 260.345 242.618 242.454 242.623L240.954 242.623L240.954 244.123L240.958 256.159C240.962 271.137 256.081 282.729 273.973 282.724Z" stroke="#008080" stroke-width="3" shape-rendering="crispEdges"/>
</g>
<g filter="url(#filter8_d_3_112)">
<path d="M205.528 224.739L205.711 226.228L207.2 226.045L217.2 224.814L217.2 224.814C229.742 223.269 238.067 210.24 236.334 196.167L236.151 194.679L234.662 194.862L224.662 196.094C212.121 197.638 203.795 210.667 205.528 224.739Z" stroke="#008080" stroke-width="3"/>
</g>
<g filter="url(#filter9_d_3_112)">
<path d="M177.949 237.711L176.449 237.716L176.454 239.216L176.488 249.292L176.488 249.292C176.532 261.928 188.481 271.742 202.659 271.693L204.159 271.688L204.154 270.188L204.119 260.112C204.075 247.476 192.128 237.661 177.949 237.711Z" stroke="#008080" stroke-width="3"/>
</g>
<rect x="130.364" y="294.286" width="84.3632" height="3.24474" rx="1.62237" transform="rotate(-90 130.364 294.286)" fill="#008080"/>
<rect x="202.83" y="294.286" width="117.892" height="3.24474" rx="1.62237" transform="rotate(-90 202.83 294.286)" fill="#008080"/>
<rect x="275.296" y="294.286" width="168.726" height="3.24474" rx="1.62237" transform="rotate(-90 275.296 294.286)" fill="#008080"/>
<rect x="110.896" y="291.041" width="183.868" height="3.24474" rx="1.62237" fill="#008080"/>
<path d="M41.1145 265.692L40.6452 264.204C42.9488 263.086 44.5513 261.518 45.4526 259.5C46.3285 257.49 46.4014 255.328 45.6713 253.013C45.3745 252.073 44.9873 251.244 44.5097 250.528C44.0321 249.812 43.5016 249.238 42.9182 248.807C42.3094 248.384 41.6771 248.108 41.0213 247.979C40.3401 247.859 39.6435 247.911 38.9314 248.135C38.3211 248.328 37.8318 248.594 37.4637 248.934C37.0621 249.256 36.7421 249.749 36.5036 250.411C36.2398 251.081 36.0401 251.955 35.9046 253.033C35.7611 254.085 35.6423 255.436 35.5481 257.088C35.3423 260.424 34.7139 263.041 33.6627 264.939C32.5861 266.844 31.0178 268.122 28.9579 268.772C27.7626 269.149 26.5969 269.265 25.4607 269.12C24.3244 268.975 23.2719 268.608 22.3031 268.019C21.3263 267.404 20.4667 266.585 19.7242 265.561C18.9482 264.52 18.3396 263.299 17.8984 261.901C17.4892 260.604 17.3076 259.319 17.3535 258.046C17.3993 256.773 17.6527 255.449 18.1135 254.073L15.9895 253.988L15.7007 253.073L23.808 250.054L24.2774 251.542C22.3846 252.81 21.096 254.265 20.4116 255.907C19.7018 257.557 19.6156 259.234 20.1531 260.938C20.6505 262.514 21.4499 263.674 22.5511 264.418C23.6189 265.143 24.7632 265.314 25.9839 264.928C26.5179 264.76 26.973 264.519 27.3492 264.204C27.6999 263.898 27.9898 263.443 28.2189 262.839C28.4479 262.236 28.6335 261.45 28.7757 260.483C28.8924 259.523 28.9837 258.306 29.0498 256.831C29.1748 254.834 29.3968 253.1 29.7158 251.63C30.0013 250.141 30.4266 248.875 30.9917 247.83C31.5233 246.767 32.174 245.905 32.9438 245.243C33.7135 244.58 34.6325 244.081 35.7006 243.744C36.9976 243.335 38.2684 243.241 39.513 243.464C40.7576 243.686 41.9218 244.186 43.0057 244.962C44.0815 245.714 45.0562 246.72 45.9298 247.983C46.7953 249.22 47.4929 250.677 48.0223 252.356C48.5037 253.882 48.7335 255.319 48.7117 256.668C48.6644 258.025 48.3749 259.501 47.8431 261.094L50.3726 261.135L50.6614 262.051L41.1145 265.692Z" fill="white"/>
<path d="M32.923 203.329C33.933 203.247 34.7537 203.14 35.3851 203.008C35.9877 202.852 36.45 202.614 36.7717 202.294C37.0647 201.949 37.2561 201.505 37.3457 200.963C37.4332 200.394 37.4535 199.656 37.4066 198.751L39.0014 198.621L40.1912 213.253L38.5964 213.382C38.4899 212.401 38.3464 211.623 38.1659 211.05C37.9833 210.449 37.7196 210.002 37.3747 209.709C37.0277 209.39 36.5575 209.2 35.9641 209.142C35.3707 209.083 34.6089 209.091 33.6786 209.167L25.3461 209.845L26.5489 224.636L34.6023 223.981C35.6123 223.899 36.4319 223.779 37.0612 223.62C37.6638 223.464 38.125 223.213 38.4446 222.866C38.7376 222.521 38.9267 222.051 39.0121 221.455C39.0953 220.833 39.1102 220.029 39.0568 219.044L40.6515 218.914L41.8381 233.506L40.2433 233.635C40.1433 232.734 40.0052 232.023 39.8291 231.502C39.6508 230.955 39.3903 230.548 39.0476 230.281C38.7048 230.015 38.2368 229.852 37.6434 229.794C37.05 229.735 36.2882 229.743 35.3579 229.819L16.9387 231.317C16.0085 231.392 15.2686 231.506 14.7191 231.658C14.1408 231.785 13.703 231.994 13.4057 232.286C13.0818 232.58 12.8872 232.984 12.8219 233.497C12.7279 233.987 12.6868 234.632 12.6985 235.434L11.1037 235.564L9.98526 221.809L11.58 221.679C11.6801 222.581 11.8192 223.305 11.9975 223.853C12.1736 224.373 12.4463 224.766 12.8156 225.03C13.1849 225.294 13.6796 225.455 14.2995 225.511C14.9173 225.541 15.7312 225.515 16.7412 225.433L24.077 224.837L22.8743 210.046L15.2594 210.665C14.3291 210.74 13.5893 210.854 13.0397 211.006C12.4636 211.16 12.028 211.396 11.7328 211.714C11.4111 212.035 11.2197 212.478 11.1588 213.045C11.0692 213.587 11.0345 214.313 11.0548 215.221L9.46007 215.35L8.33836 201.556L9.9331 201.426C10.0245 202.221 10.1572 202.866 10.3312 203.36C10.503 203.828 10.7724 204.18 11.1396 204.418C11.5067 204.656 12.0003 204.803 12.6202 204.86C13.238 204.89 14.0519 204.864 15.0619 204.781L32.923 203.329Z" fill="white"/>
<path d="M21.025 161.702C23.2096 162.058 24.9361 162.987 26.2045 164.49C27.473 165.993 28.1324 168.168 28.1829 171.013L40.1749 163.561C41.0147 163.05 41.7026 162.392 42.2387 161.587C42.7485 160.779 43.0762 159.927 43.2218 159.032L44.801 159.289L43.2788 168.646L29.6838 176.485C28.7871 177.014 28.1665 177.508 27.8219 177.965C27.4553 178.391 27.2378 178.815 27.1693 179.236L34.9075 180.495C35.8814 180.654 36.6949 180.719 37.348 180.69C37.9748 180.657 38.4914 180.47 38.8978 180.131C39.3042 179.792 39.6331 179.265 39.8846 178.549C40.1141 177.803 40.3316 176.798 40.5371 175.535L42.1163 175.792L39.5665 191.466L37.9873 191.209C38.1286 190.34 38.1894 189.634 38.1697 189.091C38.1281 188.517 37.9728 188.059 37.7041 187.718C37.4133 187.347 36.9869 187.061 36.425 186.862C35.8368 186.658 35.082 186.481 34.1608 186.331L15.9206 183.364C14.9994 183.214 14.256 183.134 13.6904 183.123C13.0985 183.107 12.6232 183.206 12.2645 183.418C11.8796 183.625 11.5937 183.97 11.4071 184.453C11.1984 184.906 11.0014 185.536 10.816 186.343L9.23679 186.086L11.459 172.426C12.0799 168.609 13.2306 165.77 14.9113 163.909C16.5919 162.048 18.6298 161.313 21.025 161.702ZM24.8004 178.851L25.2179 176.285C25.6204 173.811 25.4463 171.891 24.6958 170.526C23.9231 169.131 22.4314 168.253 20.2204 167.894C18.5359 167.62 17.0969 167.912 15.9034 168.772C14.7099 169.631 13.9654 170.969 13.67 172.785L13.1112 176.22C13.0341 176.694 13.2193 176.967 13.6668 177.04L24.8004 178.851Z" fill="white"/>
<path d="M34.365 139.212C35.0023 137.629 35.4657 136.335 35.7551 135.33C36.0446 134.326 36.1454 133.504 36.0577 132.865C35.9552 132.191 35.6519 131.623 35.1479 131.162C34.6438 130.7 33.9095 130.203 32.9451 129.671L33.4978 128.298L44.3699 132.675L43.8172 134.048C42.7679 133.798 41.8967 133.677 41.2034 133.686C40.5101 133.694 39.9055 133.911 39.3896 134.335C38.8489 134.75 38.3522 135.413 37.8996 136.323C37.4322 137.198 36.8848 138.415 36.2574 139.974L43.9012 143.051C44.6928 143.37 45.4006 143.539 46.0245 143.561C46.6583 143.557 47.248 143.378 47.7935 143.022C48.3142 142.657 48.8131 142.096 49.2902 141.34C49.7425 140.573 50.2077 139.596 50.6857 138.409C51.2533 136.999 51.6324 135.771 51.8229 134.727C52.0233 133.658 52.0056 132.702 51.7698 131.86C51.534 131.017 51.0876 130.234 50.4306 129.51C49.7488 128.775 48.8319 128.018 47.6799 127.238L48.2774 125.754L56.5357 129.768L46.4078 154.926L44.9236 154.329C45.2275 153.502 45.4222 152.804 45.5076 152.235C45.593 151.666 45.5421 151.185 45.3548 150.794C45.1675 150.402 44.8216 150.047 44.3173 149.729C43.8129 149.411 43.1278 149.078 42.262 148.73L25.119 141.828C24.2531 141.48 23.5406 141.25 22.9813 141.14C22.4072 140.995 21.9219 140.987 21.5255 141.115C21.1043 141.233 20.7496 141.507 20.4615 141.937C20.1585 142.332 19.8329 142.891 19.4847 143.613L18.0005 143.016L27.4412 119.565L34.8185 122.233L34.1762 123.828C33.0775 123.559 32.1294 123.45 31.3321 123.503C30.51 123.545 29.7865 123.772 29.1616 124.181C28.5121 124.581 27.9288 125.208 27.4119 126.064C26.8803 126.885 26.3505 127.951 25.8227 129.262L24.1347 133.455C23.8758 134.098 23.8031 134.529 23.9165 134.747C24.0051 134.955 24.3463 135.179 24.94 135.418L34.365 139.212Z" fill="white"/>
<path d="M63.6619 105.357L55.654 93.511C54.8665 92.3517 54.2159 91.4166 53.7022 90.7056C53.2037 89.9726 52.7804 89.3888 52.4324 88.9541C52.0843 88.5195 51.7938 88.1893 51.5607 87.9637C51.3277 87.738 51.0905 87.5418 50.8491 87.3752C50.3223 87.0116 49.8458 86.9743 49.4195 87.2633C48.9713 87.5371 48.3382 88.2666 47.5201 89.4517L46.2034 88.5427L52.6568 79.1938L53.9735 80.1027C52.7162 81.9242 52.7339 83.7996 54.0268 85.729L69.7441 109.361L68.0625 111.797L43.407 106.394C42.0726 106.121 40.955 105.933 40.0543 105.83C39.1535 105.727 38.3802 105.744 37.7345 105.881C37.0668 106.003 36.5004 106.261 36.0355 106.652C35.5637 107.007 35.1082 107.503 34.6689 108.139L33.3192 107.208L41.9086 94.7644L43.2583 95.696C42.8864 96.2818 42.586 96.7873 42.3572 97.2126C42.1436 97.616 42.0159 97.9653 41.9741 98.2605C41.9104 98.5406 41.9361 98.7851 42.051 98.9941C42.1441 99.1879 42.3113 99.3681 42.5527 99.5348C42.8599 99.7468 43.2599 99.9419 43.7526 100.12C44.2453 100.298 44.8637 100.482 45.6077 100.672L63.6619 105.357Z" fill="white"/>
<path d="M77.8613 73.091C79.1157 71.9337 80.0889 70.9633 80.7809 70.1796C81.473 69.396 81.9163 68.6968 82.1109 68.0818C82.307 67.4292 82.2762 66.7864 82.0187 66.1532C81.7611 65.5201 81.3106 64.7566 80.6672 63.8626L81.755 62.859L89.7022 71.4729L88.6145 72.4765C87.7736 71.801 87.0381 71.3185 86.4082 71.0289C85.7782 70.7394 85.1391 70.6759 84.4909 70.8385C83.8247 70.9815 83.092 71.3672 82.293 71.9956C81.4955 72.5862 80.4794 73.4511 79.2446 74.5903L84.8321 80.6465C85.4107 81.2737 85.9774 81.7306 86.532 82.0171C87.1062 82.2855 87.7159 82.3761 88.361 82.2889C88.9881 82.182 89.6792 81.889 90.4345 81.4099C91.1717 80.9112 92.0107 80.2278 92.9514 79.3599C94.0686 78.3292 94.9371 77.3828 95.5568 76.5208C96.1961 75.6407 96.5897 74.7696 96.7376 73.9075C96.8856 73.0453 96.818 72.1462 96.5348 71.2101C96.2336 70.2544 95.7297 69.1773 95.0231 67.9789L96.1991 66.8939L101.94 74.0603L82.0075 92.4502L80.9225 91.2742C81.5512 90.6579 82.0261 90.1108 82.3473 89.6331C82.6685 89.1554 82.8284 88.6995 82.827 88.2654C82.8256 87.8313 82.6652 87.3625 82.3458 86.859C82.0263 86.3554 81.5502 85.7607 80.9173 85.0747L68.3861 71.4924C67.7533 70.8064 67.2077 70.2938 66.7496 69.9545C66.293 69.5776 65.8582 69.3619 65.4452 69.3076C65.0142 69.2336 64.5763 69.3292 64.1315 69.5944C63.6883 69.8219 63.1547 70.1872 62.5305 70.6905L61.4456 69.5145L80.0258 52.3723L85.5478 57.9447L84.2836 59.111C83.4066 58.3963 82.5965 57.8919 81.8535 57.5978C81.0924 57.2841 80.3418 57.1784 79.6017 57.2807C78.8435 57.3634 78.0476 57.6805 77.2139 58.232C76.3818 58.7457 75.4463 59.4818 74.4075 60.4402L71.0855 63.5052C70.5759 63.9753 70.3256 64.3332 70.3346 64.5789C70.3255 64.805 70.5379 65.1533 70.9719 65.6236L77.8613 73.091Z" fill="white"/>
<path d="M96.5544 49.7227C96.9338 48.5672 97.1251 47.5383 97.1284 46.636C97.1389 45.6966 96.9581 44.9504 96.5857 44.3974C96.527 44.5012 96.4277 44.6163 96.2878 44.7427C96.155 44.832 96.0334 44.914 95.9228 44.9884C95.414 45.3309 94.8486 45.4223 94.2266 45.2624C93.6119 45.0655 93.1034 44.6684 92.7013 44.0711C92.2099 43.3411 92.0436 42.569 92.2027 41.7547C92.3617 40.9404 92.8062 40.2876 93.5362 39.7961C94.3104 39.2749 95.1123 39.1529 95.9419 39.4302C96.7567 39.6853 97.4842 40.2885 98.1246 41.2397C98.8841 42.3679 99.2933 43.7158 99.3522 45.2835C99.4111 46.8512 99.112 48.5795 98.4549 50.4685L96.5544 49.7227Z" fill="white"/>
<path d="M117.086 51.8142L118.49 51.133C119.932 53.249 121.717 54.6058 123.845 55.2033C125.961 55.7768 128.11 55.5337 130.294 54.4741C131.181 54.0432 131.944 53.5394 132.583 52.9625C133.222 52.3856 133.712 51.7772 134.054 51.1371C134.384 50.4731 134.564 49.8074 134.596 49.1399C134.616 48.4484 134.463 47.7667 134.137 47.095C133.858 46.5193 133.523 46.0741 133.133 45.7594C132.756 45.4091 132.222 45.1643 131.532 45.025C130.83 44.8617 129.936 44.7915 128.851 44.8145C127.789 44.8259 126.435 44.9054 124.787 45.053C121.456 45.3358 118.776 45.0956 116.745 44.3322C114.703 43.5449 113.21 42.1797 112.267 40.2365C111.72 39.109 111.435 37.9726 111.413 36.8274C111.39 35.6822 111.6 34.5874 112.042 33.5431C112.507 32.4871 113.193 31.5172 114.097 30.6333C115.015 29.7138 116.133 28.9339 117.452 28.2934C118.676 27.6996 119.921 27.3326 121.187 27.1924C122.452 27.0522 123.799 27.1098 125.228 27.3652L125.002 25.2515L125.866 24.8323L130.034 32.4129L128.631 33.0941C127.1 31.4064 125.473 30.3437 123.749 29.906C122.013 29.4443 120.341 29.6035 118.734 30.3837C117.246 31.1057 116.215 32.0656 115.641 33.2634C115.079 34.4256 115.077 35.5824 115.636 36.7339C115.88 37.2377 116.186 37.6528 116.551 37.9791C116.906 38.2814 117.398 38.5019 118.029 38.6405C118.659 38.7791 119.463 38.8482 120.441 38.8478C121.408 38.8234 122.625 38.7363 124.094 38.5866C126.087 38.4192 127.835 38.3861 129.337 38.4873C130.851 38.5528 132.166 38.7889 133.282 39.1956C134.411 39.5666 135.359 40.0847 136.126 40.7497C136.893 41.4146 137.522 42.2509 138.011 43.2585C138.605 44.482 138.882 45.7256 138.843 46.9894C138.805 48.2531 138.48 49.4777 137.87 50.6632C137.284 51.837 136.43 52.9481 135.308 53.9964C134.211 55.033 132.87 55.9356 131.287 56.7041C129.848 57.4028 128.459 57.8396 127.121 58.0147C125.772 58.1658 124.27 58.0945 122.616 57.8007L122.944 60.3092L122.08 60.7284L117.086 51.8142Z" fill="white"/>
<path d="M191.897 17.3426L190.195 17.5889C189.929 16.3071 189.576 15.2669 189.137 14.4681C188.721 13.6392 188.199 13.0141 187.573 12.5928C186.942 12.1451 186.217 11.8862 185.399 11.8159C184.577 11.7193 183.638 11.7474 182.582 11.9001C181.553 12.0489 180.725 12.1956 180.099 12.34C179.496 12.4542 179.031 12.5889 178.703 12.7441C178.398 12.869 178.204 13.0183 178.121 13.192C178.038 13.3656 178.014 13.5712 178.049 13.8087L181.049 34.5528C181.171 35.3974 181.329 36.1155 181.522 36.7073C181.742 37.2952 182.065 37.7604 182.492 38.1028C182.915 38.4188 183.498 38.6309 184.241 38.739C184.98 38.8206 185.933 38.7907 187.098 38.6491L187.327 40.2326L170.739 42.6319L170.51 41.0484C171.694 40.8502 172.629 40.6072 173.315 40.3194C173.997 40.0052 174.496 39.6366 174.812 39.2137C175.151 38.7605 175.329 38.2228 175.347 37.6005C175.391 36.9744 175.352 36.2391 175.23 35.3946L172.229 14.6504C172.195 14.4129 172.113 14.2226 171.985 14.0795C171.883 13.9326 171.681 13.8406 171.379 13.8034C171.074 13.7398 170.642 13.7349 170.084 13.7887C169.548 13.8122 168.845 13.887 167.974 14.013C167.024 14.1504 166.121 14.3349 165.265 14.5664C164.406 14.7716 163.679 15.1462 163.084 15.6903C162.485 16.208 162.039 16.9461 161.747 17.9045C161.477 18.8327 161.445 20.1037 161.652 21.7174L160.108 21.9407L159.244 13.1741L190.241 8.69053L191.897 17.3426Z" fill="white"/>
<path d="M221.422 31.3053L210.144 30.3241C208.651 33.0315 207.856 34.9298 207.762 36.019C207.692 36.816 207.941 37.3462 208.507 37.6096C209.099 37.8753 209.993 38.0601 211.189 38.1642L211.05 39.7581L200.131 38.8081L200.27 37.2142C200.914 37.1899 201.468 37.1311 201.931 37.0375C202.421 36.9463 202.849 36.7962 203.215 36.5871C203.608 36.3804 203.953 36.1026 204.251 35.7538C204.552 35.3784 204.846 34.9222 205.133 34.3851L217.899 9.03613L220.847 9.2927L228.347 33.3934C228.787 34.7968 229.159 35.8999 229.464 36.7027C229.796 37.5078 230.155 38.1414 230.543 38.6034C230.96 39.0412 231.441 39.3641 231.985 39.572C232.555 39.7823 233.289 39.9665 234.185 40.1248L234.043 41.7587L218.98 40.4481L219.122 38.8143C220.402 38.8721 221.33 38.819 221.906 38.655C222.483 38.491 222.799 38.0902 222.854 37.4526C222.887 37.0807 222.835 36.5944 222.7 35.9938C222.565 35.3931 222.375 34.6539 222.13 33.776L221.422 31.3053ZM211.269 28.0129L220.753 28.8381L217.221 16.365L217.061 16.3511L211.269 28.0129Z" fill="white"/>
<path d="M266.644 47.3433C266.995 48.4126 267.509 49.3253 268.187 50.0811C268.899 50.82 269.774 51.36 270.813 51.701L270.314 53.2212L256.138 48.5672L256.637 47.0471C257.271 47.255 257.786 47.396 258.182 47.4701C258.604 47.5526 258.929 47.589 259.157 47.5796C259.41 47.5784 259.582 47.5228 259.675 47.4128C259.792 47.3111 259.876 47.1842 259.926 47.0322C259.976 46.8801 259.988 46.7157 259.962 46.5387C259.969 46.3447 259.939 46.0961 259.87 45.7928C259.801 45.4895 259.702 45.1063 259.574 44.6431C259.445 44.1798 259.27 43.603 259.047 42.9125L256.877 35.8008L253.194 38.1703C252.412 38.6713 251.66 39.1259 250.936 39.534C250.238 39.9503 249.591 40.3412 248.994 40.7065C248.422 41.0801 247.943 41.428 247.556 41.7502C247.178 42.0471 246.939 42.3475 246.839 42.6516C246.706 43.057 246.868 43.4188 247.325 43.7372C247.782 44.0556 248.593 44.4061 249.759 44.7887L249.259 46.3089L237.592 42.4784L238.091 40.9583C238.775 41.1829 239.366 41.3488 239.864 41.4562C240.396 41.5466 240.881 41.5654 241.319 41.5129C241.783 41.4686 242.229 41.3485 242.658 41.1526C243.121 40.9397 243.651 40.6506 244.248 40.2853L255.903 32.8706L250.816 18.4862C250.423 17.3748 249.93 16.5675 249.337 16.0642C248.745 15.5609 248.018 15.1679 247.156 14.8851L247.655 13.3649L261.945 18.0563L261.446 19.5764C260.534 19.277 259.838 19.1747 259.357 19.2697C258.877 19.3646 258.562 19.6401 258.413 20.0961C258.188 20.7802 258.289 21.7537 258.717 23.0167L260.859 29.6985L267.683 25.4554C268.213 25.1241 268.612 24.806 268.881 24.5012C269.183 24.1794 269.388 23.8538 269.496 23.5245C269.554 23.3471 269.57 23.1699 269.544 22.993C269.518 22.816 269.408 22.6394 269.213 22.4632C269.044 22.2953 268.765 22.1195 268.376 21.9357C267.987 21.752 267.463 21.552 266.805 21.3357L267.304 19.8155L278.629 23.5337L278.13 25.0538C277.066 24.7045 276.217 24.5102 275.585 24.4709C274.952 24.4316 274.371 24.5776 273.841 24.9088L261.923 32.6156L266.644 47.3433Z" fill="white"/>
<path d="M295.207 55.6329L296.472 56.5462C295.291 58.8185 294.942 61.0332 295.424 63.1902C295.921 65.3256 297.153 67.1036 299.121 68.5244C299.92 69.102 300.726 69.5356 301.536 69.825C302.347 70.1144 303.115 70.2579 303.841 70.2555C304.582 70.2315 305.254 70.0753 305.856 69.7871C306.475 69.4772 307.003 69.0196 307.44 68.4143C307.815 67.8954 308.048 67.3898 308.141 66.8974C308.27 66.399 308.233 65.8129 308.029 65.1391C307.84 64.4437 307.479 63.6235 306.944 62.6783C306.431 61.7487 305.72 60.5934 304.809 59.2122C302.983 56.4127 301.925 53.9381 301.635 51.7883C301.361 49.6169 301.857 47.6556 303.121 45.9045C303.855 44.8884 304.721 44.0994 305.719 43.5373C306.717 42.9752 307.78 42.6413 308.909 42.5355C310.06 42.4454 311.239 42.5895 312.446 42.9678C313.69 43.3401 314.907 43.9556 316.096 44.8143C317.198 45.6105 318.111 46.5329 318.834 47.5813C319.557 48.6298 320.144 49.8434 320.596 51.2221L322.351 50.0223L323.129 50.5843L318.427 57.8463L317.162 56.933C317.924 54.7856 318.089 52.849 317.658 51.1231C317.242 49.3757 316.31 47.9789 314.862 46.9329C313.521 45.9649 312.188 45.5116 310.86 45.5728C309.571 45.6281 308.551 46.1746 307.801 47.2123C307.474 47.6663 307.253 48.1317 307.139 48.6085C307.04 49.0637 307.079 49.6017 307.256 50.2226C307.432 50.8435 307.752 51.5846 308.216 52.4457C308.695 53.2852 309.349 54.3162 310.176 55.5388C311.268 57.2154 312.125 58.7388 312.747 60.1092C313.406 61.4735 313.821 62.7436 313.992 63.9193C314.2 65.0891 314.192 66.1694 313.97 67.1603C313.748 68.1511 313.309 69.1005 312.653 70.0085C311.857 71.111 310.893 71.9445 309.762 72.509C308.631 73.0735 307.399 73.3678 306.065 73.3919C304.754 73.4315 303.371 73.2058 301.917 72.7146C300.484 72.239 299.054 71.486 297.627 70.4556C296.33 69.5189 295.288 68.5028 294.5 67.4075C293.727 66.2906 293.079 64.9341 292.554 63.338L290.5 64.8153L289.722 64.2532L295.207 55.6329Z" fill="white"/>
<path d="M333.023 78.0881C334.176 79.3463 335.144 80.3228 335.925 81.0174C336.706 81.7121 337.404 82.1577 338.018 82.3544C338.67 82.5526 339.313 82.524 339.947 82.2686C340.581 82.0131 341.346 81.5652 342.242 80.9247L343.242 82.0158L334.602 89.9344L333.602 88.8433C334.28 88.0046 334.765 87.2708 335.057 86.6418C335.349 86.0128 335.414 85.3739 335.254 84.7252C335.113 84.0585 334.73 83.3246 334.104 82.5235C333.516 81.724 332.654 80.705 331.519 79.4665L325.445 85.0338C324.816 85.6103 324.357 86.1754 324.068 86.7291C323.798 87.3024 323.705 87.9117 323.791 88.5572C323.895 89.1846 324.186 89.8767 324.663 90.6336C325.159 91.3724 325.839 92.2137 326.704 93.1573C327.731 94.2779 328.675 95.1495 329.535 95.7721C330.413 96.4143 331.282 96.8108 332.144 96.9616C333.006 97.1125 333.905 97.0478 334.842 96.7678C335.799 96.4698 336.878 95.9695 338.078 95.2668L339.159 96.4464L331.974 102.163L313.65 82.1698L314.83 81.0888C315.444 81.7196 315.99 82.1963 316.466 82.5191C316.943 82.8418 317.398 83.0032 317.833 83.0033C318.267 83.0033 318.736 82.8445 319.241 82.5267C319.745 82.209 320.341 81.7348 321.03 81.1042L334.654 68.6183C335.342 67.9877 335.856 67.4439 336.197 66.9869C336.575 66.5316 336.792 66.0975 336.848 65.6847C336.923 65.2539 336.829 64.8157 336.566 64.3701C336.34 63.9261 335.976 63.3912 335.475 62.7654L336.654 61.6844L353.735 80.3215L348.144 85.825L346.982 84.557C347.699 83.6823 348.207 82.8739 348.503 82.1319C348.819 81.3719 348.928 80.6216 348.828 79.8812C348.748 79.1227 348.433 78.3257 347.884 77.4902C347.373 76.6564 346.64 75.7185 345.686 74.6765L342.632 71.3442C342.163 70.8331 341.806 70.5816 341.56 70.5898C341.334 70.5799 340.985 70.7912 340.514 71.2236L333.023 78.0881Z" fill="white"/>
<path d="M370.086 119.991C368.165 121.092 366.239 121.458 364.307 121.09C362.375 120.722 360.493 119.449 358.661 117.272L354.044 130.614C353.714 131.54 353.595 132.485 353.685 133.447C353.799 134.396 354.081 135.264 354.532 136.051L353.144 136.846L348.43 128.621L354.048 113.968C354.411 112.992 354.582 112.218 354.561 111.646C354.577 111.083 354.479 110.617 354.267 110.247L347.464 114.145C346.608 114.636 345.936 115.098 345.447 115.532C344.981 115.952 344.697 116.422 344.595 116.942C344.493 117.461 344.57 118.078 344.826 118.792C345.118 119.516 345.582 120.434 346.218 121.544L344.83 122.34L336.934 108.562L338.323 107.766C338.76 108.53 339.158 109.116 339.516 109.526C339.91 109.946 340.319 110.203 340.742 110.298C341.202 110.404 341.713 110.357 342.275 110.158C342.86 109.945 343.558 109.607 344.367 109.143L360.401 99.9544C361.211 99.4903 361.839 99.0844 362.285 98.7365C362.754 98.3754 363.061 97.9996 363.206 97.6092C363.375 97.2054 363.379 96.7572 363.22 96.2646C363.097 95.7818 362.853 95.1686 362.488 94.4248L363.876 93.6293L370.758 105.637C372.68 108.992 373.575 111.922 373.443 114.426C373.31 116.93 372.191 118.785 370.086 119.991ZM356.349 109.054L357.642 111.309C358.888 113.484 360.233 114.865 361.676 115.452C363.155 116.049 364.866 115.791 366.81 114.677C368.29 113.828 369.223 112.694 369.609 111.275C369.994 109.855 369.729 108.347 368.814 106.751L367.084 103.732C366.845 103.315 366.529 103.22 366.136 103.445L356.349 109.054Z" fill="white"/>
<path d="M365.963 154.645L380.217 155.777C381.615 155.884 382.751 155.959 383.627 156.002C384.511 156.069 385.232 156.103 385.788 156.102C386.345 156.101 386.785 156.08 387.106 156.039C387.428 155.997 387.729 155.934 388.01 155.849C388.623 155.665 388.949 155.316 388.99 154.802C389.055 154.281 388.88 153.331 388.464 151.952L389.996 151.49L393.276 162.366L391.745 162.828C391.105 160.709 389.629 159.553 387.314 159.36L359.039 156.9L358.185 154.066L377.789 138.168C378.835 137.295 379.679 136.539 380.322 135.9C380.965 135.26 381.434 134.645 381.729 134.055C382.05 133.457 382.202 132.854 382.186 132.246C382.203 131.656 382.1 130.99 381.877 130.25L383.447 129.777L387.813 144.252L386.243 144.726C386.017 144.07 385.809 143.52 385.62 143.076C385.438 142.657 385.244 142.339 385.04 142.122C384.861 141.898 384.654 141.765 384.418 141.725C384.209 141.677 383.964 141.695 383.683 141.78C383.326 141.887 382.924 142.078 382.477 142.352C382.03 142.626 381.501 142.995 380.889 143.458L365.963 154.645Z" fill="white"/>
<path d="M365.777 191.46L364.203 177.267L365.794 177.091C365.92 177.989 366.079 178.696 366.27 179.211C366.491 179.75 366.816 180.143 367.246 180.391C367.676 180.638 368.255 180.775 368.982 180.802C369.736 180.826 370.736 180.769 371.981 180.63L387.963 178.859C389.077 178.736 389.985 178.581 390.689 178.396C391.422 178.234 391.986 177.997 392.381 177.685C392.776 177.373 393.025 176.957 393.128 176.435C393.261 175.938 393.308 175.275 393.27 174.448L394.86 174.271L396.345 187.669L394.755 187.846C394.611 187.03 394.418 186.38 394.177 185.897C393.965 185.438 393.632 185.099 393.179 184.881C392.725 184.663 392.122 184.542 391.368 184.518C390.643 184.518 389.724 184.58 388.611 184.703L372.629 186.475C371.383 186.613 370.394 186.763 369.661 186.924C368.957 187.11 368.422 187.37 368.057 187.706C367.695 188.068 367.463 188.523 367.363 189.071C367.292 189.642 367.294 190.38 367.367 191.284L365.777 191.46Z" fill="white"/>
<path d="M395.475 228.474L395.334 230.429L385.298 228.901L385.413 227.305C387.901 226.924 389.908 225.973 391.435 224.452C392.96 222.958 393.805 221.067 393.97 218.78C394.084 217.211 393.865 215.791 393.315 214.522C392.792 213.254 391.976 212.152 390.867 211.217C389.783 210.31 388.42 209.569 386.777 208.996C385.159 208.451 383.312 208.104 381.237 207.954C377.115 207.656 373.876 208.264 371.521 209.778C369.19 211.321 367.906 213.741 367.667 217.039C367.475 219.699 368.034 221.945 369.346 223.778C370.655 225.637 372.706 227.042 375.498 227.992L375.371 229.748L364.559 228.966L364.695 227.091L367.887 226.76C365.731 223.664 364.804 220.027 365.106 215.851C365.281 213.431 365.799 211.263 366.659 209.347C367.52 207.43 368.651 205.828 370.055 204.539C371.484 203.252 373.171 202.291 375.116 201.656C377.058 201.048 379.186 200.828 381.5 200.995C383.92 201.17 386.099 201.728 388.036 202.67C389.973 203.612 391.608 204.854 392.94 206.394C394.271 207.96 395.25 209.769 395.877 211.819C396.529 213.899 396.766 216.162 396.589 218.609C396.472 220.231 396.136 221.731 395.582 223.108C395.028 224.485 394.186 225.961 393.056 227.537L395.475 228.474Z" fill="white"/>
<path d="M376.524 251.027C376.03 252.661 375.684 253.991 375.485 255.017C375.286 256.043 375.259 256.871 375.403 257.499C375.565 258.161 375.918 258.7 376.461 259.115C377.004 259.53 377.779 259.959 378.787 260.403L378.359 261.82L367.141 258.428L367.569 257.011C368.636 257.167 369.515 257.21 370.205 257.14C370.894 257.07 371.477 256.8 371.953 256.331C372.455 255.87 372.891 255.166 373.261 254.219C373.648 253.306 374.085 252.045 374.571 250.437L366.684 248.052C365.867 247.805 365.147 247.699 364.524 247.733C363.893 247.793 363.322 248.024 362.81 248.427C362.324 248.837 361.877 249.44 361.469 250.236C361.086 251.04 360.71 252.054 360.34 253.279C359.9 254.734 359.631 255.99 359.535 257.048C359.43 258.13 359.533 259.081 359.843 259.899C360.152 260.717 360.667 261.457 361.386 262.12C362.13 262.791 363.111 263.464 364.328 264.138L363.865 265.67L355.282 262.406L363.131 236.447L364.662 236.91C364.433 237.76 364.301 238.472 364.267 239.047C364.232 239.621 364.326 240.095 364.547 240.469C364.769 240.842 365.145 241.165 365.675 241.437C366.206 241.709 366.918 241.98 367.812 242.25L385.501 247.598C386.394 247.868 387.124 248.033 387.691 248.093C388.276 248.187 388.76 248.152 389.143 247.989C389.552 247.834 389.881 247.53 390.13 247.076C390.397 246.655 390.671 246.069 390.954 245.319L392.485 245.782L385.169 269.98L377.583 267.979L378.081 266.333C379.199 266.504 380.153 266.527 380.943 266.404C381.758 266.288 382.458 265.999 383.044 265.535C383.656 265.079 384.181 264.402 384.62 263.504C385.076 262.639 385.509 261.53 385.918 260.177L387.226 255.851C387.427 255.187 387.461 254.752 387.329 254.544C387.222 254.345 386.862 254.153 386.249 253.967L376.524 251.027Z" fill="white"/>
<defs>
<filter id="filter0_d_3_112" x="91" y="243.444" width="45.3658" height="43.0123" filterUnits="userSpaceOnUse" color-interpolation-filters="sRGB">
<feFlood flood-opacity="0" result="BackgroundImageFix"/>
<feColorMatrix in="SourceAlpha" type="matrix" values="0 0 0 0 0 0 0 0 0 0 0 0 0 0 0 0 0 0 127 0" result="hardAlpha"/>
<feOffset dy="4"/>
<feGaussianBlur stdDeviation="2"/>
<feComposite in2="hardAlpha" operator="out"/>
<feColorMatrix type="matrix" values="0 0 0 0 0 0 0 0 0 0 0 0 0 0 0 0 0 0 0.25 0"/>
<feBlend mode="normal" in2="BackgroundImageFix" result="effect1_dropShadow_3_112"/>
<feBlend mode="normal" in="SourceGraphic" in2="effect1_dropShadow_3_112" result="shape"/>
</filter>
<filter id="filter1_d_3_112" x="127.534" y="211.934" width="35.0289" height="40.4551" filterUnits="userSpaceOnUse" color-interpolation-filters="sRGB">
<feFlood flood-opacity="0" result="BackgroundImageFix"/>
<feColorMatrix in="SourceAlpha" type="matrix" values="0 0 0 0 0 0 0 0 0 0 0 0 0 0 0 0 0 0 127 0" result="hardAlpha"/>
<feOffset dy="4"/>
<feGaussianBlur stdDeviation="2"/>
<feComposite in2="hardAlpha" operator="out"/>
<feColorMatrix type="matrix" values="0 0 0 0 0 0 0 0 0 0 0 0 0 0 0 0 0 0 0.25 0"/>
<feBlend mode="normal" in2="BackgroundImageFix" result="effect1_dropShadow_3_112"/>
<feBlend mode="normal" in="SourceGraphic" in2="effect1_dropShadow_3_112" result="shape"/>
</filter>
<filter id="filter2_d_3_112" x="164.252" y="150.341" width="45.5203" height="51.1005" filterUnits="userSpaceOnUse" color-interpolation-filters="sRGB">
<feFlood flood-opacity="0" result="BackgroundImageFix"/>
<feColorMatrix in="SourceAlpha" type="matrix" values="0 0 0 0 0 0 0 0 0 0 0 0 0 0 0 0 0 0 127 0" result="hardAlpha"/>
<feOffset dy="4"/>
<feGaussianBlur stdDeviation="2"/>
<feComposite in2="hardAlpha" operator="out"/>
<feColorMatrix type="matrix" values="0 0 0 0 0 0 0 0 0 0 0 0 0 0 0 0 0 0 0.25 0"/>
<feBlend mode="normal" in2="BackgroundImageFix" result="effect1_dropShadow_3_112"/>
<feBlend mode="normal" in="SourceGraphic" in2="effect1_dropShadow_3_112" result="shape"/>
</filter>
<filter id="filter3_d_3_112" x="237.043" y="91.9718" width="45.2937" height="51.7261" filterUnits="userSpaceOnUse" color-interpolation-filters="sRGB">
<feFlood flood-opacity="0" result="BackgroundImageFix"/>
<feColorMatrix in="SourceAlpha" type="matrix" values="0 0 0 0 0 0 0 0 0 0 0 0 0 0 0 0 0 0 127 0" result="hardAlpha"/>
<feOffset dy="4"/>
<feGaussianBlur stdDeviation="2"/>
<feComposite in2="hardAlpha" operator="out"/>
<feColorMatrix type="matrix" values="0 0 0 0 0 0 0 0 0 0 0 0 0 0 0 0 0 0 0.25 0"/>
<feBlend mode="normal" in2="BackgroundImageFix" result="effect1_dropShadow_3_112"/>
<feBlend mode="normal" in="SourceGraphic" in2="effect1_dropShadow_3_112" result="shape"/>
</filter>
<filter id="filter4_d_3_112" x="271.698" y="124.605" width="49.8723" height="47.2164" filterUnits="userSpaceOnUse" color-interpolation-filters="sRGB">
<feFlood flood-opacity="0" result="BackgroundImageFix"/>
<feColorMatrix in="SourceAlpha" type="matrix" values="0 0 0 0 0 0 0 0 0 0 0 0 0 0 0 0 0 0 127 0" result="hardAlpha"/>
<feOffset dy="4"/>
<feGaussianBlur stdDeviation="2"/>
<feComposite in2="hardAlpha" operator="out"/>
<feColorMatrix type="matrix" values="0 0 0 0 0 0 0 0 0 0 0 0 0 0 0 0 0 0 0.25 0"/>
<feBlend mode="normal" in2="BackgroundImageFix" result="effect1_dropShadow_3_112"/>
<feBlend mode="normal" in="SourceGraphic" in2="effect1_dropShadow_3_112" result="shape"/>
</filter>
<filter id="filter5_d_3_112" x="236.618" y="149.092" width="45.5203" height="51.1005" filterUnits="userSpaceOnUse" color-interpolation-filters="sRGB">
<feFlood flood-opacity="0" result="BackgroundImageFix"/>
<feColorMatrix in="SourceAlpha" type="matrix" values="0 0 0 0 0 0 0 0 0 0 0 0 0 0 0 0 0 0 127 0" result="hardAlpha"/>
<feOffset dy="4"/>
<feGaussianBlur stdDeviation="2"/>
<feComposite in2="hardAlpha" operator="out"/>
<feColorMatrix type="matrix" values="0 0 0 0 0 0 0 0 0 0 0 0 0 0 0 0 0 0 0.25 0"/>
<feBlend mode="normal" in2="BackgroundImageFix" result="effect1_dropShadow_3_112"/>
<feBlend mode="normal" in="SourceGraphic" in2="effect1_dropShadow_3_112" result="shape"/>
</filter>
<filter id="filter6_d_3_112" x="271.87" y="207.078" width="48.4858" height="49.1728" filterUnits="userSpaceOnUse" color-interpolation-filters="sRGB">
<feFlood flood-opacity="0" result="BackgroundImageFix"/>
<feColorMatrix in="SourceAlpha" type="matrix" values="0 0 0 0 0 0 0 0 0 0 0 0 0 0 0 0 0 0 127 0" result="hardAlpha"/>
<feOffset dy="4"/>
<feGaussianBlur stdDeviation="2"/>
<feComposite in2="hardAlpha" operator="out"/>
<feColorMatrix type="matrix" values="0 0 0 0 0 0 0 0 0 0 0 0 0 0 0 0 0 0 0.25 0"/>
<feBlend mode="normal" in2="BackgroundImageFix" result="effect1_dropShadow_3_112"/>
<feBlend mode="normal" in="SourceGraphic" in2="effect1_dropShadow_3_112" result="shape"/>
</filter>
<filter id="filter7_d_3_112" x="235.453" y="241.123" width="45.5203" height="51.1005" filterUnits="userSpaceOnUse" color-interpolation-filters="sRGB">
<feFlood flood-opacity="0" result="BackgroundImageFix"/>
<feColorMatrix in="SourceAlpha" type="matrix" values="0 0 0 0 0 0 0 0 0 0 0 0 0 0 0 0 0 0 127 0" result="hardAlpha"/>
<feOffset dy="4"/>
<feGaussianBlur stdDeviation="2"/>
<feComposite in2="hardAlpha" operator="out"/>
<feColorMatrix type="matrix" values="0 0 0 0 0 0 0 0 0 0 0 0 0 0 0 0 0 0 0.25 0"/>
<feBlend mode="normal" in2="BackgroundImageFix" result="effect1_dropShadow_3_112"/>
<feBlend mode="normal" in="SourceGraphic" in2="effect1_dropShadow_3_112" result="shape"/>
</filter>
<filter id="filter8_d_3_112" x="199.802" y="193.007" width="42.2585" height="42.8934" filterUnits="userSpaceOnUse" color-interpolation-filters="sRGB">
<feFlood flood-opacity="0" result="BackgroundImageFix"/>
<feColorMatrix in="SourceAlpha" type="matrix" values="0 0 0 0 0 0 0 0 0 0 0 0 0 0 0 0 0 0 127 0" result="hardAlpha"/>
<feOffset dy="4"/>
<feGaussianBlur stdDeviation="2"/>
<feComposite in2="hardAlpha" operator="out"/>
<feColorMatrix type="matrix" values="0 0 0 0 0 0 0 0 0 0 0 0 0 0 0 0 0 0 0.25 0"/>
<feBlend mode="normal" in2="BackgroundImageFix" result="effect1_dropShadow_3_112"/>
<feBlend mode="normal" in="SourceGraphic" in2="effect1_dropShadow_3_112" result="shape"/>
</filter>
<filter id="filter9_d_3_112" x="170.944" y="236.21" width="38.7205" height="44.9827" filterUnits="userSpaceOnUse" color-interpolation-filters="sRGB">
<feFlood flood-opacity="0" result="BackgroundImageFix"/>
<feColorMatrix in="SourceAlpha" type="matrix" values="0 0 0 0 0 0 0 0 0 0 0 0 0 0 0 0 0 0 127 0" result="hardAlpha"/>
<feOffset dy="4"/>
<feGaussianBlur stdDeviation="2"/>
<feComposite in2="hardAlpha" operator="out"/>
<feColorMatrix type="matrix" values="0 0 0 0 0 0 0 0 0 0 0 0 0 0 0 0 0 0 0.25 0"/>
<feBlend mode="normal" in2="BackgroundImageFix" result="effect1_dropShadow_3_112"/>
<feBlend mode="normal" in="SourceGraphic" in2="effect1_dropShadow_3_112" result="shape"/>
</filter>
</defs>
</svg>
