<svg width="547" height="149" viewBox="0 0 547 149" fill="none" xmlns="http://www.w3.org/2000/svg">
<g filter="url(#filter0_d_13_11)">
<path d="M36.8923 39.6944L38.3922 39.694L38.3919 38.1941L38.3893 26.7796L38.3893 26.7795C38.385 12.5163 23.9934 1.50376 6.99956 1.50879L5.49956 1.50923L5.5 3.00923L5.50338 14.4236C5.5076 28.6868 19.8985 39.6994 36.8923 39.6944Z" stroke="#008080" stroke-width="3" shape-rendering="crispEdges"/>
</g>
<g filter="url(#filter1_d_13_11)">
<path d="M39.429 70.7311L39.6123 72.2198L41.101 72.0365L50.5854 70.8691L50.5855 70.8691C62.5327 69.3977 70.4466 56.9917 68.7992 43.615L68.6158 42.1262L67.1271 42.3096L57.6427 43.4776C45.6956 44.9489 37.7816 57.3543 39.429 70.7311Z" stroke="#008080" stroke-width="3"/>
</g>
<g filter="url(#filter2_d_13_11)">
<path d="M13.3502 82.9461L11.8503 82.9513L11.8554 84.4512L11.888 94.0071L11.888 94.0072C11.9298 106.045 23.308 115.376 36.7857 115.329L38.2857 115.324L38.2804 113.824L38.2473 104.268C38.2055 92.2307 26.8279 82.8993 13.3502 82.9461Z" stroke="#008080" stroke-width="3"/>
</g>
<g filter="url(#filter3_d_13_11)">
<rect x="37" y="140.807" width="111.807" height="3.07726" rx="1.53863" transform="rotate(-90 37 140.807)" fill="#008080"/>
</g>
<path d="M102.679 68.9062C102.546 67.6657 101.988 66.6998 101.003 66.0085C100.027 65.3172 98.7585 64.9716 97.196 64.9716C96.0975 64.9716 95.1553 65.1373 94.3693 65.4688C93.5833 65.8002 92.982 66.25 92.5653 66.8182C92.1487 67.3864 91.9356 68.035 91.9261 68.7642C91.9261 69.3703 92.0634 69.8958 92.3381 70.3409C92.6222 70.786 93.0057 71.1648 93.4886 71.4773C93.9716 71.7803 94.5066 72.036 95.0938 72.2443C95.6809 72.4527 96.2727 72.6278 96.8693 72.7699L99.5966 73.4517C100.695 73.7074 101.751 74.053 102.764 74.4886C103.787 74.9242 104.701 75.4735 105.506 76.1364C106.32 76.7992 106.964 77.5994 107.438 78.5369C107.911 79.4744 108.148 80.5729 108.148 81.8324C108.148 83.5369 107.712 85.0379 106.841 86.3352C105.97 87.6231 104.71 88.6316 103.062 89.3608C101.424 90.0805 99.4403 90.4403 97.1108 90.4403C94.8475 90.4403 92.8826 90.09 91.2159 89.3892C89.5587 88.6884 88.2614 87.6657 87.3239 86.321C86.3958 84.9763 85.8939 83.3381 85.8182 81.4062H91.0028C91.0786 82.4195 91.3911 83.2623 91.9403 83.9347C92.4896 84.607 93.2045 85.1089 94.0852 85.4403C94.9754 85.7718 95.9697 85.9375 97.0682 85.9375C98.214 85.9375 99.2178 85.767 100.08 85.4261C100.951 85.0758 101.633 84.5928 102.125 83.9773C102.617 83.3523 102.868 82.6231 102.878 81.7898C102.868 81.0322 102.646 80.4072 102.21 79.9148C101.775 79.4129 101.164 78.9962 100.378 78.6648C99.6013 78.3239 98.6922 78.0208 97.6506 77.7557L94.3409 76.9034C91.9451 76.2879 90.0511 75.3551 88.6591 74.1051C87.2765 72.8456 86.5852 71.1742 86.5852 69.0909C86.5852 67.3769 87.0492 65.8759 87.9773 64.5881C88.9148 63.3002 90.1884 62.3011 91.7983 61.5909C93.4081 60.8712 95.2311 60.5114 97.267 60.5114C99.3314 60.5114 101.14 60.8712 102.693 61.5909C104.256 62.3011 105.482 63.2907 106.372 64.5597C107.262 65.8191 107.722 67.268 107.75 68.9062H102.679ZM112.846 90V60.9091H118.116V73.2244H131.596V60.9091H136.88V90H131.596V77.642H118.116V90H112.846ZM142.612 90V60.9091H153.521C155.755 60.9091 157.63 61.2973 159.146 62.0739C160.67 62.8504 161.821 63.9394 162.597 65.3409C163.383 66.733 163.776 68.357 163.776 70.2131C163.776 72.0786 163.379 73.6979 162.583 75.071C161.797 76.4347 160.637 77.4905 159.103 78.2386C157.569 78.9773 155.684 79.3466 153.45 79.3466H145.68V74.9716H152.739C154.046 74.9716 155.116 74.7917 155.95 74.4318C156.783 74.0625 157.398 73.5275 157.796 72.8267C158.203 72.1165 158.407 71.2453 158.407 70.2131C158.407 69.1809 158.203 68.3002 157.796 67.571C157.389 66.8324 156.769 66.2737 155.935 65.8949C155.102 65.5066 154.027 65.3125 152.711 65.3125H147.881V90H142.612ZM157.64 76.8182L164.842 90H158.961L151.887 76.8182H157.64ZM168.627 90V60.9091H187.548V65.3267H173.897V73.2244H186.567V77.642H173.897V85.5824H187.661V90H168.627ZM196.816 60.9091L204.387 83.8068H204.685L212.242 60.9091H218.038L207.782 90H201.276L191.035 60.9091H196.816ZM221.869 90V60.9091H240.79V65.3267H227.139V73.2244H239.81V77.642H227.139V85.5824H240.903V90H221.869ZM250.3 60.9091V63.8068C250.3 64.6402 250.139 65.5066 249.817 66.4062C249.504 67.2964 249.073 68.1487 248.524 68.9631C247.975 69.768 247.35 70.4593 246.649 71.0369L244.263 69.4886C244.784 68.7027 245.238 67.8551 245.626 66.946C246.015 66.0275 246.209 64.9905 246.209 63.8352V60.9091H250.3ZM270.531 68.9062C270.398 67.6657 269.839 66.6998 268.854 66.0085C267.879 65.3172 266.61 64.9716 265.048 64.9716C263.949 64.9716 263.007 65.1373 262.221 65.4688C261.435 65.8002 260.834 66.25 260.417 66.8182C260 67.3864 259.787 68.035 259.778 68.7642C259.778 69.3703 259.915 69.8958 260.19 70.3409C260.474 70.786 260.857 71.1648 261.34 71.4773C261.823 71.7803 262.358 72.036 262.945 72.2443C263.532 72.4527 264.124 72.6278 264.721 72.7699L267.448 73.4517C268.547 73.7074 269.603 74.053 270.616 74.4886C271.638 74.9242 272.552 75.4735 273.357 76.1364C274.172 76.7992 274.816 77.5994 275.289 78.5369C275.763 79.4744 275.999 80.5729 275.999 81.8324C275.999 83.5369 275.564 85.0379 274.692 86.3352C273.821 87.6231 272.562 88.6316 270.914 89.3608C269.276 90.0805 267.292 90.4403 264.962 90.4403C262.699 90.4403 260.734 90.09 259.067 89.3892C257.41 88.6884 256.113 87.6657 255.175 86.321C254.247 84.9763 253.746 83.3381 253.67 81.4062H258.854C258.93 82.4195 259.243 83.2623 259.792 83.9347C260.341 84.607 261.056 85.1089 261.937 85.4403C262.827 85.7718 263.821 85.9375 264.92 85.9375C266.066 85.9375 267.069 85.767 267.931 85.4261C268.802 85.0758 269.484 84.5928 269.977 83.9773C270.469 83.3523 270.72 82.6231 270.729 81.7898C270.72 81.0322 270.497 80.4072 270.062 79.9148C269.626 79.4129 269.015 78.9962 268.229 78.6648C267.453 78.3239 266.544 78.0208 265.502 77.7557L262.192 76.9034C259.797 76.2879 257.903 75.3551 256.511 74.1051C255.128 72.8456 254.437 71.1742 254.437 69.0909C254.437 67.3769 254.901 65.8759 255.829 64.5881C256.766 63.3002 258.04 62.3011 259.65 61.5909C261.26 60.8712 263.083 60.5114 265.119 60.5114C267.183 60.5114 268.992 60.8712 270.545 61.5909C272.107 62.3011 273.334 63.2907 274.224 64.5597C275.114 65.8191 275.573 67.268 275.602 68.9062H270.531ZM289.341 65.3267V60.9091H312.551V65.3267H303.56V90H298.332V65.3267H289.341ZM317.246 90H311.621L321.862 60.9091H328.368L338.624 90H332.999L325.229 66.875H325.001L317.246 90ZM317.43 78.5938H332.771V82.8267H317.43V78.5938ZM346.859 60.9091L353.265 71.5625H353.492L359.927 60.9091H365.935L356.972 75.4545L366.077 90H359.969L353.492 79.4176H353.265L346.788 90H340.708L349.898 75.4545L340.822 60.9091H346.859ZM395.804 68.9062C395.671 67.6657 395.113 66.6998 394.128 66.0085C393.152 65.3172 391.884 64.9716 390.321 64.9716C389.223 64.9716 388.28 65.1373 387.494 65.4688C386.708 65.8002 386.107 66.25 385.69 66.8182C385.274 67.3864 385.061 68.035 385.051 68.7642C385.051 69.3703 385.188 69.8958 385.463 70.3409C385.747 70.786 386.131 71.1648 386.614 71.4773C387.097 71.7803 387.632 72.036 388.219 72.2443C388.806 72.4527 389.398 72.6278 389.994 72.7699L392.722 73.4517C393.82 73.7074 394.876 74.053 395.889 74.4886C396.912 74.9242 397.826 75.4735 398.631 76.1364C399.445 76.7992 400.089 77.5994 400.562 78.5369C401.036 79.4744 401.273 80.5729 401.273 81.8324C401.273 83.5369 400.837 85.0379 399.966 86.3352C399.095 87.6231 397.835 88.6316 396.188 89.3608C394.549 90.0805 392.565 90.4403 390.236 90.4403C387.973 90.4403 386.008 90.09 384.341 89.3892C382.684 88.6884 381.386 87.6657 380.449 86.321C379.521 84.9763 379.019 83.3381 378.943 81.4062H384.128C384.204 82.4195 384.516 83.2623 385.065 83.9347C385.615 84.607 386.33 85.1089 387.21 85.4403C388.1 85.7718 389.095 85.9375 390.193 85.9375C391.339 85.9375 392.343 85.767 393.205 85.4261C394.076 85.0758 394.758 84.5928 395.25 83.9773C395.742 83.3523 395.993 82.6231 396.003 81.7898C395.993 81.0322 395.771 80.4072 395.335 79.9148C394.9 79.4129 394.289 78.9962 393.503 78.6648C392.726 78.3239 391.817 78.0208 390.776 77.7557L387.466 76.9034C385.07 76.2879 383.176 75.3551 381.784 74.1051C380.402 72.8456 379.71 71.1742 379.71 69.0909C379.71 67.3769 380.174 65.8759 381.102 64.5881C382.04 63.3002 383.313 62.3011 384.923 61.5909C386.533 60.8712 388.356 60.5114 390.392 60.5114C392.456 60.5114 394.265 60.8712 395.818 61.5909C397.381 62.3011 398.607 63.2907 399.497 64.5597C400.387 65.8191 400.847 67.268 400.875 68.9062H395.804ZM405.971 90V60.9091H424.891V65.3267H411.241V73.2244H423.911V77.642H411.241V85.5824H425.005V90H405.971ZM430.268 90V60.9091H441.177C443.412 60.9091 445.287 61.2973 446.802 62.0739C448.326 62.8504 449.477 63.9394 450.254 65.3409C451.04 66.733 451.433 68.357 451.433 70.2131C451.433 72.0786 451.035 73.6979 450.239 75.071C449.453 76.4347 448.293 77.4905 446.759 78.2386C445.225 78.9773 443.341 79.3466 441.106 79.3466H433.336V74.9716H440.396C441.702 74.9716 442.772 74.7917 443.606 74.4318C444.439 74.0625 445.055 73.5275 445.452 72.8267C445.86 72.1165 446.063 71.2453 446.063 70.2131C446.063 69.1809 445.86 68.3002 445.452 67.571C445.045 66.8324 444.425 66.2737 443.592 65.8949C442.758 65.5066 441.683 65.3125 440.367 65.3125H435.538V90H430.268ZM445.296 76.8182L452.498 90H446.617L439.543 76.8182H445.296ZM459.433 60.9091L467.004 83.8068H467.303L474.859 60.9091H480.655L470.399 90H463.893L453.652 60.9091H459.433ZM489.756 60.9091V90H484.487V60.9091H489.756ZM520.364 70.7244H515.051C514.9 69.8532 514.62 69.0814 514.213 68.4091C513.806 67.7273 513.299 67.1496 512.693 66.6761C512.087 66.2027 511.396 65.8475 510.619 65.6108C509.852 65.3646 509.024 65.2415 508.134 65.2415C506.552 65.2415 505.151 65.6392 503.929 66.4347C502.707 67.2206 501.751 68.3759 501.06 69.9006C500.368 71.4157 500.023 73.267 500.023 75.4545C500.023 77.6799 500.368 79.5549 501.06 81.0795C501.76 82.5947 502.717 83.7405 503.929 84.517C505.151 85.2841 506.547 85.6676 508.119 85.6676C508.991 85.6676 509.805 85.554 510.562 85.3267C511.33 85.09 512.016 84.7443 512.622 84.2898C513.238 83.8352 513.754 83.2765 514.17 82.6136C514.597 81.9508 514.89 81.1932 515.051 80.3409L520.364 80.3693C520.165 81.7519 519.734 83.0492 519.071 84.2614C518.418 85.4735 517.561 86.5436 516.5 87.4716C515.439 88.3902 514.199 89.1098 512.778 89.6307C511.358 90.142 509.781 90.3977 508.048 90.3977C505.491 90.3977 503.209 89.8059 501.202 88.6222C499.194 87.4384 497.613 85.7292 496.457 83.4943C495.302 81.2595 494.724 78.5795 494.724 75.4545C494.724 72.3201 495.307 69.6402 496.472 67.4148C497.636 65.1799 499.223 63.4706 501.23 62.2869C503.238 61.1032 505.51 60.5114 508.048 60.5114C509.668 60.5114 511.173 60.7386 512.565 61.1932C513.957 61.6477 515.198 62.3153 516.287 63.196C517.376 64.0672 518.271 65.1373 518.972 66.4062C519.682 67.6657 520.146 69.1051 520.364 70.7244ZM525.19 90V60.9091H544.11V65.3267H530.46V73.2244H543.13V77.642H530.46V85.5824H544.224V90H525.19Z" fill="white"/>
<defs>
<filter id="filter0_d_13_11" x="-0.000915527" y="0.00878906" width="43.8935" height="49.1856" filterUnits="userSpaceOnUse" color-interpolation-filters="sRGB">
<feFlood flood-opacity="0" result="BackgroundImageFix"/>
<feColorMatrix in="SourceAlpha" type="matrix" values="0 0 0 0 0 0 0 0 0 0 0 0 0 0 0 0 0 0 127 0" result="hardAlpha"/>
<feOffset dy="4"/>
<feGaussianBlur stdDeviation="2"/>
<feComposite in2="hardAlpha" operator="out"/>
<feColorMatrix type="matrix" values="0 0 0 0 0 0 0 0 0 0 0 0 0 0 0 0 0 0 0.25 0"/>
<feBlend mode="normal" in2="BackgroundImageFix" result="effect1_dropShadow_13_11"/>
<feBlend mode="normal" in="SourceGraphic" in2="effect1_dropShadow_13_11" result="shape"/>
</filter>
<filter id="filter1_d_13_11" x="33.7143" y="40.4542" width="40.7996" height="41.4376" filterUnits="userSpaceOnUse" color-interpolation-filters="sRGB">
<feFlood flood-opacity="0" result="BackgroundImageFix"/>
<feColorMatrix in="SourceAlpha" type="matrix" values="0 0 0 0 0 0 0 0 0 0 0 0 0 0 0 0 0 0 127 0" result="hardAlpha"/>
<feOffset dy="4"/>
<feGaussianBlur stdDeviation="2"/>
<feComposite in2="hardAlpha" operator="out"/>
<feColorMatrix type="matrix" values="0 0 0 0 0 0 0 0 0 0 0 0 0 0 0 0 0 0 0.25 0"/>
<feBlend mode="normal" in2="BackgroundImageFix" result="effect1_dropShadow_13_11"/>
<feBlend mode="normal" in="SourceGraphic" in2="effect1_dropShadow_13_11" result="shape"/>
</filter>
<filter id="filter2_d_13_11" x="6.34521" y="81.4459" width="37.4456" height="43.3835" filterUnits="userSpaceOnUse" color-interpolation-filters="sRGB">
<feFlood flood-opacity="0" result="BackgroundImageFix"/>
<feColorMatrix in="SourceAlpha" type="matrix" values="0 0 0 0 0 0 0 0 0 0 0 0 0 0 0 0 0 0 127 0" result="hardAlpha"/>
<feOffset dy="4"/>
<feGaussianBlur stdDeviation="2"/>
<feComposite in2="hardAlpha" operator="out"/>
<feColorMatrix type="matrix" values="0 0 0 0 0 0 0 0 0 0 0 0 0 0 0 0 0 0 0.25 0"/>
<feBlend mode="normal" in2="BackgroundImageFix" result="effect1_dropShadow_13_11"/>
<feBlend mode="normal" in="SourceGraphic" in2="effect1_dropShadow_13_11" result="shape"/>
</filter>
<filter id="filter3_d_13_11" x="33" y="29" width="11.0773" height="119.807" filterUnits="userSpaceOnUse" color-interpolation-filters="sRGB">
<feFlood flood-opacity="0" result="BackgroundImageFix"/>
<feColorMatrix in="SourceAlpha" type="matrix" values="0 0 0 0 0 0 0 0 0 0 0 0 0 0 0 0 0 0 127 0" result="hardAlpha"/>
<feOffset dy="4"/>
<feGaussianBlur stdDeviation="2"/>
<feComposite in2="hardAlpha" operator="out"/>
<feColorMatrix type="matrix" values="0 0 0 0 0 0 0 0 0 0 0 0 0 0 0 0 0 0 0.25 0"/>
<feBlend mode="normal" in2="BackgroundImageFix" result="effect1_dropShadow_13_11"/>
<feBlend mode="normal" in="SourceGraphic" in2="effect1_dropShadow_13_11" result="shape"/>
</filter>
</defs>
</svg>
