<svg width="304" height="152" viewBox="0 0 304 152" fill="none" xmlns="http://www.w3.org/2000/svg">
<g filter="url(#filter0_d_3_110)">
<path d="M36.8923 39.6945L38.3922 39.694L38.3919 38.1941L38.3893 26.7797L38.3893 26.7796C38.385 12.5163 23.9934 1.50382 6.99956 1.50885L5.49956 1.50929L5.5 3.00929L5.50338 14.4237C5.5076 28.6869 19.8985 39.6995 36.8923 39.6945Z" stroke="#008080" stroke-width="3" shape-rendering="crispEdges"/>
</g>
<g filter="url(#filter1_d_3_110)">
<path d="M39.429 70.7311L39.6123 72.2198L41.101 72.0365L50.5854 70.8691L50.5855 70.8691C62.5327 69.3977 70.4466 56.9917 68.7992 43.615L68.6158 42.1262L67.1271 42.3096L57.6427 43.4776C45.6956 44.9489 37.7816 57.3543 39.429 70.7311Z" stroke="#008080" stroke-width="3"/>
</g>
<g filter="url(#filter2_d_3_110)">
<path d="M13.3502 82.9461L11.8503 82.9513L11.8554 84.4512L11.888 94.0071L11.888 94.0072C11.9298 106.045 23.308 115.376 36.7856 115.329L38.2856 115.324L38.2804 113.824L38.2473 104.268C38.2055 92.2307 26.8279 82.8993 13.3502 82.9461Z" stroke="#008080" stroke-width="3"/>
</g>
<g filter="url(#filter3_d_3_110)">
<rect x="37" y="140.807" width="111.807" height="3.07726" rx="1.53863" transform="rotate(-90 37 140.807)" fill="#008080"/>
</g>
<path d="M86.32 31.6H87.8C87.9867 32.8 88.3333 33.88 88.84 34.84C89.3733 35.8 90.0267 36.6133 90.8 37.28C91.6 37.9467 92.5067 38.4667 93.52 38.84C94.56 39.1867 95.68 39.36 96.88 39.36C98.8533 39.36 100.413 38.8933 101.56 37.96C102.707 37.0267 103.28 35.76 103.28 34.16C103.28 33.4933 103.16 32.88 102.92 32.32C102.707 31.76 102.333 31.2267 101.8 30.72C101.267 30.1867 100.547 29.6667 99.64 29.16C98.76 28.6533 97.64 28.1067 96.28 27.52C94.6267 26.8 93.24 26.1067 92.12 25.44C91 24.7733 90.1067 24.08 89.44 23.36C88.7733 22.64 88.2933 21.88 88 21.08C87.7333 20.2533 87.6 19.32 87.6 18.28C87.6 17.0533 87.8133 15.92 88.24 14.88C88.6933 13.84 89.32 12.9467 90.12 12.2C90.92 11.4267 91.8667 10.84 92.96 10.44C94.0533 10.0133 95.2533 9.8 96.56 9.8C97.7333 9.8 98.8267 9.98667 99.84 10.36C100.853 10.7333 101.88 11.3333 102.92 12.16L103.96 10.36H104.88L105.32 18.32H103.84C103.2 16.1333 102.267 14.5067 101.04 13.44C99.84 12.3733 98.3867 11.84 96.68 11.84C95.0533 11.84 93.76 12.24 92.8 13.04C91.84 13.84 91.36 14.92 91.36 16.28C91.36 16.92 91.4667 17.5067 91.68 18.04C91.8933 18.5467 92.24 19.04 92.72 19.52C93.2 19.9733 93.8267 20.44 94.6 20.92C95.3733 21.3733 96.3333 21.8533 97.48 22.36C99.4533 23.24 101.093 24.0667 102.4 24.84C103.707 25.5867 104.747 26.3467 105.52 27.12C106.293 27.8667 106.84 28.6667 107.16 29.52C107.48 30.3467 107.64 31.28 107.64 32.32C107.64 33.6533 107.373 34.88 106.84 36C106.307 37.12 105.56 38.08 104.6 38.88C103.64 39.68 102.493 40.3067 101.16 40.76C99.8267 41.1867 98.36 41.4 96.76 41.4C95.24 41.4 93.8667 41.1867 92.64 40.76C91.44 40.3333 90.2133 39.6133 88.96 38.6L87.84 40.56H86.92L86.32 31.6ZM140.581 34.64C140.581 35.6533 140.635 36.48 140.741 37.12C140.848 37.7333 141.048 38.2133 141.341 38.56C141.661 38.88 142.101 39.1067 142.661 39.24C143.248 39.3733 144.008 39.4533 144.941 39.48V41H131.981V39.48C132.915 39.4533 133.661 39.3733 134.221 39.24C134.808 39.1067 135.261 38.88 135.581 38.56C135.901 38.24 136.115 37.7867 136.221 37.2C136.328 36.6133 136.381 35.8533 136.381 34.92V26.24H120.181V34.64C120.181 35.6533 120.235 36.48 120.341 37.12C120.448 37.7333 120.648 38.2133 120.941 38.56C121.261 38.88 121.701 39.1067 122.261 39.24C122.848 39.3733 123.608 39.4533 124.541 39.48V41H111.581V39.48C112.515 39.4533 113.261 39.3733 113.821 39.24C114.408 39.1067 114.861 38.88 115.181 38.56C115.501 38.24 115.715 37.7867 115.821 37.2C115.928 36.6133 115.981 35.8533 115.981 34.92V16.28C115.981 15.3467 115.928 14.6 115.821 14.04C115.741 13.4533 115.555 13 115.261 12.68C114.995 12.3333 114.595 12.1067 114.061 12C113.528 11.8667 112.835 11.7733 111.981 11.72V10.2H124.141V11.72C123.288 11.7467 122.595 11.8267 122.061 11.96C121.555 12.0933 121.155 12.3333 120.861 12.68C120.595 13.0267 120.408 13.5067 120.301 14.12C120.221 14.7333 120.181 15.5467 120.181 16.56V24.24H136.381V16.28C136.381 15.3467 136.328 14.6 136.221 14.04C136.141 13.4533 135.955 13 135.661 12.68C135.395 12.3333 134.995 12.1067 134.461 12C133.928 11.8667 133.235 11.7733 132.381 11.72V10.2H144.541V11.72C143.688 11.7467 142.995 11.8267 142.461 11.96C141.955 12.0933 141.555 12.3333 141.261 12.68C140.995 13.0267 140.808 13.5067 140.701 14.12C140.621 14.7333 140.581 15.5467 140.581 16.56V34.64ZM173.093 17.92C173.093 20.0533 172.453 21.8267 171.173 23.24C169.893 24.6533 167.853 25.6 165.053 26.08L173.893 36.72C174.613 37.6 175.4 38.24 176.253 38.64C177.133 39.0133 178.173 39.2933 179.373 39.48V41H171.653L161.853 28.44C161.507 27.9867 161.173 27.6267 160.853 27.36C160.56 27.0933 160.24 26.8933 159.893 26.76C159.573 26.6 159.187 26.5067 158.733 26.48C158.307 26.4267 157.787 26.4 157.173 26.4V34.72C157.173 35.7067 157.227 36.52 157.333 37.16C157.467 37.7733 157.72 38.2533 158.093 38.6C158.493 38.9467 159.053 39.1867 159.773 39.32C160.52 39.4267 161.493 39.48 162.693 39.48V41H148.573V39.48C149.507 39.4533 150.253 39.3733 150.813 39.24C151.4 39.1067 151.853 38.88 152.173 38.56C152.493 38.24 152.707 37.7867 152.813 37.2C152.92 36.6133 152.973 35.8533 152.973 34.92V16.28C152.973 15.3467 152.92 14.6 152.813 14.04C152.733 13.4533 152.547 13 152.253 12.68C151.987 12.3333 151.587 12.1067 151.053 12C150.52 11.8667 149.827 11.7733 148.973 11.72V10.2H161.533C165.213 10.2 168.053 10.88 170.053 12.24C172.08 13.6 173.093 15.4933 173.093 17.92ZM157.173 24.4H160.013C162.68 24.4 164.653 23.92 165.933 22.96C167.24 21.9733 167.893 20.36 167.893 18.12C167.893 15.96 167.373 14.4133 166.333 13.48C165.32 12.5467 163.72 12.08 161.533 12.08H157.853C157.4 12.08 157.173 12.3067 157.173 12.76V24.4ZM188.697 24.08C190.137 24.08 191.337 24 192.297 23.84C193.284 23.6533 194.057 23.3733 194.617 23C195.204 22.6267 195.617 22.1467 195.857 21.56C196.124 20.9733 196.257 20.28 196.257 19.48H197.657V30.4H196.257C196.257 29.6 196.137 28.9067 195.897 28.32C195.684 27.7333 195.284 27.2533 194.697 26.88C194.137 26.48 193.364 26.1867 192.377 26C191.417 25.7867 190.19 25.68 188.697 25.68V34.72C188.697 35.6 188.804 36.3333 189.017 36.92C189.23 37.48 189.59 37.9467 190.097 38.32C190.63 38.6667 191.324 38.92 192.177 39.08C193.03 39.2133 194.084 39.28 195.337 39.28C196.75 39.28 197.95 39.1867 198.937 39C199.924 38.7867 200.75 38.44 201.417 37.96C202.084 37.48 202.617 36.8533 203.017 36.08C203.417 35.28 203.75 34.2933 204.017 33.12H205.537L204.937 41H180.097V39.48C181.03 39.4533 181.777 39.3733 182.337 39.24C182.924 39.1067 183.377 38.88 183.697 38.56C184.017 38.24 184.23 37.7867 184.337 37.2C184.444 36.6133 184.497 35.8533 184.497 34.92V16.28C184.497 15.3467 184.444 14.6 184.337 14.04C184.257 13.4533 184.07 13 183.777 12.68C183.51 12.3333 183.11 12.1067 182.577 12C182.044 11.8667 181.35 11.7733 180.497 11.72V10.2H203.617L203.977 17.24H202.577C202.417 16.1733 202.15 15.3067 201.777 14.64C201.43 13.9467 200.937 13.4 200.297 13C199.684 12.6 198.897 12.32 197.937 12.16C196.977 12 195.817 11.92 194.457 11.92H189.377C188.924 11.92 188.697 12.1467 188.697 12.6V24.08ZM224.28 34.88L231.32 17.52C231.72 16.5333 232 15.76 232.16 15.2C232.32 14.64 232.4 14.1333 232.4 13.68C232.4 12.96 232.174 12.4533 231.72 12.16C231.294 11.8667 230.48 11.72 229.28 11.72V10.2H239V11.72C238.387 11.8 237.854 11.9067 237.4 12.04C236.974 12.1733 236.587 12.36 236.24 12.6C235.92 12.84 235.627 13.16 235.36 13.56C235.12 13.9333 234.88 14.4 234.64 14.96L223.8 41.4H222.4L212.08 16.48C211.734 15.68 211.387 14.9867 211.04 14.4C210.72 13.8133 210.36 13.3333 209.96 12.96C209.56 12.5867 209.107 12.3067 208.6 12.12C208.094 11.9333 207.494 11.8133 206.8 11.76V10.2H219.84V11.76C219.094 11.76 218.48 11.8 218 11.88C217.547 11.9333 217.187 12.04 216.92 12.2C216.654 12.3333 216.467 12.5067 216.36 12.72C216.254 12.9333 216.2 13.1733 216.2 13.44C216.2 13.8133 216.267 14.2533 216.4 14.76C216.534 15.24 216.787 15.9467 217.16 16.88L224.28 34.88ZM249.088 24.08C250.528 24.08 251.728 24 252.688 23.84C253.674 23.6533 254.448 23.3733 255.008 23C255.594 22.6267 256.008 22.1467 256.248 21.56C256.514 20.9733 256.648 20.28 256.648 19.48H258.048V30.4H256.648C256.648 29.6 256.528 28.9067 256.288 28.32C256.074 27.7333 255.674 27.2533 255.088 26.88C254.528 26.48 253.754 26.1867 252.768 26C251.808 25.7867 250.581 25.68 249.088 25.68V34.72C249.088 35.6 249.194 36.3333 249.408 36.92C249.621 37.48 249.981 37.9467 250.488 38.32C251.021 38.6667 251.714 38.92 252.568 39.08C253.421 39.2133 254.474 39.28 255.728 39.28C257.141 39.28 258.341 39.1867 259.328 39C260.314 38.7867 261.141 38.44 261.808 37.96C262.474 37.48 263.008 36.8533 263.408 36.08C263.808 35.28 264.141 34.2933 264.408 33.12H265.928L265.328 41H240.488V39.48C241.421 39.4533 242.168 39.3733 242.728 39.24C243.314 39.1067 243.768 38.88 244.088 38.56C244.408 38.24 244.621 37.7867 244.728 37.2C244.834 36.6133 244.888 35.8533 244.888 34.92V16.28C244.888 15.3467 244.834 14.6 244.728 14.04C244.648 13.4533 244.461 13 244.168 12.68C243.901 12.3333 243.501 12.1067 242.968 12C242.434 11.8667 241.741 11.7733 240.888 11.72V10.2H264.008L264.368 17.24H262.968C262.808 16.1733 262.541 15.3067 262.168 14.64C261.821 13.9467 261.328 13.4 260.688 13C260.074 12.6 259.288 12.32 258.328 12.16C257.368 12 256.208 11.92 254.848 11.92H249.768C249.314 11.92 249.088 12.1467 249.088 12.6V24.08ZM270.271 17.56C271.498 16.6267 272.364 15.7467 272.871 14.92C273.404 14.0667 273.671 13.1333 273.671 12.12C273.324 12.3333 272.924 12.44 272.471 12.44C271.858 12.44 271.351 12.24 270.951 11.84C270.578 11.4133 270.391 10.88 270.391 10.24C270.391 9.52 270.631 8.93333 271.111 8.48C271.618 8.02667 272.284 7.8 273.111 7.8C275.004 7.8 275.951 9.05333 275.951 11.56C275.951 12.2533 275.871 12.88 275.711 13.44C275.551 14 275.284 14.56 274.911 15.12C274.564 15.6533 274.084 16.2133 273.471 16.8C272.858 17.36 272.098 17.9733 271.191 18.64L270.271 17.56ZM280.187 31.6H281.667C281.854 32.8 282.201 33.88 282.707 34.84C283.241 35.8 283.894 36.6133 284.667 37.28C285.467 37.9467 286.374 38.4667 287.387 38.84C288.427 39.1867 289.547 39.36 290.747 39.36C292.721 39.36 294.281 38.8933 295.427 37.96C296.574 37.0267 297.147 35.76 297.147 34.16C297.147 33.4933 297.027 32.88 296.787 32.32C296.574 31.76 296.201 31.2267 295.667 30.72C295.134 30.1867 294.414 29.6667 293.507 29.16C292.627 28.6533 291.507 28.1067 290.147 27.52C288.494 26.8 287.107 26.1067 285.987 25.44C284.867 24.7733 283.974 24.08 283.307 23.36C282.641 22.64 282.161 21.88 281.867 21.08C281.601 20.2533 281.467 19.32 281.467 18.28C281.467 17.0533 281.681 15.92 282.107 14.88C282.561 13.84 283.187 12.9467 283.987 12.2C284.787 11.4267 285.734 10.84 286.827 10.44C287.921 10.0133 289.121 9.8 290.427 9.8C291.601 9.8 292.694 9.98667 293.707 10.36C294.721 10.7333 295.747 11.3333 296.787 12.16L297.827 10.36H298.747L299.187 18.32H297.707C297.067 16.1333 296.134 14.5067 294.907 13.44C293.707 12.3733 292.254 11.84 290.547 11.84C288.921 11.84 287.627 12.24 286.667 13.04C285.707 13.84 285.227 14.92 285.227 16.28C285.227 16.92 285.334 17.5067 285.547 18.04C285.761 18.5467 286.107 19.04 286.587 19.52C287.067 19.9733 287.694 20.44 288.467 20.92C289.241 21.3733 290.201 21.8533 291.347 22.36C293.321 23.24 294.961 24.0667 296.267 24.84C297.574 25.5867 298.614 26.3467 299.387 27.12C300.161 27.8667 300.707 28.6667 301.027 29.52C301.347 30.3467 301.507 31.28 301.507 32.32C301.507 33.6533 301.241 34.88 300.707 36C300.174 37.12 299.427 38.08 298.467 38.88C297.507 39.68 296.361 40.3067 295.027 40.76C293.694 41.1867 292.227 41.4 290.627 41.4C289.107 41.4 287.734 41.1867 286.507 40.76C285.307 40.3333 284.081 39.6133 282.827 38.6L281.707 40.56H280.787L280.187 31.6ZM115.44 67.84H113.8C113.72 66.6933 113.533 65.7333 113.24 64.96C112.947 64.1867 112.52 63.5867 111.96 63.16C111.427 62.7067 110.747 62.3867 109.92 62.2C109.093 62.0133 108.107 61.92 106.96 61.92C105.973 61.92 105.173 61.9467 104.56 62C103.973 62.0267 103.52 62.0933 103.2 62.2C102.88 62.3067 102.667 62.44 102.56 62.6C102.48 62.7333 102.44 62.92 102.44 63.16V84.56C102.44 85.4133 102.493 86.1467 102.6 86.76C102.733 87.3733 102.973 87.88 103.32 88.28C103.693 88.6533 104.213 88.9467 104.88 89.16C105.573 89.3467 106.48 89.4533 107.6 89.48V91H92.48V89.48C93.6 89.4533 94.5067 89.3467 95.2 89.16C95.8933 88.9467 96.4133 88.6533 96.76 88.28C97.1333 87.88 97.3733 87.3733 97.48 86.76C97.6133 86.1467 97.68 85.4133 97.68 84.56V63.16C97.68 62.92 97.6267 62.7333 97.52 62.6C97.44 62.44 97.2533 62.3067 96.96 62.2C96.6933 62.0933 96.3067 62.0267 95.8 62C95.2933 61.9467 94.6133 61.92 93.76 61.92C92.72 61.92 91.7467 61.96 90.84 62.04C89.96 62.12 89.1867 62.36 88.52 62.76C87.88 63.1333 87.36 63.72 86.96 64.52C86.56 65.32 86.3467 66.4267 86.32 67.84H84.84V60.2H115.04L115.44 67.84ZM132.7 79.84H122.02C121.566 80.9333 121.18 81.9067 120.86 82.76C120.54 83.5867 120.273 84.3067 120.06 84.92C119.873 85.5333 119.74 86.0533 119.66 86.48C119.58 86.9067 119.54 87.2533 119.54 87.52C119.54 88.2667 119.78 88.7867 120.26 89.08C120.74 89.3467 121.54 89.48 122.66 89.48V91H112.94V89.48C113.553 89.4 114.073 89.2933 114.5 89.16C114.953 89.0267 115.34 88.84 115.66 88.6C116.006 88.36 116.3 88.0533 116.54 87.68C116.806 87.28 117.06 86.8 117.3 86.24L127.7 60.2H129.42L138.5 82.76C139.113 84.2533 139.646 85.4533 140.1 86.36C140.553 87.24 140.993 87.9067 141.42 88.36C141.846 88.8133 142.3 89.1067 142.78 89.24C143.286 89.3733 143.886 89.44 144.58 89.44V91H131.54V89.44C132.953 89.44 133.926 89.3067 134.46 89.04C134.993 88.7733 135.26 88.3333 135.26 87.72C135.26 87.4533 135.246 87.2133 135.22 87C135.193 86.76 135.14 86.5067 135.06 86.24C135.006 85.9733 134.913 85.68 134.78 85.36C134.673 85.0133 134.526 84.6133 134.34 84.16L132.7 79.84ZM122.82 77.84H131.94L127.5 66.04L122.82 77.84ZM171.878 86.64C173.265 88.5333 174.958 89.48 176.958 89.48V91H163.318V89.48C164.518 89.48 165.331 89.3733 165.758 89.16C166.211 88.92 166.438 88.6 166.438 88.2C166.438 88.0133 166.411 87.8267 166.358 87.64C166.331 87.4267 166.238 87.1733 166.078 86.88C165.945 86.5867 165.745 86.2267 165.478 85.8C165.211 85.3733 164.851 84.8133 164.398 84.12L159.838 77.32L156.398 81.64C155.571 82.68 154.878 83.5733 154.318 84.32C153.758 85.0667 153.305 85.7067 152.958 86.24C152.638 86.7733 152.398 87.2133 152.238 87.56C152.105 87.9067 152.038 88.2 152.038 88.44C152.038 88.84 152.265 89.12 152.718 89.28C153.171 89.4133 154.025 89.48 155.278 89.48V91H144.158V89.48C144.798 89.48 145.371 89.4133 145.878 89.28C146.411 89.1467 146.931 88.9333 147.438 88.64C147.945 88.32 148.451 87.9067 148.958 87.4C149.491 86.8667 150.065 86.2133 150.678 85.44L158.518 75.44L150.398 64.36C149.731 63.4267 148.985 62.76 148.158 62.36C147.331 61.9333 146.345 61.72 145.198 61.72V60.2H158.478V61.72C156.745 61.72 155.878 62.24 155.878 63.28C155.878 63.9467 156.251 64.8267 156.998 65.92L161.358 72.4L165.278 67.44C166.025 66.5067 166.545 65.7467 166.838 65.16C167.131 64.5733 167.278 64.0133 167.278 63.48C167.278 62.8133 167.051 62.36 166.598 62.12C166.171 61.8533 165.398 61.72 164.278 61.72V60.2H175.278V61.72C174.638 61.72 174.078 61.7733 173.598 61.88C173.145 61.96 172.705 62.1467 172.278 62.44C171.851 62.7333 171.385 63.16 170.878 63.72C170.371 64.28 169.758 65.0267 169.038 65.96L162.678 74.16L171.878 86.64ZM86.32 131.6H87.8C87.9867 132.8 88.3333 133.88 88.84 134.84C89.3733 135.8 90.0267 136.613 90.8 137.28C91.6 137.947 92.5067 138.467 93.52 138.84C94.56 139.187 95.68 139.36 96.88 139.36C98.8533 139.36 100.413 138.893 101.56 137.96C102.707 137.027 103.28 135.76 103.28 134.16C103.28 133.493 103.16 132.88 102.92 132.32C102.707 131.76 102.333 131.227 101.8 130.72C101.267 130.187 100.547 129.667 99.64 129.16C98.76 128.653 97.64 128.107 96.28 127.52C94.6267 126.8 93.24 126.107 92.12 125.44C91 124.773 90.1067 124.08 89.44 123.36C88.7733 122.64 88.2933 121.88 88 121.08C87.7333 120.253 87.6 119.32 87.6 118.28C87.6 117.053 87.8133 115.92 88.24 114.88C88.6933 113.84 89.32 112.947 90.12 112.2C90.92 111.427 91.8667 110.84 92.96 110.44C94.0533 110.013 95.2533 109.8 96.56 109.8C97.7333 109.8 98.8267 109.987 99.84 110.36C100.853 110.733 101.88 111.333 102.92 112.16L103.96 110.36H104.88L105.32 118.32H103.84C103.2 116.133 102.267 114.507 101.04 113.44C99.84 112.373 98.3867 111.84 96.68 111.84C95.0533 111.84 93.76 112.24 92.8 113.04C91.84 113.84 91.36 114.92 91.36 116.28C91.36 116.92 91.4667 117.507 91.68 118.04C91.8933 118.547 92.24 119.04 92.72 119.52C93.2 119.973 93.8267 120.44 94.6 120.92C95.3733 121.373 96.3333 121.853 97.48 122.36C99.4533 123.24 101.093 124.067 102.4 124.84C103.707 125.587 104.747 126.347 105.52 127.12C106.293 127.867 106.84 128.667 107.16 129.52C107.48 130.347 107.64 131.28 107.64 132.32C107.64 133.653 107.373 134.88 106.84 136C106.307 137.12 105.56 138.08 104.6 138.88C103.64 139.68 102.493 140.307 101.16 140.76C99.8267 141.187 98.36 141.4 96.76 141.4C95.24 141.4 93.8667 141.187 92.64 140.76C91.44 140.333 90.2133 139.613 88.96 138.6L87.84 140.56H86.92L86.32 131.6ZM120.181 124.08C121.621 124.08 122.821 124 123.781 123.84C124.768 123.653 125.541 123.373 126.101 123C126.688 122.627 127.101 122.147 127.341 121.56C127.608 120.973 127.741 120.28 127.741 119.48H129.141V130.4H127.741C127.741 129.6 127.621 128.907 127.381 128.32C127.168 127.733 126.768 127.253 126.181 126.88C125.621 126.48 124.848 126.187 123.861 126C122.901 125.787 121.675 125.68 120.181 125.68V134.72C120.181 135.6 120.288 136.333 120.501 136.92C120.715 137.48 121.075 137.947 121.581 138.32C122.115 138.667 122.808 138.92 123.661 139.08C124.515 139.213 125.568 139.28 126.821 139.28C128.235 139.28 129.435 139.187 130.421 139C131.408 138.787 132.235 138.44 132.901 137.96C133.568 137.48 134.101 136.853 134.501 136.08C134.901 135.28 135.235 134.293 135.501 133.12H137.021L136.421 141H111.581V139.48C112.515 139.453 113.261 139.373 113.821 139.24C114.408 139.107 114.861 138.88 115.181 138.56C115.501 138.24 115.715 137.787 115.821 137.2C115.928 136.613 115.981 135.853 115.981 134.92V116.28C115.981 115.347 115.928 114.6 115.821 114.04C115.741 113.453 115.555 113 115.261 112.68C114.995 112.333 114.595 112.107 114.061 112C113.528 111.867 112.835 111.773 111.981 111.72V110.2H135.101L135.461 117.24H134.061C133.901 116.173 133.635 115.307 133.261 114.64C132.915 113.947 132.421 113.4 131.781 113C131.168 112.6 130.381 112.32 129.421 112.16C128.461 112 127.301 111.92 125.941 111.92H120.861C120.408 111.92 120.181 112.147 120.181 112.6V124.08ZM165.125 117.92C165.125 120.053 164.485 121.827 163.205 123.24C161.925 124.653 159.885 125.6 157.085 126.08L165.925 136.72C166.645 137.6 167.431 138.24 168.285 138.64C169.165 139.013 170.205 139.293 171.405 139.48V141H163.685L153.885 128.44C153.538 127.987 153.205 127.627 152.885 127.36C152.591 127.093 152.271 126.893 151.925 126.76C151.605 126.6 151.218 126.507 150.765 126.48C150.338 126.427 149.818 126.4 149.205 126.4V134.72C149.205 135.707 149.258 136.52 149.365 137.16C149.498 137.773 149.751 138.253 150.125 138.6C150.525 138.947 151.085 139.187 151.805 139.32C152.551 139.427 153.525 139.48 154.725 139.48V141H140.605V139.48C141.538 139.453 142.285 139.373 142.845 139.24C143.431 139.107 143.885 138.88 144.205 138.56C144.525 138.24 144.738 137.787 144.845 137.2C144.951 136.613 145.005 135.853 145.005 134.92V116.28C145.005 115.347 144.951 114.6 144.845 114.04C144.765 113.453 144.578 113 144.285 112.68C144.018 112.333 143.618 112.107 143.085 112C142.551 111.867 141.858 111.773 141.005 111.72V110.2H153.565C157.245 110.2 160.085 110.88 162.085 112.24C164.111 113.6 165.125 115.493 165.125 117.92ZM149.205 124.4H152.045C154.711 124.4 156.685 123.92 157.965 122.96C159.271 121.973 159.925 120.36 159.925 118.12C159.925 115.96 159.405 114.413 158.365 113.48C157.351 112.547 155.751 112.08 153.565 112.08H149.885C149.431 112.08 149.205 112.307 149.205 112.76V124.4ZM185.413 134.88L192.453 117.52C192.853 116.533 193.133 115.76 193.293 115.2C193.453 114.64 193.533 114.133 193.533 113.68C193.533 112.96 193.306 112.453 192.853 112.16C192.426 111.867 191.613 111.72 190.413 111.72V110.2H200.133V111.72C199.52 111.8 198.986 111.907 198.533 112.04C198.106 112.173 197.72 112.36 197.373 112.6C197.053 112.84 196.76 113.16 196.493 113.56C196.253 113.933 196.013 114.4 195.773 114.96L184.933 141.4H183.533L173.213 116.48C172.866 115.68 172.52 114.987 172.173 114.4C171.853 113.813 171.493 113.333 171.093 112.96C170.693 112.587 170.24 112.307 169.733 112.12C169.226 111.933 168.626 111.813 167.933 111.76V110.2H180.973V111.76C180.226 111.76 179.613 111.8 179.133 111.88C178.68 111.933 178.32 112.04 178.053 112.2C177.786 112.333 177.6 112.507 177.493 112.72C177.386 112.933 177.333 113.173 177.333 113.44C177.333 113.813 177.4 114.253 177.533 114.76C177.666 115.24 177.92 115.947 178.293 116.88L185.413 134.88ZM210.22 133.44C210.22 134.773 210.274 135.827 210.38 136.6C210.487 137.373 210.687 137.973 210.98 138.4C211.3 138.827 211.74 139.107 212.3 139.24C212.887 139.373 213.647 139.453 214.58 139.48V141H201.62V139.48C202.554 139.453 203.3 139.373 203.86 139.24C204.447 139.08 204.9 138.8 205.22 138.4C205.54 138 205.754 137.44 205.86 136.72C205.967 135.973 206.02 134.973 206.02 133.72V117.48C206.02 116.36 205.967 115.44 205.86 114.72C205.78 113.973 205.594 113.387 205.3 112.96C205.034 112.533 204.634 112.24 204.1 112.08C203.567 111.893 202.874 111.773 202.02 111.72V110.2H214.18V111.72C213.327 111.747 212.634 111.853 212.1 112.04C211.594 112.227 211.194 112.547 210.9 113C210.634 113.427 210.447 114.027 210.34 114.8C210.26 115.573 210.22 116.56 210.22 117.76V133.44ZM243.552 110.2H244.672L245.032 119.4H243.552C242.966 117.053 241.832 115.213 240.152 113.88C238.472 112.547 236.446 111.88 234.072 111.88C232.446 111.88 230.992 112.2 229.712 112.84C228.432 113.48 227.352 114.4 226.472 115.6C225.592 116.8 224.912 118.267 224.432 120C223.979 121.733 223.752 123.693 223.752 125.88C223.752 130.173 224.646 133.48 226.432 135.8C228.219 138.093 230.806 139.24 234.192 139.24C239.339 139.24 242.646 136.507 244.112 131.04H245.752V141H244.352L243.432 137.84C240.632 140.213 237.246 141.4 233.272 141.4C231.006 141.4 228.952 141.04 227.112 140.32C225.299 139.6 223.739 138.587 222.432 137.28C221.152 135.947 220.152 134.333 219.432 132.44C218.739 130.547 218.392 128.44 218.392 126.12C218.392 123.693 218.766 121.48 219.512 119.48C220.259 117.48 221.299 115.76 222.632 114.32C223.992 112.88 225.606 111.773 227.472 111C229.366 110.2 231.446 109.8 233.712 109.8C235.312 109.8 236.819 110.027 238.232 110.48C239.646 110.933 241.179 111.667 242.832 112.68L243.552 110.2ZM258.463 124.08C259.903 124.08 261.103 124 262.063 123.84C263.049 123.653 263.823 123.373 264.383 123C264.969 122.627 265.383 122.147 265.623 121.56C265.889 120.973 266.023 120.28 266.023 119.48H267.423V130.4H266.023C266.023 129.6 265.903 128.907 265.663 128.32C265.449 127.733 265.049 127.253 264.463 126.88C263.903 126.48 263.129 126.187 262.143 126C261.183 125.787 259.956 125.68 258.463 125.68V134.72C258.463 135.6 258.569 136.333 258.783 136.92C258.996 137.48 259.356 137.947 259.863 138.32C260.396 138.667 261.089 138.92 261.943 139.08C262.796 139.213 263.849 139.28 265.103 139.28C266.516 139.28 267.716 139.187 268.703 139C269.689 138.787 270.516 138.44 271.183 137.96C271.849 137.48 272.383 136.853 272.783 136.08C273.183 135.28 273.516 134.293 273.783 133.12H275.303L274.703 141H249.863V139.48C250.796 139.453 251.543 139.373 252.103 139.24C252.689 139.107 253.143 138.88 253.463 138.56C253.783 138.24 253.996 137.787 254.103 137.2C254.209 136.613 254.263 135.853 254.263 134.92V116.28C254.263 115.347 254.209 114.6 254.103 114.04C254.023 113.453 253.836 113 253.543 112.68C253.276 112.333 252.876 112.107 252.343 112C251.809 111.867 251.116 111.773 250.263 111.72V110.2H273.383L273.743 117.24H272.343C272.183 116.173 271.916 115.307 271.543 114.64C271.196 113.947 270.703 113.4 270.063 113C269.449 112.6 268.663 112.32 267.703 112.16C266.743 112 265.583 111.92 264.223 111.92H259.143C258.689 111.92 258.463 112.147 258.463 112.6V124.08Z" fill="white"/>
<defs>
<filter id="filter0_d_3_110" x="-0.00088501" y="0.0088501" width="43.8935" height="49.1856" filterUnits="userSpaceOnUse" color-interpolation-filters="sRGB">
<feFlood flood-opacity="0" result="BackgroundImageFix"/>
<feColorMatrix in="SourceAlpha" type="matrix" values="0 0 0 0 0 0 0 0 0 0 0 0 0 0 0 0 0 0 127 0" result="hardAlpha"/>
<feOffset dy="4"/>
<feGaussianBlur stdDeviation="2"/>
<feComposite in2="hardAlpha" operator="out"/>
<feColorMatrix type="matrix" values="0 0 0 0 0 0 0 0 0 0 0 0 0 0 0 0 0 0 0.25 0"/>
<feBlend mode="normal" in2="BackgroundImageFix" result="effect1_dropShadow_3_110"/>
<feBlend mode="normal" in="SourceGraphic" in2="effect1_dropShadow_3_110" result="shape"/>
</filter>
<filter id="filter1_d_3_110" x="33.7143" y="40.4541" width="40.7996" height="41.4376" filterUnits="userSpaceOnUse" color-interpolation-filters="sRGB">
<feFlood flood-opacity="0" result="BackgroundImageFix"/>
<feColorMatrix in="SourceAlpha" type="matrix" values="0 0 0 0 0 0 0 0 0 0 0 0 0 0 0 0 0 0 127 0" result="hardAlpha"/>
<feOffset dy="4"/>
<feGaussianBlur stdDeviation="2"/>
<feComposite in2="hardAlpha" operator="out"/>
<feColorMatrix type="matrix" values="0 0 0 0 0 0 0 0 0 0 0 0 0 0 0 0 0 0 0.25 0"/>
<feBlend mode="normal" in2="BackgroundImageFix" result="effect1_dropShadow_3_110"/>
<feBlend mode="normal" in="SourceGraphic" in2="effect1_dropShadow_3_110" result="shape"/>
</filter>
<filter id="filter2_d_3_110" x="6.34518" y="81.4459" width="37.4457" height="43.3834" filterUnits="userSpaceOnUse" color-interpolation-filters="sRGB">
<feFlood flood-opacity="0" result="BackgroundImageFix"/>
<feColorMatrix in="SourceAlpha" type="matrix" values="0 0 0 0 0 0 0 0 0 0 0 0 0 0 0 0 0 0 127 0" result="hardAlpha"/>
<feOffset dy="4"/>
<feGaussianBlur stdDeviation="2"/>
<feComposite in2="hardAlpha" operator="out"/>
<feColorMatrix type="matrix" values="0 0 0 0 0 0 0 0 0 0 0 0 0 0 0 0 0 0 0.25 0"/>
<feBlend mode="normal" in2="BackgroundImageFix" result="effect1_dropShadow_3_110"/>
<feBlend mode="normal" in="SourceGraphic" in2="effect1_dropShadow_3_110" result="shape"/>
</filter>
<filter id="filter3_d_3_110" x="33" y="29" width="11.0773" height="119.807" filterUnits="userSpaceOnUse" color-interpolation-filters="sRGB">
<feFlood flood-opacity="0" result="BackgroundImageFix"/>
<feColorMatrix in="SourceAlpha" type="matrix" values="0 0 0 0 0 0 0 0 0 0 0 0 0 0 0 0 0 0 127 0" result="hardAlpha"/>
<feOffset dy="4"/>
<feGaussianBlur stdDeviation="2"/>
<feComposite in2="hardAlpha" operator="out"/>
<feColorMatrix type="matrix" values="0 0 0 0 0 0 0 0 0 0 0 0 0 0 0 0 0 0 0.25 0"/>
<feBlend mode="normal" in2="BackgroundImageFix" result="effect1_dropShadow_3_110"/>
<feBlend mode="normal" in="SourceGraphic" in2="effect1_dropShadow_3_110" result="shape"/>
</filter>
</defs>
</svg>
